{"glyphs":{"0":{"ha":694,"x_min":41,"x_max":653,"o":"m 309 -28 q 110 60 178 -28 q 41 314 41 147 q 133 706 41 564 q 386 847 225 847 q 584 760 514 847 q 653 513 653 673 q 562 115 653 257 q 309 -28 471 -28 m 323 14 q 457 145 412 14 q 503 532 503 276 q 470 739 503 671 q 370 807 437 807 q 236 675 283 807 q 189 301 189 543 q 222 84 189 155 q 323 14 256 14 z "},"1":{"ha":694,"x_min":96,"x_max":627,"o":"m 96 0 l 138 47 q 207 53 169 50 q 292 60 245 56 q 307 243 298 149 q 317 345 316 338 l 323 439 q 332 534 324 446 q 343 692 340 622 q 257 673 298 685 q 176 644 216 661 l 146 667 q 309 747 227 703 q 478 842 392 790 l 494 827 q 467 553 482 718 q 460 484 462 505 l 454 411 q 437 196 441 270 q 433 62 433 121 q 525 53 477 56 q 627 47 572 50 l 598 0 q 475 3 538 2 q 350 4 413 4 q 223 3 287 4 q 96 0 160 2 z "},"2":{"ha":694,"x_min":8,"x_max":652,"o":"m 8 57 l 90 135 q 377 440 314 346 q 440 621 440 534 q 406 745 440 697 q 319 793 372 793 q 237 754 269 793 q 204 653 204 715 q 207 607 204 627 q 215 567 210 586 l 96 522 q 83 564 87 545 q 79 603 79 584 q 166 773 79 707 q 389 840 254 840 q 535 791 482 840 q 587 656 587 743 q 568 569 587 614 q 511 476 549 524 q 379 359 452 427 q 300 288 305 292 l 195 191 q 297 166 231 186 q 320 159 312 162 l 393 138 l 395 137 q 493 113 479 113 q 636 242 537 113 l 643 251 l 652 208 q 601 117 633 176 q 525 -22 545 15 q 505 -27 513 -26 q 490 -29 496 -29 q 436 -20 475 -29 q 354 5 397 -10 l 285 32 q 252 44 273 36 q 143 77 168 77 q 87 60 119 77 q 8 7 56 43 l 8 57 z "},"3":{"ha":694,"x_min":-18,"x_max":586,"o":"m 45 118 q 163 70 113 85 q 250 54 214 54 q 388 114 336 54 q 440 269 440 173 q 396 396 440 349 q 278 443 352 443 q 238 439 260 443 q 191 429 215 436 l 191 458 q 365 540 302 487 q 427 660 427 593 q 402 730 427 705 q 335 755 378 755 q 272 745 307 755 q 189 710 237 734 l 184 733 q 248 782 215 758 q 318 829 281 806 q 363 843 340 838 q 408 847 385 847 q 518 812 478 847 q 558 717 558 777 q 552 680 558 700 q 528 624 545 659 q 467 568 499 595 q 399 517 435 542 q 536 463 486 511 q 586 335 586 414 q 569 245 586 292 q 517 149 551 199 q 315 8 388 49 q 199 -33 243 -33 q 85 -23 140 -33 q -18 8 31 -12 l 45 118 z "},"4":{"ha":694,"x_min":1,"x_max":686,"o":"m 370 304 l 387 500 q 394 581 388 507 q 408 719 401 654 q 316 610 363 668 q 218 486 269 553 l 161 411 q 133 369 151 397 q 93 304 115 340 l 370 304 m 521 -4 q 461 -25 497 -17 q 374 -39 426 -34 q 357 -30 363 -35 q 349 -16 351 -25 q 355 114 350 31 q 357 154 356 141 l 363 233 l 97 233 q 37 236 59 233 q 1 244 16 239 q 78 366 37 307 q 161 481 118 425 l 221 557 q 304 659 252 597 q 439 811 357 720 q 498 830 472 820 q 546 850 525 840 q 534 750 539 804 q 524 627 528 696 l 518 554 q 499 311 509 429 q 497 286 497 287 q 500 304 498 292 l 686 302 q 655 268 674 286 q 610 233 635 250 l 496 233 l 492 158 q 490 136 491 150 q 489 93 489 104 q 496 42 489 65 q 521 -4 504 20 z "},"5":{"ha":694,"x_min":14,"x_max":671,"o":"m 14 24 l 89 117 q 193 71 146 85 q 279 56 239 56 q 401 106 353 56 q 449 235 449 157 q 402 376 449 323 q 279 429 355 429 q 202 417 239 429 q 134 380 166 405 l 114 393 q 151 552 131 448 q 155 572 154 566 l 170 636 q 184 720 176 674 q 200 818 192 766 q 279 807 249 811 q 321 802 310 802 l 363 799 q 375 798 367 799 q 387 798 383 798 q 534 829 467 798 q 671 930 602 861 l 671 889 q 580 774 612 813 q 536 722 549 734 q 474 682 507 694 q 364 671 441 671 l 351 671 q 287 671 313 671 q 233 672 260 671 q 209 595 222 641 q 178 482 196 550 q 264 512 222 503 q 349 522 306 522 q 523 467 459 522 q 587 315 587 411 q 568 210 587 259 q 510 119 548 160 q 406 47 463 81 q 282 -21 350 12 q 240 -27 260 -25 q 201 -29 220 -29 q 99 -16 146 -29 q 14 24 53 -3 z "},"6":{"ha":694,"x_min":57,"x_max":643,"o":"m 203 301 q 273 118 216 191 q 401 46 330 46 q 489 84 454 46 q 524 180 524 122 q 469 313 524 257 q 342 368 415 368 q 273 352 307 368 q 203 301 239 336 m 196 347 q 258 390 209 356 q 339 446 307 425 q 391 461 367 456 q 433 467 414 467 q 573 412 517 467 q 629 277 629 357 q 610 178 629 226 q 555 92 591 131 q 443 -1 498 29 q 328 -31 387 -31 q 133 68 210 -31 q 57 322 57 167 q 90 521 57 428 q 187 685 123 614 q 270 753 218 718 q 382 818 321 789 q 445 839 412 832 q 521 846 478 846 q 581 838 551 846 q 643 812 612 829 l 582 729 q 502 765 538 753 q 432 777 466 777 q 260 671 325 777 q 195 390 195 566 q 195 370 195 384 q 196 347 196 355 z "},"7":{"ha":694,"x_min":97,"x_max":693,"o":"m 215 -35 q 191 19 199 -7 q 183 72 183 45 q 185 108 183 90 q 192 143 187 125 q 295 316 214 189 l 310 339 l 401 481 q 416 503 406 487 q 538 696 484 604 q 464 689 505 691 q 363 685 422 686 l 278 684 q 241 683 268 684 q 197 682 214 682 q 123 688 140 682 q 97 707 106 693 q 115 793 104 747 q 140 892 125 840 l 172 912 q 171 902 172 907 q 171 885 171 896 q 193 830 171 844 q 303 814 215 815 l 530 814 q 621 825 588 814 q 679 863 653 836 l 693 847 q 621 740 657 795 q 549 627 585 684 l 496 543 l 475 511 q 322 171 322 274 q 331 98 322 139 q 358 8 340 57 l 215 -35 z "},"8":{"ha":694,"x_min":49,"x_max":616,"o":"m 380 497 q 470 575 442 534 q 498 671 498 617 q 467 758 498 725 q 385 791 436 791 q 300 753 334 791 q 265 660 265 715 q 294 569 265 610 q 380 497 323 528 m 278 396 q 204 315 230 365 q 179 204 179 266 q 222 81 179 130 q 330 32 265 32 q 436 75 393 32 q 479 180 479 119 q 434 288 479 239 q 278 396 389 337 m 250 415 q 169 496 195 452 q 142 595 142 540 q 168 696 142 651 q 248 778 193 741 q 349 827 291 808 q 453 846 407 846 q 571 804 526 846 q 616 696 616 763 q 604 631 616 661 q 566 574 591 600 q 454 499 534 551 q 418 475 431 484 q 562 371 520 420 q 603 258 603 322 q 578 158 603 207 q 507 69 553 110 q 392 0 455 25 q 267 -25 328 -25 q 109 34 168 -25 q 49 189 49 92 q 64 264 49 229 q 109 329 79 299 q 176 371 140 349 q 250 415 212 393 z "},"9":{"ha":694,"x_min":7,"x_max":631,"o":"m 486 533 q 412 702 464 641 q 290 764 359 764 q 200 727 235 764 q 165 632 165 690 q 213 507 165 559 q 326 456 260 456 q 405 475 366 456 q 486 533 444 494 m 7 31 l 75 129 q 191 71 138 91 q 283 52 244 52 q 437 152 380 52 q 494 424 494 252 q 494 463 494 450 q 493 486 494 475 q 429 435 463 461 q 355 380 395 409 q 310 360 333 367 q 260 354 286 354 q 119 410 175 354 q 64 550 64 465 q 85 644 64 600 q 157 736 107 688 q 268 814 212 789 q 385 840 324 840 q 564 742 496 840 q 631 478 631 644 q 597 258 631 352 q 497 103 564 164 q 426 57 478 85 q 306 -1 374 28 q 251 -18 280 -12 q 189 -24 222 -24 q 89 -11 133 -24 q 7 31 44 3 z "},"":{"ha":833,"x_min":69,"x_max":764,"o":"m 69 -245 l 69 979 l 764 979 l 764 -245 l 69 -245 m 147 -168 l 686 -168 l 686 901 l 147 901 l 147 -168 z "},"Ĉ":{"ha":833,"x_min":69,"x_max":764,"o":"m 69 -245 l 69 979 l 764 979 l 764 -245 l 69 -245 m 147 -168 l 686 -168 l 686 901 l 147 901 l 147 -168 z "},"ĉ":{"ha":833,"x_min":69,"x_max":764,"o":"m 69 -245 l 69 979 l 764 979 l 764 -245 l 69 -245 m 147 -168 l 686 -168 l 686 901 l 147 901 l 147 -168 z "},"Ċ":{"ha":833,"x_min":69,"x_max":764,"o":"m 69 -245 l 69 979 l 764 979 l 764 -245 l 69 -245 m 147 -168 l 686 -168 l 686 901 l 147 901 l 147 -168 z "},"ċ":{"ha":833,"x_min":69,"x_max":764,"o":"m 69 -245 l 69 979 l 764 979 l 764 -245 l 69 -245 m 147 -168 l 686 -168 l 686 901 l 147 901 l 147 -168 z "},"Ď":{"ha":833,"x_min":69,"x_max":764,"o":"m 69 -245 l 69 979 l 764 979 l 764 -245 l 69 -245 m 147 -168 l 686 -168 l 686 901 l 147 901 l 147 -168 z "},"ď":{"ha":833,"x_min":69,"x_max":764,"o":"m 69 -245 l 69 979 l 764 979 l 764 -245 l 69 -245 m 147 -168 l 686 -168 l 686 901 l 147 901 l 147 -168 z "},"Đ":{"ha":833,"x_min":69,"x_max":764,"o":"m 69 -245 l 69 979 l 764 979 l 764 -245 l 69 -245 m 147 -168 l 686 -168 l 686 901 l 147 901 l 147 -168 z "},"Ź":{"ha":833,"x_min":69,"x_max":764,"o":"m 69 -245 l 69 979 l 764 979 l 764 -245 l 69 -245 m 147 -168 l 686 -168 l 686 901 l 147 901 l 147 -168 z "},"ź":{"ha":833,"x_min":69,"x_max":764,"o":"m 69 -245 l 69 979 l 764 979 l 764 -245 l 69 -245 m 147 -168 l 686 -168 l 686 901 l 147 901 l 147 -168 z "},"Ż":{"ha":833,"x_min":69,"x_max":764,"o":"m 69 -245 l 69 979 l 764 979 l 764 -245 l 69 -245 m 147 -168 l 686 -168 l 686 901 l 147 901 l 147 -168 z "},"ż":{"ha":833,"x_min":69,"x_max":764,"o":"m 69 -245 l 69 979 l 764 979 l 764 -245 l 69 -245 m 147 -168 l 686 -168 l 686 901 l 147 901 l 147 -168 z "},"―":{"ha":833,"x_min":69,"x_max":764,"o":"m 69 -245 l 69 979 l 764 979 l 764 -245 l 69 -245 m 147 -168 l 686 -168 l 686 901 l 147 901 l 147 -168 z "},"‖":{"ha":833,"x_min":69,"x_max":764,"o":"m 69 -245 l 69 979 l 764 979 l 764 -245 l 69 -245 m 147 -168 l 686 -168 l 686 901 l 147 901 l 147 -168 z "},"‗":{"ha":833,"x_min":69,"x_max":764,"o":"m 69 -245 l 69 979 l 764 979 l 764 -245 l 69 -245 m 147 -168 l 686 -168 l 686 901 l 147 901 l 147 -168 z "},"‛":{"ha":833,"x_min":69,"x_max":764,"o":"m 69 -245 l 69 979 l 764 979 l 764 -245 l 69 -245 m 147 -168 l 686 -168 l 686 901 l 147 901 l 147 -168 z "},"‟":{"ha":833,"x_min":69,"x_max":764,"o":"m 69 -245 l 69 979 l 764 979 l 764 -245 l 69 -245 m 147 -168 l 686 -168 l 686 901 l 147 901 l 147 -168 z "},"‣":{"ha":833,"x_min":69,"x_max":764,"o":"m 69 -245 l 69 979 l 764 979 l 764 -245 l 69 -245 m 147 -168 l 686 -168 l 686 901 l 147 901 l 147 -168 z "},"․":{"ha":833,"x_min":69,"x_max":764,"o":"m 69 -245 l 69 979 l 764 979 l 764 -245 l 69 -245 m 147 -168 l 686 -168 l 686 901 l 147 901 l 147 -168 z "},"‥":{"ha":833,"x_min":69,"x_max":764,"o":"m 69 -245 l 69 979 l 764 979 l 764 -245 l 69 -245 m 147 -168 l 686 -168 l 686 901 l 147 901 l 147 -168 z "},"∃":{"ha":833,"x_min":69,"x_max":764,"o":"m 69 -245 l 69 979 l 764 979 l 764 -245 l 69 -245 m 147 -168 l 686 -168 l 686 901 l 147 901 l 147 -168 z "},"∄":{"ha":833,"x_min":69,"x_max":764,"o":"m 69 -245 l 69 979 l 764 979 l 764 -245 l 69 -245 m 147 -168 l 686 -168 l 686 901 l 147 901 l 147 -168 z "},"∅":{"ha":833,"x_min":69,"x_max":764,"o":"m 69 -245 l 69 979 l 764 979 l 764 -245 l 69 -245 m 147 -168 l 686 -168 l 686 901 l 147 901 l 147 -168 z "},"∐":{"ha":833,"x_min":69,"x_max":764,"o":"m 69 -245 l 69 979 l 764 979 l 764 -245 l 69 -245 m 147 -168 l 686 -168 l 686 901 l 147 901 l 147 -168 z "},"∓":{"ha":833,"x_min":69,"x_max":764,"o":"m 69 -245 l 69 979 l 764 979 l 764 -245 l 69 -245 m 147 -168 l 686 -168 l 686 901 l 147 901 l 147 -168 z "},"∔":{"ha":833,"x_min":69,"x_max":764,"o":"m 69 -245 l 69 979 l 764 979 l 764 -245 l 69 -245 m 147 -168 l 686 -168 l 686 901 l 147 901 l 147 -168 z "},"∖":{"ha":833,"x_min":69,"x_max":764,"o":"m 69 -245 l 69 979 l 764 979 l 764 -245 l 69 -245 m 147 -168 l 686 -168 l 686 901 l 147 901 l 147 -168 z "},"∗":{"ha":833,"x_min":69,"x_max":764,"o":"m 69 -245 l 69 979 l 764 979 l 764 -245 l 69 -245 m 147 -168 l 686 -168 l 686 901 l 147 901 l 147 -168 z "},"∘":{"ha":833,"x_min":69,"x_max":764,"o":"m 69 -245 l 69 979 l 764 979 l 764 -245 l 69 -245 m 147 -168 l 686 -168 l 686 901 l 147 901 l 147 -168 z "},"∛":{"ha":833,"x_min":69,"x_max":764,"o":"m 69 -245 l 69 979 l 764 979 l 764 -245 l 69 -245 m 147 -168 l 686 -168 l 686 901 l 147 901 l 147 -168 z "},"∜":{"ha":833,"x_min":69,"x_max":764,"o":"m 69 -245 l 69 979 l 764 979 l 764 -245 l 69 -245 m 147 -168 l 686 -168 l 686 901 l 147 901 l 147 -168 z "},"∝":{"ha":833,"x_min":69,"x_max":764,"o":"m 69 -245 l 69 979 l 764 979 l 764 -245 l 69 -245 m 147 -168 l 686 -168 l 686 901 l 147 901 l 147 -168 z "},"≡":{"ha":833,"x_min":69,"x_max":764,"o":"m 69 -245 l 69 979 l 764 979 l 764 -245 l 69 -245 m 147 -168 l 686 -168 l 686 901 l 147 901 l 147 -168 z "},"≢":{"ha":833,"x_min":69,"x_max":764,"o":"m 69 -245 l 69 979 l 764 979 l 764 -245 l 69 -245 m 147 -168 l 686 -168 l 686 901 l 147 901 l 147 -168 z "},"≣":{"ha":833,"x_min":69,"x_max":764,"o":"m 69 -245 l 69 979 l 764 979 l 764 -245 l 69 -245 m 147 -168 l 686 -168 l 686 901 l 147 901 l 147 -168 z "}," ":{"ha":347,"x_min":0,"x_max":0,"o":""},"!":{"ha":386,"x_min":78,"x_max":317,"o":"m 139 277 q 138 313 138 290 q 134 453 134 414 q 141 624 134 541 q 163 782 148 706 q 199 799 174 787 q 317 851 273 833 l 292 747 q 249 531 267 640 q 224 315 232 423 q 177 296 197 305 q 139 277 156 286 m 78 100 q 138 166 106 138 q 201 212 169 195 q 242 163 221 191 q 285 100 262 135 q 231 34 257 62 q 178 -14 204 6 q 132 41 156 14 q 78 100 109 68 z "},"\"":{"ha":465,"x_min":58,"x_max":406,"o":"m 357 583 l 334 583 l 286 895 q 285 904 286 899 q 285 920 285 909 q 300 973 285 954 q 345 991 315 991 q 389 973 373 991 q 406 922 406 955 q 405 906 406 911 q 404 895 405 900 l 357 583 m 132 583 l 109 583 l 61 895 q 59 912 60 906 q 58 922 58 918 q 75 973 58 955 q 119 991 91 991 q 165 973 149 991 q 180 920 180 954 q 180 904 180 909 q 179 894 180 899 l 132 583 z "},"#":{"ha":1068,"x_min":60,"x_max":1008,"o":"m 476 586 l 410 399 l 602 399 l 667 586 l 476 586 m 515 989 l 621 989 l 511 681 l 699 681 l 808 989 l 914 989 l 804 681 l 1008 681 l 975 586 l 771 586 l 705 399 l 922 399 l 889 304 l 672 304 l 562 -3 l 457 -3 l 567 304 l 378 304 l 268 -3 l 164 -3 l 272 304 l 60 304 l 94 399 l 306 399 l 372 586 l 144 586 l 179 681 l 406 681 l 515 989 z "},"$":{"ha":694,"x_min":45,"x_max":575,"o":"m 330 504 q 339 640 335 577 q 347 755 343 702 l 339 755 q 245 721 283 755 q 207 637 207 686 q 236 562 207 593 q 330 504 266 530 m 343 104 l 347 104 q 458 136 416 104 q 500 216 500 167 q 468 288 500 258 q 358 345 435 317 q 351 249 355 300 q 343 104 348 197 m 269 -182 q 279 -92 275 -137 q 286 0 283 -47 l 278 0 q 168 13 224 0 q 45 53 111 26 l 118 154 q 217 118 173 130 q 296 106 261 106 q 305 198 300 143 q 318 358 310 254 q 186 445 231 395 q 142 557 142 495 q 199 721 142 647 q 353 827 257 795 q 356 871 355 849 q 357 914 357 892 l 357 943 l 418 970 q 412 923 416 962 q 403 828 408 883 q 496 805 453 824 q 575 750 538 785 l 504 673 q 441 718 468 701 q 393 741 415 734 q 384 647 389 699 q 371 490 379 595 q 522 403 477 448 q 566 294 566 358 q 545 205 566 256 q 489 109 525 155 q 420 40 458 66 q 336 3 382 14 l 336 -3 q 326 -155 328 -106 l 269 -182 z "},"%":{"ha":926,"x_min":50,"x_max":873,"o":"m 681 395 q 609 343 637 395 q 582 204 582 291 q 604 76 582 121 q 668 31 627 31 q 740 80 715 31 q 765 220 765 129 q 744 352 765 309 q 681 395 724 395 m 475 171 q 489 275 475 232 q 533 346 504 319 q 632 419 585 395 q 721 443 679 443 q 833 392 792 443 q 873 253 873 342 q 860 150 873 192 q 817 78 846 107 q 720 5 768 31 q 628 -20 671 -20 q 516 32 557 -20 q 475 171 475 83 m 663 803 q 603 787 635 792 q 530 782 571 782 q 485 783 515 782 q 412 786 454 784 q 442 725 432 756 q 452 657 452 694 q 436 552 452 597 q 392 478 421 507 q 295 406 343 431 q 203 380 246 380 q 91 432 132 380 q 50 572 50 484 q 64 676 50 633 q 107 746 79 720 q 203 818 157 793 q 288 842 249 842 q 375 835 319 842 q 456 828 431 828 q 577 833 528 828 q 644 848 627 839 q 683 884 661 857 q 748 975 705 911 q 773 958 759 964 q 807 953 787 953 q 833 955 816 953 q 838 956 836 956 q 672 704 777 876 q 642 654 652 671 l 460 355 q 260 -6 337 154 q 174 -237 184 -166 l 107 -139 q 339 265 163 -24 l 372 319 l 524 570 l 531 582 q 663 803 595 688 m 256 794 q 184 743 212 794 q 157 604 157 691 q 180 476 157 521 q 244 431 203 431 q 315 480 290 431 q 340 621 340 530 q 320 752 340 709 q 256 794 299 794 z "},"&":{"ha":1152,"x_min":14,"x_max":1133,"o":"m 401 542 q 536 624 487 581 q 585 699 585 666 q 558 754 585 730 q 496 778 532 778 q 417 742 449 778 q 386 652 386 705 q 390 600 386 627 q 401 542 394 572 m 646 180 q 734 292 705 229 q 764 432 764 355 q 763 457 764 444 q 758 497 762 470 q 536 507 652 499 q 501 509 507 509 q 469 507 490 509 q 414 500 448 505 q 515 307 456 389 q 646 180 574 226 m 526 96 q 389 256 447 169 q 294 446 332 343 q 190 368 222 412 q 157 261 157 324 q 216 107 157 168 q 367 46 276 46 q 441 58 402 46 q 526 96 481 71 m 562 65 q 407 2 481 23 q 262 -18 333 -18 q 82 42 151 -18 q 14 201 14 103 q 78 354 14 287 q 285 484 143 422 q 279 526 281 508 q 278 559 278 544 q 294 658 278 614 q 343 733 311 702 q 457 814 395 784 q 570 844 519 844 q 659 814 623 844 q 696 745 696 785 q 668 682 696 713 q 538 578 640 650 q 698 568 591 570 q 724 568 715 568 l 859 564 q 881 563 867 564 q 903 562 896 562 q 1012 579 983 562 q 1042 639 1042 595 q 1035 676 1042 657 q 1013 715 1027 695 l 1108 746 q 1118 708 1115 726 q 1121 673 1121 690 q 1040 555 1121 631 q 1015 532 1024 540 q 968 504 996 513 q 881 490 940 494 q 868 387 878 431 q 842 313 858 343 q 790 249 827 286 q 685 155 753 212 q 784 115 737 128 q 875 102 831 102 q 1003 132 942 102 q 1131 228 1065 161 l 1133 186 q 941 26 1012 68 q 806 -17 871 -17 q 689 4 750 -17 q 562 65 629 24 z "},"'":{"ha":239,"x_min":58,"x_max":180,"o":"m 132 583 l 109 583 l 61 895 q 60 900 61 896 q 58 920 58 913 q 74 972 58 954 q 119 991 90 991 q 164 973 148 991 q 180 922 180 955 q 180 912 180 918 q 178 894 180 907 l 132 583 z "},"(":{"ha":476,"x_min":125,"x_max":422,"o":"m 267 -302 q 160 -91 195 -216 q 125 210 125 35 q 189 605 125 422 q 372 913 254 788 q 378 915 376 915 q 386 916 381 916 q 406 912 397 916 q 422 901 415 908 q 271 651 324 803 q 218 313 218 498 q 256 7 218 149 q 370 -264 293 -136 l 267 -302 z "},")":{"ha":476,"x_min":35,"x_max":340,"o":"m 204 917 q 306 713 272 831 q 340 446 340 595 q 278 51 340 237 q 90 -298 216 -135 l 35 -290 q 194 -1 142 -157 q 245 339 245 154 q 208 635 245 499 q 94 878 170 771 l 204 917 z "},"*":{"ha":616,"x_min":94,"x_max":559,"o":"m 94 507 q 178 555 136 530 q 265 606 220 579 q 161 681 204 648 q 100 728 117 713 l 150 768 q 211 713 174 743 q 293 653 248 684 q 294 679 294 665 q 294 721 294 693 q 293 783 294 752 q 290 842 292 813 l 363 854 q 357 779 362 848 q 347 650 352 710 q 428 703 390 680 q 498 743 466 726 l 559 699 q 468 655 516 679 q 370 603 420 631 q 443 550 387 591 q 534 485 499 509 l 479 443 q 407 504 440 477 q 343 555 374 531 q 338 381 343 504 l 338 368 l 285 361 l 265 375 q 277 464 271 420 q 288 554 283 509 q 221 510 258 532 q 140 463 184 487 l 94 507 z "},"+":{"ha":1157,"x_min":172,"x_max":985,"o":"m 530 828 l 627 828 l 627 461 l 985 461 l 985 367 l 627 367 l 627 0 l 530 0 l 530 367 l 172 367 l 172 461 l 530 461 l 530 828 z "},",":{"ha":347,"x_min":-77,"x_max":221,"o":"m -77 -174 q 22 -84 -15 -123 q 78 -12 58 -46 q 98 41 92 11 q 104 115 104 72 q 103 163 104 140 q 98 211 102 186 l 221 264 l 221 232 q 216 110 221 156 q 200 41 211 64 q 103 -75 164 -15 q -40 -195 42 -135 l -77 -174 z "},"-":{"ha":457,"x_min":28,"x_max":412,"o":"m 28 244 l 77 359 l 412 359 l 364 244 l 28 244 z "},".":{"ha":347,"x_min":58,"x_max":265,"o":"m 155 -11 q 98 51 121 21 q 58 110 74 80 q 121 172 90 144 q 179 216 152 199 q 220 151 199 181 q 265 94 241 121 q 210 34 237 60 q 155 -11 183 7 z "},"/":{"ha":389,"x_min":-144,"x_max":450,"o":"m 450 851 q 388 732 426 805 q 336 635 349 659 l 54 100 q 32 58 47 87 q -64 -129 -28 -54 l -144 -129 l -33 74 q 52 229 41 210 l 191 493 q 288 682 242 592 q 371 851 333 772 l 450 851 z "},":":{"ha":379,"x_min":74,"x_max":301,"o":"m 192 389 q 139 445 163 415 q 94 511 115 475 q 162 571 130 545 q 221 612 195 597 q 262 557 242 588 q 301 488 282 526 q 254 440 281 465 q 192 389 227 416 m 163 -14 q 111 43 133 12 q 74 110 89 75 l 192 216 q 234 153 213 186 q 277 82 255 120 q 228 32 256 55 q 163 -14 199 8 z "},";":{"ha":379,"x_min":-50,"x_max":296,"o":"m 174 392 q 123 452 146 421 q 83 514 101 482 q 151 572 119 547 q 210 612 184 597 q 255 547 234 576 q 296 494 275 518 q 238 441 268 467 q 174 392 208 416 m -50 -174 q 96 -24 60 -81 q 131 104 131 33 q 129 141 131 119 q 121 211 127 163 q 182 240 151 228 q 248 260 214 252 l 248 228 q 242 109 248 153 q 227 41 237 64 q 130 -75 191 -15 q -14 -195 68 -135 l -50 -174 z "},"<":{"ha":1157,"x_min":179,"x_max":978,"o":"m 978 786 l 978 682 l 321 414 l 978 147 l 978 43 l 179 371 l 179 458 l 978 786 z "},"=":{"ha":1157,"x_min":172,"x_max":985,"o":"m 172 326 l 985 326 l 985 232 l 172 232 l 172 326 m 172 596 l 985 596 l 985 501 l 172 501 l 172 596 z "},">":{"ha":1157,"x_min":179,"x_max":978,"o":"m 179 786 l 978 458 l 978 371 l 179 43 l 179 147 l 838 414 l 179 682 l 179 786 z "},"?":{"ha":463,"x_min":79,"x_max":446,"o":"m 154 240 q 122 285 132 260 q 111 343 111 311 q 115 374 111 358 q 126 406 119 389 q 283 540 248 492 q 319 642 319 587 q 283 726 319 696 q 179 755 246 755 q 140 753 161 755 q 94 745 119 750 l 164 831 q 224 847 196 842 q 279 852 252 852 q 401 816 357 852 q 446 714 446 779 q 425 632 446 671 q 336 524 404 593 q 305 493 326 513 q 229 347 229 422 q 234 316 229 334 q 247 273 238 298 l 154 240 m 182 -17 q 124 34 150 6 q 79 93 98 61 q 130 148 102 121 q 191 197 157 174 q 233 144 209 170 q 286 94 256 119 q 236 42 262 70 q 182 -17 210 15 z "},"@":{"ha":1369,"x_min":96,"x_max":1275,"o":"m 804 225 q 711 119 762 154 q 596 85 659 85 q 456 147 509 85 q 404 314 404 210 q 438 460 404 388 q 533 593 471 533 q 632 660 579 637 q 737 684 685 684 q 836 651 798 684 q 888 554 874 618 l 922 672 l 1029 672 l 913 257 q 910 249 912 255 q 900 191 900 211 q 916 137 900 156 q 961 118 932 118 q 1016 132 983 118 q 1076 167 1048 145 q 1198 322 1157 228 q 1239 538 1239 416 q 1203 704 1239 628 q 1097 840 1168 780 q 952 921 1036 892 q 771 949 868 949 q 544 907 649 949 q 357 785 438 865 q 228 590 271 701 q 184 347 184 479 q 223 135 184 224 q 345 -24 262 46 q 517 -119 418 -86 q 725 -153 615 -153 q 947 -118 840 -153 q 1150 -12 1053 -83 l 1173 -40 q 961 -153 1073 -115 q 726 -191 848 -191 q 492 -160 598 -191 q 306 -68 386 -129 q 150 120 203 9 q 96 364 96 231 q 154 622 96 502 q 325 835 213 743 q 525 948 416 910 q 757 986 633 986 q 1133 858 991 986 q 1275 519 1275 730 q 1235 317 1275 412 q 1122 157 1196 223 q 1037 102 1082 121 q 946 83 991 83 q 845 119 881 83 q 804 225 809 155 m 749 652 q 682 631 712 652 q 621 564 652 610 q 544 405 572 491 q 515 250 515 319 q 542 156 515 192 q 611 121 569 121 q 694 150 655 121 q 770 240 733 180 q 830 378 807 303 q 852 513 852 454 q 824 613 852 575 q 749 652 795 652 z "},"A":{"ha":854,"x_min":-146,"x_max":939,"o":"m 537 364 q 461 639 517 427 l 444 701 l 272 368 q 333 362 302 364 q 396 359 364 359 q 452 360 416 359 q 537 364 487 361 m 542 842 q 593 645 570 727 q 635 501 616 562 l 732 191 q 798 72 760 103 q 911 40 836 40 q 924 41 915 40 q 939 41 934 41 l 921 8 q 837 -2 881 3 q 742 -9 793 -6 l 685 -14 q 560 285 644 -10 l 553 311 q 376 307 458 309 q 239 301 294 304 q 175 174 203 235 q 125 58 146 112 q 174 54 142 57 q 265 47 237 48 l 218 0 q 117 6 168 4 q 16 8 66 8 q -74 6 -37 8 q -146 0 -112 4 l -94 47 q -37 53 -71 50 q 7 59 -4 57 q 98 197 48 116 q 210 387 147 277 l 437 791 q 455 813 446 806 q 482 825 465 821 l 542 842 z "},"B":{"ha":819,"x_min":-39,"x_max":768,"o":"m 279 421 q 265 225 270 315 q 258 53 260 136 q 322 45 290 48 q 385 43 353 43 q 553 96 496 43 q 611 252 611 149 q 550 383 611 342 q 354 424 490 424 q 283 421 332 424 l 279 421 m 309 779 q 296 659 302 724 q 283 472 291 593 q 299 471 289 472 q 314 471 309 471 q 497 523 428 471 q 566 659 566 574 q 523 755 566 724 q 390 786 481 786 q 355 784 375 786 q 309 779 336 783 m 76 829 q 125 828 100 829 q 199 828 151 828 q 410 831 304 828 q 517 835 516 835 q 666 797 615 835 q 717 685 717 758 q 687 584 717 631 q 600 504 656 537 q 518 476 558 488 q 441 456 479 465 q 692 408 615 454 q 768 260 768 362 q 679 65 768 137 q 435 -7 589 -7 q 275 -4 430 -7 q -39 0 119 -1 l 12 44 q 64 50 29 46 q 114 56 98 54 q 130 240 123 158 q 142 400 136 323 l 147 488 q 158 656 155 589 q 161 775 161 724 q 125 779 149 776 q 33 787 61 785 l 76 829 z "},"C":{"ha":840,"x_min":54,"x_max":798,"o":"m 766 89 q 562 5 654 33 q 395 -22 471 -22 q 143 80 232 -22 q 54 368 54 182 q 177 725 54 598 q 522 852 300 852 q 713 813 650 852 q 798 682 776 774 q 746 617 774 650 q 686 550 718 584 l 673 555 l 673 559 q 623 747 673 681 q 482 814 573 814 q 279 706 357 814 q 201 421 201 599 q 277 149 201 247 q 489 52 353 52 q 620 71 544 52 q 783 127 695 91 l 766 89 z "},"D":{"ha":981,"x_min":-39,"x_max":933,"o":"m -39 0 l 12 44 q 64 50 29 46 q 114 56 98 54 q 130 240 123 158 q 142 400 136 323 l 147 488 q 158 656 155 589 q 161 775 161 724 q 93 783 125 779 q 33 792 61 787 l 77 829 q 96 829 83 829 q 241 827 197 827 q 443 830 336 827 q 561 833 549 833 q 844 753 754 833 q 933 497 933 672 q 913 327 933 406 q 852 182 892 247 q 703 41 793 84 q 460 -1 612 -1 q 336 1 437 -1 q 155 3 235 3 q -22 0 102 3 q -39 0 -33 0 m 258 56 q 384 47 340 50 q 450 45 427 45 q 574 62 525 45 q 664 121 623 80 q 745 268 714 172 q 777 473 777 363 q 708 714 777 639 q 488 789 639 789 q 419 787 465 789 q 304 781 373 785 q 285 518 297 672 q 282 485 283 495 l 277 413 q 268 269 272 355 q 258 56 263 184 z "},"E":{"ha":829,"x_min":-39,"x_max":785,"o":"m 283 465 q 306 460 293 462 q 347 458 319 458 l 562 456 l 525 414 l 329 403 l 328 403 q 279 393 297 400 q 266 232 271 317 q 258 53 260 147 q 275 52 264 53 q 382 50 349 50 q 516 62 469 50 q 590 100 564 73 q 670 205 630 140 q 751 366 709 271 l 785 342 q 745 176 764 263 q 708 -8 726 89 q 643 -2 679 -4 q 551 0 606 0 l 292 0 l -39 0 l 12 45 q 260 65 176 58 l 114 53 q 126 197 121 123 q 142 400 132 271 l 147 488 q 158 660 155 591 q 161 779 161 729 q 94 786 124 782 q 35 795 63 789 l 77 829 l 260 829 q 520 835 412 829 q 696 851 629 840 q 727 815 714 835 q 747 772 741 795 l 654 671 q 618 731 637 707 q 583 764 600 755 q 535 777 567 772 q 452 781 504 781 l 380 781 l 304 781 q 292 610 297 690 q 283 465 286 531 z "},"F":{"ha":675,"x_min":-39,"x_max":707,"o":"m 283 465 q 306 460 293 462 q 347 458 319 458 l 562 456 l 525 414 l 329 403 l 328 403 q 279 393 297 400 q 266 232 271 315 q 258 60 260 149 q 340 52 285 58 q 425 43 395 45 l 383 -3 q 272 3 328 1 q 158 5 216 5 q 84 4 124 5 q -39 0 43 3 l 12 43 q 61 51 36 47 q 114 57 85 54 q 129 228 122 144 q 142 400 136 313 l 147 488 q 158 660 155 591 q 161 779 161 729 q 94 786 124 782 q 35 795 63 789 l 77 829 l 214 829 q 474 835 366 829 q 650 851 583 840 q 687 807 673 831 q 707 754 701 783 l 608 671 q 571 732 589 709 q 536 764 553 755 q 493 775 522 772 q 408 779 464 779 q 347 779 369 779 q 304 778 325 779 q 292 612 297 690 q 283 465 287 533 z "},"G":{"ha":908,"x_min":49,"x_max":896,"o":"m 896 380 l 850 339 l 800 321 q 783 142 793 229 q 762 -28 774 55 q 706 -68 739 -50 q 632 -100 673 -86 q 638 -40 635 -71 q 642 24 640 -9 q 497 -8 559 3 q 390 -20 435 -20 q 144 88 239 -20 q 49 368 49 195 q 171 722 49 593 q 507 850 292 850 q 703 815 628 850 q 810 710 778 781 q 763 645 787 677 q 708 578 738 612 l 690 589 q 629 750 685 691 q 484 810 574 810 q 275 706 353 810 q 197 427 197 602 q 281 149 197 250 q 513 49 366 49 q 575 56 541 49 q 648 79 609 64 q 650 113 649 91 q 654 199 654 178 q 646 286 654 259 q 616 319 637 312 q 485 336 589 330 q 446 339 460 338 l 503 380 l 896 380 z "},"H":{"ha":993,"x_min":-39,"x_max":1022,"o":"m 278 412 q 267 254 271 340 q 258 54 262 168 q 317 52 286 54 q 407 43 349 50 l 364 -3 q 253 3 307 1 q 143 5 198 5 q -35 0 83 5 l -39 0 l 12 43 q 65 50 39 47 q 114 56 92 54 q 130 240 123 158 q 142 400 136 323 l 147 488 q 158 656 155 589 q 161 775 161 724 q 91 782 136 777 q 33 789 47 787 l 76 829 q 175 826 126 827 q 272 825 224 825 q 368 826 321 825 q 459 829 414 827 l 421 789 q 413 788 418 789 q 304 775 347 779 q 291 605 295 667 q 286 502 287 543 q 323 473 298 481 q 410 465 348 465 q 426 466 410 465 q 456 467 441 467 q 643 468 570 467 q 718 469 715 469 q 731 623 726 547 q 736 777 735 700 q 663 783 709 778 q 596 789 616 787 l 650 829 q 703 827 667 829 q 827 825 783 825 q 934 827 866 825 q 1022 829 1002 829 l 976 789 q 935 779 958 783 q 878 772 911 775 q 865 606 873 706 q 856 474 857 493 l 847 350 q 839 220 843 293 q 831 57 835 146 q 906 50 856 55 q 976 43 957 44 l 930 0 q 812 4 854 3 q 733 5 770 5 q 538 0 669 5 l 530 0 l 571 43 q 623 52 595 48 q 690 59 652 56 q 705 228 700 146 q 711 388 710 310 q 666 416 702 407 q 557 425 630 425 q 455 422 525 425 q 278 412 385 418 z "},"I":{"ha":421,"x_min":-39,"x_max":459,"o":"m 304 775 q 291 594 298 696 q 282 473 283 491 l 273 350 q 267 235 270 298 q 258 56 263 172 q 334 50 284 54 q 407 45 383 46 l 364 0 l 356 0 q 143 5 214 5 q -35 0 83 5 l -39 0 l 12 44 q 64 50 29 46 q 114 56 98 54 q 130 240 123 158 q 142 400 136 323 l 147 488 q 158 656 155 589 q 161 775 161 724 q 95 782 127 778 q 34 792 62 787 l 77 829 q 176 826 127 827 q 273 825 225 825 q 368 826 321 825 q 459 829 414 827 l 421 791 q 369 782 398 787 q 304 775 339 778 z "},"J":{"ha":392,"x_min":-245,"x_max":422,"o":"m -165 -139 q -83 -201 -117 -183 q -20 -218 -50 -218 q 72 -144 43 -218 q 119 199 100 -70 l 142 488 q 151 628 149 576 q 154 722 154 680 q 153 745 154 730 q 153 766 153 760 q 72 778 113 772 q -12 791 31 784 l 22 823 q 153 828 81 827 q 317 829 224 829 l 422 829 l 387 792 q 375 789 382 791 q 302 772 324 774 q 277 452 289 637 q 273 397 275 413 l 257 170 q 254 132 256 156 q 180 -139 241 -70 q 34 -263 108 -221 q -113 -304 -39 -304 q -186 -289 -152 -304 q -245 -243 -220 -273 l -165 -139 z "},"K":{"ha":851,"x_min":-39,"x_max":911,"o":"m 277 371 q 265 219 269 298 q 258 54 260 140 q 380 47 299 54 q 407 45 397 45 l 364 0 l 356 0 q 143 5 214 5 q -35 0 83 5 l -39 0 l 12 44 q 64 50 29 46 q 114 56 98 54 q 130 240 123 158 q 142 400 136 323 l 147 488 q 158 656 155 589 q 161 775 161 724 q 93 783 125 779 q 33 792 61 787 l 76 829 q 175 826 126 827 q 272 825 224 825 q 368 826 321 825 q 459 829 414 827 l 421 791 q 369 782 398 787 q 304 775 339 778 q 292 612 298 698 q 282 425 287 526 q 396 504 333 445 q 566 690 460 562 q 595 726 576 703 q 757 854 699 854 q 793 850 772 854 q 842 836 815 845 l 811 703 q 761 712 783 709 q 722 715 739 715 q 496 543 643 715 q 444 484 463 505 l 590 269 l 599 257 q 839 52 741 52 q 864 53 848 52 q 901 58 880 55 l 911 17 q 800 -4 859 6 q 672 -22 741 -14 q 667 -23 669 -23 q 659 -24 665 -24 q 511 137 616 -24 q 476 191 489 172 l 339 397 q 304 381 319 387 q 277 371 290 375 z "},"L":{"ha":772,"x_min":-22,"x_max":739,"o":"m 271 311 q 264 224 269 289 q 254 53 260 160 q 267 52 258 53 q 355 50 328 50 q 481 62 436 50 q 555 102 526 74 q 682 319 607 151 q 703 366 696 349 l 739 342 q 708 171 722 258 q 679 -8 693 84 q 610 -2 646 -4 q 530 0 574 0 l 435 0 l 264 0 l -22 0 l 32 50 q 71 51 52 50 q 114 56 90 52 q 130 240 123 158 q 142 400 136 323 l 147 488 q 158 656 155 589 q 161 775 161 724 q 91 782 125 778 q 22 791 56 787 l 64 829 q 169 826 117 827 q 271 825 221 825 q 368 826 321 825 q 459 829 415 827 l 427 791 q 367 781 397 785 q 304 775 336 777 q 283 484 294 646 q 281 445 281 456 l 271 311 z "},"M":{"ha":1137,"x_min":-37,"x_max":1162,"o":"m -37 0 l 3 35 q 41 41 20 39 q 86 45 61 43 q 119 288 103 145 q 126 349 124 331 l 149 533 q 158 623 155 582 q 161 684 161 663 q 135 752 161 732 q 35 777 109 772 l -22 779 l 43 829 q 72 825 56 826 q 118 823 87 823 q 199 825 161 823 q 273 829 238 827 l 416 490 q 463 380 417 486 q 546 183 509 275 q 642 359 589 263 q 777 596 696 454 l 821 672 q 861 741 841 706 q 905 822 880 777 q 951 825 922 823 q 1063 829 1027 829 q 1097 829 1075 829 q 1129 828 1119 828 q 1149 828 1143 828 q 1161 829 1156 829 l 1132 789 l 1083 783 q 1035 769 1048 779 q 1015 734 1021 758 q 1005 655 1010 712 q 996 515 1000 599 l 985 267 q 982 216 984 250 q 981 165 981 182 q 989 97 981 119 q 1018 64 998 74 q 1070 49 1038 54 q 1162 45 1101 45 l 1143 17 q 1019 -1 1084 9 q 885 -24 954 -11 l 850 -9 q 842 7 844 -2 q 839 29 839 16 q 840 43 839 33 q 840 58 840 52 l 872 569 q 880 654 875 617 q 893 724 885 692 l 750 465 q 640 248 688 354 q 561 41 593 142 q 525 13 545 24 q 485 0 506 3 l 264 511 l 256 528 q 204 659 219 618 l 183 435 q 171 257 175 345 q 167 83 167 169 l 167 46 q 237 40 194 44 q 294 35 279 36 l 272 5 q 259 1 271 3 q 203 0 248 0 l 90 0 l -37 0 z "},"N":{"ha":947,"x_min":-7,"x_max":977,"o":"m 109 58 q 134 355 121 201 q 138 400 137 392 l 159 714 q 143 740 153 727 q 119 765 133 753 q 63 780 91 775 q 7 787 35 785 l 46 829 l 163 829 l 262 829 q 299 750 273 795 q 368 648 326 705 l 625 300 q 639 281 627 296 q 746 132 694 206 l 760 602 q 761 644 760 624 q 761 685 761 663 q 759 762 761 708 q 758 773 758 770 q 734 776 750 774 q 616 787 659 784 l 653 829 l 656 829 q 817 827 764 827 q 880 827 846 827 q 977 829 914 827 l 932 787 q 891 777 912 780 q 844 774 869 774 q 837 696 842 751 q 833 653 835 668 l 818 457 q 804 246 811 363 q 790 -5 797 129 l 673 -18 q 635 57 664 11 q 555 172 607 102 l 294 519 l 286 531 q 205 650 229 605 q 199 476 204 569 q 195 372 195 382 l 192 244 q 190 186 191 222 q 189 140 189 151 q 191 67 189 119 q 192 58 191 61 q 269 44 233 49 q 339 40 304 40 l 307 0 l 254 0 l 149 0 l 45 0 l -7 0 l 22 40 q 38 44 24 41 q 109 58 52 47 z "},"O":{"ha":990,"x_min":49,"x_max":942,"o":"m 49 368 q 183 722 49 591 q 546 852 317 852 q 838 750 734 852 q 942 464 942 648 q 809 107 942 237 q 446 -24 676 -24 q 153 79 258 -24 q 49 368 49 182 m 503 808 q 285 699 365 808 q 205 399 205 590 q 282 122 205 221 q 497 24 359 24 q 708 133 632 24 q 785 437 785 243 q 710 710 785 612 q 503 808 635 808 z "},"P":{"ha":772,"x_min":-25,"x_max":760,"o":"m -25 0 l 17 41 q 76 52 56 49 q 113 57 96 55 q 132 288 122 140 q 138 356 136 333 l 150 530 q 159 667 157 620 q 161 753 161 713 l 161 774 q 62 783 125 776 q 34 786 42 785 l 85 829 l 457 829 q 583 825 544 829 q 646 810 622 821 q 732 745 705 786 q 760 637 760 703 q 669 425 760 502 q 418 347 578 347 q 374 349 395 347 q 334 353 353 350 l 317 379 l 329 379 q 537 441 463 379 q 611 614 611 504 q 561 741 611 696 q 416 786 510 786 q 367 784 394 786 q 306 777 339 781 q 296 678 300 731 q 285 521 292 625 l 277 406 q 269 252 273 342 q 261 57 264 162 l 272 56 q 443 41 389 43 l 395 0 l -25 0 z "},"Q":{"ha":990,"x_min":49,"x_max":1053,"o":"m 473 -22 q 457 -23 468 -22 q 440 -24 446 -24 q 153 80 256 -24 q 49 366 49 183 q 183 721 49 590 q 546 852 317 852 q 840 749 737 852 q 942 452 942 646 q 864 173 942 290 q 644 7 785 56 q 783 -140 707 -90 q 940 -191 859 -191 q 990 -184 963 -191 q 1053 -164 1018 -177 l 1048 -195 q 965 -232 1010 -220 q 871 -244 921 -244 q 671 -190 768 -244 q 473 -22 574 -136 m 475 25 q 534 56 505 39 q 590 93 562 73 l 616 50 q 741 189 698 94 q 785 421 785 284 q 711 709 785 608 q 503 810 638 810 q 285 700 365 810 q 205 396 205 589 q 276 131 205 228 q 475 25 347 35 z "},"R":{"ha":836,"x_min":-12,"x_max":900,"o":"m 274 429 q 291 428 281 429 q 318 428 300 428 q 505 482 438 428 q 571 632 571 536 q 519 749 571 711 q 363 787 467 787 q 323 787 337 787 q 297 785 310 786 q 274 440 288 667 l 274 429 m -12 0 l 33 43 q 73 52 54 49 q 115 57 93 56 q 134 304 125 174 q 136 334 136 326 l 144 452 q 156 624 151 542 q 162 775 160 705 q 79 783 108 780 q 35 789 51 786 l 75 832 l 310 829 q 392 831 336 829 q 478 832 448 832 q 657 793 600 832 q 715 675 715 755 q 698 592 715 632 q 646 517 680 552 q 568 467 607 490 q 492 422 530 443 l 633 229 q 766 79 713 121 q 873 37 819 37 q 885 38 878 37 q 900 40 891 39 l 865 1 q 778 -9 823 -3 q 684 -24 732 -16 l 682 -24 q 574 79 645 -24 q 551 113 559 101 l 361 382 q 333 385 347 384 q 304 386 319 386 q 285 386 292 386 q 274 385 278 385 q 263 236 267 315 q 254 54 258 157 q 314 49 269 53 q 389 43 359 45 l 350 0 l -12 0 z "},"S":{"ha":692,"x_min":-1,"x_max":607,"o":"m -1 93 q 36 165 16 131 q 81 231 56 199 q 173 91 113 140 q 314 41 234 41 q 434 83 384 41 q 484 184 484 125 q 454 265 484 229 q 370 328 425 302 q 339 342 359 333 q 175 433 205 405 q 124 502 141 465 q 107 582 107 539 q 199 774 107 695 q 424 852 290 852 q 543 819 495 852 q 607 726 591 786 l 521 625 l 513 629 q 451 754 494 711 q 347 798 408 798 q 251 758 290 798 q 212 661 212 718 q 242 575 212 611 q 339 510 272 539 l 363 499 q 604 279 604 391 q 576 170 604 224 q 497 71 549 115 q 379 0 443 24 q 243 -24 315 -24 q 105 5 166 -24 q -1 93 45 35 z "},"T":{"ha":842,"x_min":28,"x_max":839,"o":"m 187 43 q 242 48 212 46 q 329 54 272 51 q 349 338 340 177 q 351 370 351 359 l 358 490 q 360 518 359 498 q 373 783 370 669 l 260 783 q 202 773 219 783 q 162 722 184 764 q 135 655 159 715 q 98 564 113 600 l 28 553 q 48 694 36 623 q 78 839 60 764 q 145 832 110 834 q 228 829 181 829 l 289 829 l 526 829 q 691 832 620 829 q 826 839 762 834 q 836 725 833 781 q 839 615 839 668 l 839 586 l 779 553 q 756 669 770 621 q 724 749 742 718 q 687 775 712 768 q 612 783 663 783 l 517 783 q 498 543 506 681 q 494 487 496 503 l 485 361 q 475 201 479 278 q 472 54 472 123 q 485 53 477 54 q 628 43 583 43 l 642 43 l 602 0 q 516 2 562 1 q 375 3 470 3 q 230 2 279 3 q 138 0 180 1 l 187 43 z "},"U":{"ha":1003,"x_min":2,"x_max":1043,"o":"m 700 100 q 494 38 621 78 q 265 -18 315 -18 q 153 22 193 -18 q 114 138 114 63 q 122 267 114 170 q 127 336 126 312 l 138 446 q 144 522 140 473 q 161 774 159 708 q 77 780 117 777 q 2 789 37 784 l 43 829 l 218 829 l 326 829 l 379 829 q 350 801 366 811 q 318 789 334 791 q 300 662 309 727 q 283 525 292 597 l 277 456 q 267 350 271 401 q 264 260 264 300 q 301 122 264 170 q 408 74 338 74 q 506 89 446 74 q 704 151 566 104 q 724 412 713 274 q 726 450 726 440 l 733 561 q 737 621 734 581 q 745 775 745 721 q 625 787 704 780 l 611 789 l 664 829 l 1022 829 l 989 789 q 941 780 965 783 q 892 777 916 777 q 880 662 886 718 q 871 551 875 606 l 863 441 q 853 294 857 365 q 850 168 850 222 q 856 102 850 127 q 873 66 862 76 q 981 50 888 54 q 1043 47 1020 49 l 1018 5 q 922 -3 985 3 q 739 -18 791 -16 q 705 -5 715 -18 q 696 40 696 8 q 697 67 696 52 q 700 100 698 81 z "},"V":{"ha":785,"x_min":-61,"x_max":796,"o":"m 254 -18 q 158 449 204 255 q 68 764 112 643 q -1 771 32 765 q -61 786 -33 777 l -18 814 q 68 825 24 821 q 158 829 112 829 l 311 829 l 273 786 l 224 777 q 261 612 235 724 q 358 117 333 301 q 588 440 532 335 q 643 633 643 546 q 628 724 643 683 q 583 800 613 766 q 651 831 617 820 q 715 846 684 843 q 776 772 755 812 q 796 686 796 732 q 661 429 796 595 l 647 411 q 568 313 620 377 q 347 7 391 93 l 254 -18 z "},"W":{"ha":1321,"x_min":-41,"x_max":1331,"o":"m 244 -20 q 149 493 190 278 q 94 764 107 707 q 22 775 56 769 q -41 787 -12 781 l -7 815 q 79 826 33 823 q 191 829 126 829 l 334 829 l 290 787 l 236 772 l 257 652 q 259 640 258 648 q 346 131 301 415 q 443 307 379 193 q 690 815 646 675 l 736 829 l 781 829 q 860 344 802 661 q 899 126 886 198 q 1120 455 1072 359 q 1168 625 1168 551 q 1151 711 1168 670 q 1097 798 1134 753 q 1161 830 1127 817 q 1234 851 1196 844 q 1306 774 1281 818 q 1331 682 1331 731 q 1202 444 1331 602 l 1186 425 l 1155 387 q 878 5 937 117 l 782 -20 q 714 401 774 72 q 671 642 686 554 q 532 382 620 545 q 355 9 372 91 l 244 -20 z "},"X":{"ha":842,"x_min":-62,"x_max":880,"o":"m -62 7 l -7 147 q 51 134 26 138 q 94 129 77 130 q 201 179 149 129 q 367 415 254 230 l 309 558 l 302 574 q 204 757 237 733 q 157 775 187 769 q 75 781 127 781 l 39 781 l 71 817 q 182 836 125 827 q 313 851 239 844 q 378 751 349 836 q 395 707 389 722 l 453 557 l 519 659 q 647 819 604 787 q 751 851 691 851 q 804 846 777 851 q 859 829 831 840 l 802 708 q 736 719 764 715 q 686 722 708 722 q 591 673 638 722 q 476 504 543 625 l 532 374 q 612 202 576 269 q 676 98 647 135 q 743 59 699 71 q 880 45 788 47 l 856 10 q 727 -3 788 3 q 607 -17 667 -9 l 606 -17 q 486 131 547 -17 q 471 168 476 155 l 389 366 l 306 233 q 230 110 269 174 q 188 42 191 46 q 142 0 170 15 q 82 -16 114 -16 q 21 -10 58 -16 q -62 7 -16 -4 z "},"Y":{"ha":823,"x_min":-46,"x_max":909,"o":"m 96 0 l 142 43 q 232 56 202 52 q 288 62 262 60 q 313 280 304 187 q 321 437 321 374 q 265 670 321 589 q 107 751 210 751 q 52 742 83 751 q -43 705 20 733 l -46 736 q 104 823 -2 763 l 147 847 q 176 849 157 847 q 203 851 194 851 q 385 765 323 851 q 447 513 447 679 q 445 450 447 492 q 444 443 445 446 q 628 747 536 643 q 804 851 720 851 q 857 844 831 851 q 909 822 883 837 l 859 700 q 807 719 831 713 q 761 725 783 725 q 654 688 705 725 q 558 576 604 651 q 464 352 494 471 q 435 77 435 233 l 435 64 q 519 53 463 61 q 602 43 575 45 l 570 0 q 475 2 526 1 q 326 3 425 3 q 183 2 230 3 q 96 0 136 1 z "},"Z":{"ha":909,"x_min":-39,"x_max":821,"o":"m -36 -32 l -39 12 l 20 100 q 203 300 73 180 q 254 347 237 331 l 363 452 q 489 573 421 507 q 635 715 557 639 q 577 710 595 711 q 547 708 559 708 q 429 716 511 708 q 300 724 347 724 q 190 686 227 724 q 110 511 153 648 l 83 530 l 142 821 q 184 844 167 838 q 215 851 201 851 q 416 836 272 851 q 643 821 559 821 q 708 827 671 821 q 789 844 745 833 l 789 819 q 576 591 760 764 q 517 536 537 555 l 433 460 q 386 414 425 452 q 110 147 241 273 q 160 157 137 153 q 203 160 184 160 q 383 140 262 160 q 562 119 504 119 q 674 180 619 119 q 794 379 728 241 l 821 353 l 708 14 q 669 -7 691 -1 q 611 -14 646 -14 q 347 13 514 -14 q 114 40 180 40 q 36 22 73 40 q -36 -32 -1 5 z "},"[":{"ha":476,"x_min":107,"x_max":475,"o":"m 414 -252 l 392 -281 q 331 -287 363 -286 q 260 -289 299 -289 q 197 -288 226 -289 q 143 -283 168 -286 q 123 -269 132 -277 q 107 -249 115 -260 q 110 23 107 -98 q 119 233 113 143 l 132 403 q 135 449 133 418 q 174 864 152 703 q 188 881 179 873 q 208 899 196 890 q 277 908 240 905 q 375 911 314 911 q 436 911 415 911 q 475 909 456 911 l 452 877 q 400 871 433 874 q 298 847 313 863 q 274 759 284 831 q 249 479 263 686 l 237 317 q 219 15 224 119 q 215 -178 215 -89 q 224 -217 215 -208 q 264 -232 233 -227 q 322 -239 272 -233 q 414 -252 372 -245 z "},"\\":{"ha":387,"x_min":53,"x_max":367,"o":"m 264 267 l 279 208 q 367 -129 336 -28 l 290 -129 q 259 14 275 -60 q 224 164 242 87 l 113 612 q 78 751 92 696 q 53 851 64 806 l 129 851 q 178 626 155 730 q 220 444 201 522 l 264 267 z "},"]":{"ha":476,"x_min":-5,"x_max":364,"o":"m 56 875 l 79 905 q 151 909 114 908 q 228 911 187 911 q 288 910 269 911 q 325 908 308 910 q 349 891 339 902 q 364 862 359 880 q 359 598 363 718 q 350 390 356 478 l 339 221 l 338 203 q 296 -240 319 -66 q 277 -263 286 -253 q 259 -279 267 -273 q 187 -287 225 -284 q 104 -289 149 -289 q 37 -288 60 -289 q -5 -286 14 -288 l 20 -253 q 69 -248 37 -251 q 171 -224 157 -239 q 196 -135 185 -208 q 221 144 206 -62 l 233 309 q 251 585 245 468 q 257 757 257 702 q 251 822 257 803 q 232 847 245 842 q 150 863 211 856 q 56 875 88 869 z "},"^":{"ha":1389,"x_min":279,"x_max":1107,"o":"m 628 991 l 760 991 l 1107 608 l 1040 608 l 693 893 l 345 608 l 279 608 l 628 991 z "},"_":{"ha":694,"x_min":0,"x_max":694,"o":"m 0 -231 l 694 -231 l 694 -328 l 0 -328 l 0 -231 z "},"`":{"ha":694,"x_min":221,"x_max":479,"o":"m 443 663 q 320 764 375 715 q 221 861 265 812 l 313 893 q 392 787 351 839 q 479 682 433 734 l 443 663 z "},"a":{"ha":627,"x_min":31,"x_max":690,"o":"m 390 515 l 376 517 q 265 532 288 532 q 186 474 210 532 q 163 277 163 416 q 186 164 163 208 q 244 121 209 121 q 294 137 264 121 q 370 191 323 153 q 378 373 374 296 q 390 515 383 450 m 374 130 q 280 61 338 105 q 150 -16 179 -16 q 67 51 104 -16 q 31 212 31 118 q 45 374 31 305 q 82 464 59 442 q 233 579 161 541 q 367 618 304 618 q 464 610 412 618 q 572 585 515 602 l 521 513 q 506 370 511 439 q 501 236 501 300 q 512 146 501 174 q 547 118 524 118 q 567 123 554 118 q 606 143 579 129 q 642 163 622 152 q 689 192 661 175 l 690 150 q 569 63 634 104 q 429 -16 505 22 l 403 -11 q 382 56 389 20 q 374 130 374 92 z "},"b":{"ha":611,"x_min":46,"x_max":562,"o":"m 182 125 q 263 82 222 97 q 342 68 303 68 q 405 149 377 68 q 433 346 433 230 q 403 463 433 424 q 313 503 373 503 q 254 490 282 503 q 200 452 226 477 q 186 281 191 363 q 182 125 182 199 m 205 513 l 299 568 l 304 572 q 424 615 377 615 q 526 563 489 615 q 562 416 562 510 q 541 252 562 331 q 479 106 520 173 q 403 49 443 78 q 318 -11 363 20 q 287 -19 298 -17 q 267 -21 276 -21 q 187 -9 229 -21 q 100 26 144 3 l 46 -12 q 58 239 50 109 q 60 257 60 252 l 71 462 q 75 522 72 482 q 129 842 90 799 q 226 922 163 880 q 363 996 290 964 q 378 997 370 996 q 400 997 385 997 q 440 995 420 997 q 481 989 460 993 l 424 901 q 351 909 374 907 q 311 911 328 911 q 250 865 269 911 q 215 631 231 819 l 205 513 z "},"c":{"ha":538,"x_min":32,"x_max":557,"o":"m 557 123 q 378 16 454 50 q 244 -18 302 -18 q 87 51 142 -18 q 32 248 32 120 q 52 413 32 344 q 107 511 71 482 q 240 592 168 561 q 363 624 313 624 q 444 596 412 624 q 476 526 476 569 q 475 519 476 524 q 475 513 475 514 q 427 478 454 496 q 361 441 399 460 q 333 528 355 498 q 278 558 312 558 q 192 492 222 558 q 163 300 163 426 q 206 141 163 195 q 334 86 250 86 q 435 103 382 86 q 557 160 488 121 l 557 123 z "},"d":{"ha":616,"x_min":26,"x_max":766,"o":"m 370 178 q 376 348 371 236 q 383 513 382 460 q 325 533 349 526 q 282 539 300 539 q 230 526 249 539 q 197 482 210 513 q 171 380 181 444 q 160 253 160 317 q 182 151 160 193 q 235 110 205 110 q 287 125 256 110 q 370 178 317 140 m 375 127 q 246 41 304 77 q 146 -16 187 4 q 136 -16 142 -16 q 127 -17 130 -17 q 117 -16 123 -17 q 104 -14 111 -16 q 46 80 65 29 q 26 191 26 132 q 49 382 26 308 q 121 497 72 456 q 249 583 188 554 q 366 611 311 611 q 381 611 376 611 q 390 610 387 610 l 399 711 q 400 733 399 720 q 453 864 407 819 q 537 931 486 897 q 648 994 588 965 q 710 990 681 994 q 766 977 739 985 l 713 896 q 643 907 670 904 q 599 911 616 911 q 527 701 540 911 q 525 671 526 681 l 519 581 q 509 422 516 524 q 501 290 501 321 q 511 157 501 198 q 545 117 522 117 q 605 138 562 117 q 700 195 647 159 l 700 150 q 569 53 633 94 q 444 -16 505 12 q 422 -13 432 -16 q 403 -4 412 -10 q 385 57 392 25 q 375 127 378 90 z "},"e":{"ha":534,"x_min":29,"x_max":554,"o":"m 158 294 l 240 340 q 336 411 310 380 q 363 481 363 442 q 345 537 363 517 q 296 558 327 558 q 198 486 237 558 q 158 300 158 414 l 158 294 m 554 154 l 553 109 q 358 9 433 39 q 228 -20 283 -20 q 81 48 134 -20 q 29 239 29 116 q 48 393 29 327 q 102 496 66 460 q 148 534 121 515 q 210 570 174 552 q 305 610 262 597 q 382 624 348 624 q 466 595 434 624 q 497 519 497 566 q 477 448 497 477 q 393 380 457 419 l 302 328 l 296 324 q 163 244 220 281 q 214 127 170 170 q 329 85 259 85 q 413 99 365 85 q 554 154 460 113 z "},"f":{"ha":382,"x_min":-227,"x_max":564,"o":"m -171 -309 q -101 -319 -131 -315 q -50 -322 -71 -322 q 10 -312 -13 -322 q 45 -282 33 -302 q 87 0 74 -227 q 90 50 90 33 l 100 223 q 103 271 100 236 q 115 504 111 402 l -29 510 l 25 557 l 122 558 l 126 639 q 144 761 131 725 q 187 831 158 798 q 340 957 260 911 q 485 1003 419 1003 q 524 1000 504 1003 q 564 991 543 997 l 519 900 q 441 912 471 908 q 393 916 411 916 q 295 869 323 916 q 257 657 267 823 l 252 555 l 464 555 q 434 526 449 537 q 403 509 419 514 l 248 504 q 229 239 237 379 q 227 208 227 216 l 218 89 q 217 69 218 83 q 147 -232 201 -157 q 9 -372 82 -323 q -134 -421 -63 -421 q -171 -417 -150 -420 q -227 -407 -193 -414 l -171 -309 z "},"g":{"ha":612,"x_min":-41,"x_max":606,"o":"m 412 504 q 339 531 372 522 q 277 539 306 539 q 229 525 244 539 q 201 468 213 510 q 177 358 185 412 q 168 257 168 304 q 187 153 168 194 q 232 113 205 113 q 268 122 244 113 q 322 149 291 131 l 389 186 q 408 433 395 260 q 412 504 411 480 m 21 -307 q 127 -322 83 -317 q 199 -328 172 -328 q 272 -317 244 -328 q 315 -283 300 -307 q 353 -177 338 -247 q 375 20 367 -106 l 383 129 l 301 78 q 224 31 264 54 q 138 -17 184 8 l 129 -17 q 112 -15 120 -17 q 96 -8 103 -12 q 43 81 60 30 q 26 197 26 132 q 58 401 26 305 q 123 519 89 498 q 271 597 204 570 q 375 625 337 625 q 479 614 420 625 q 606 581 538 602 l 545 511 q 536 450 540 484 q 528 350 533 416 l 517 176 q 504 1 510 78 q 496 -86 498 -75 q 494 -100 496 -90 q 446 -232 488 -180 q 334 -338 403 -285 q 191 -429 266 -391 q 171 -430 182 -430 q 139 -431 160 -431 q 48 -426 93 -431 q -41 -410 3 -420 l 21 -307 z "},"h":{"ha":660,"x_min":47,"x_max":726,"o":"m 47 -20 q 57 184 52 87 q 66 362 62 281 l 77 514 q 82 612 79 549 q 132 859 94 827 q 231 926 170 890 q 362 996 291 962 q 387 998 378 998 q 401 999 395 999 q 445 996 422 999 q 490 986 467 992 l 429 899 q 355 912 375 909 q 323 916 336 916 q 248 872 271 916 q 216 703 225 829 l 212 619 q 211 602 212 615 q 204 489 205 541 l 298 529 l 326 541 q 534 615 475 606 q 546 608 541 613 q 553 596 551 604 l 553 567 q 549 481 553 533 q 547 456 547 463 l 538 275 q 537 258 538 269 q 536 243 536 248 q 551 157 536 185 q 597 129 566 129 q 645 140 618 129 q 714 176 672 151 l 726 135 q 608 56 669 93 q 485 -14 547 18 q 478 -15 483 -14 q 471 -16 473 -16 q 450 -13 463 -15 q 447 -12 448 -13 q 413 43 424 12 q 401 114 401 73 q 402 140 401 119 q 404 172 404 161 l 412 329 q 415 396 414 372 q 416 431 416 421 q 408 483 416 468 q 379 497 400 497 q 311 480 356 497 q 199 429 266 463 l 192 304 q 189 254 191 291 q 175 29 182 127 l 47 -20 z "},"i":{"ha":366,"x_min":-21,"x_max":422,"o":"m 422 131 q 285 40 350 77 q 160 -18 220 3 q 138 -12 148 -16 q 122 -3 129 -8 q 97 65 104 37 q 89 117 89 94 q 95 190 89 141 q 103 260 101 239 l 111 374 q 114 415 113 395 q 115 454 115 435 q 105 497 115 486 q 68 509 96 509 q 40 506 58 509 q -21 494 22 503 l -20 526 q 120 586 59 562 q 227 621 181 609 q 241 617 235 620 q 254 608 248 614 l 254 574 q 253 506 254 539 q 249 439 252 473 l 240 321 q 236 257 237 286 q 235 212 235 229 q 248 136 235 159 q 293 114 262 114 q 340 126 313 114 q 422 172 368 138 l 422 131 m 210 717 q 156 773 180 743 q 113 836 132 802 q 166 879 138 856 q 227 930 193 901 q 272 874 250 901 q 319 821 295 847 q 277 772 303 798 q 210 717 251 747 z "},"j":{"ha":335,"x_min":-190,"x_max":282,"o":"m -132 -317 q -92 -321 -117 -318 q -33 -325 -48 -325 q 39 -312 12 -325 q 75 -275 66 -300 q 94 -179 86 -243 q 107 4 101 -115 l 113 132 q 119 252 115 176 q 126 432 126 391 q 114 490 126 473 q 74 507 102 507 q 42 504 63 507 q -25 493 22 501 l -25 529 q 129 590 68 568 q 229 622 191 612 q 244 612 238 617 q 256 601 251 607 q 259 544 258 570 q 260 494 260 517 q 259 447 260 463 q 258 417 259 430 l 252 274 q 246 137 249 224 q 195 -220 237 -153 q 106 -320 165 -268 q -31 -419 48 -372 q -69 -424 -50 -422 q -111 -425 -89 -425 q -155 -424 -136 -425 q -190 -418 -174 -422 l -132 -317 m 174 721 q 123 769 146 741 q 82 833 100 797 q 133 877 107 852 q 186 930 159 901 q 225 887 201 915 q 282 818 250 859 q 233 767 260 791 q 174 721 205 743 z "},"k":{"ha":614,"x_min":41,"x_max":682,"o":"m 187 313 q 348 384 298 349 q 397 460 397 419 q 378 509 397 490 q 328 528 359 528 q 270 514 302 528 q 199 471 239 500 q 192 393 195 432 q 187 313 189 355 m 41 -20 q 59 276 49 121 q 62 325 62 316 l 75 527 l 76 543 q 131 844 93 800 q 228 932 170 890 q 348 999 286 973 q 358 1000 353 1000 q 375 1000 363 1000 q 431 996 401 1000 q 493 982 460 991 l 435 904 q 361 916 389 912 q 318 920 334 920 q 251 883 271 920 q 221 714 232 846 l 205 526 l 282 572 q 361 614 332 604 q 421 624 391 624 q 497 596 469 624 q 525 521 525 568 q 518 476 525 498 q 497 432 511 454 q 434 388 468 410 q 361 345 400 366 l 412 275 q 509 155 476 186 q 568 123 543 123 q 608 135 582 123 q 678 170 633 146 q 681 158 680 165 q 682 144 682 151 q 681 133 682 138 q 677 122 680 127 q 580 48 615 74 q 529 12 545 22 l 494 -8 q 484 -13 489 -12 q 471 -14 479 -14 q 389 75 448 -14 q 353 129 367 109 l 245 283 q 233 279 241 282 q 184 264 201 269 q 175 145 180 207 q 168 18 171 83 q 116 -2 146 7 q 41 -20 85 -11 z "},"l":{"ha":374,"x_min":50,"x_max":450,"o":"m 436 154 q 314 66 380 109 q 171 -17 248 23 q 143 -15 156 -17 q 121 -11 131 -14 q 69 92 87 39 q 50 183 50 144 q 52 241 50 205 q 58 325 54 276 l 78 551 q 84 627 80 577 q 129 871 101 842 q 212 937 161 904 q 325 997 262 969 q 388 992 357 996 q 450 979 418 987 l 392 901 q 329 914 358 909 q 281 918 300 918 q 224 774 235 918 q 222 753 223 761 l 210 585 q 195 383 199 451 q 191 289 191 315 q 216 165 191 215 q 275 115 241 115 q 338 136 298 115 q 433 196 378 156 l 436 154 z "},"m":{"ha":1031,"x_min":-20,"x_max":1095,"o":"m 89 -14 q 92 79 90 28 q 97 189 94 130 l 103 302 q 106 349 103 307 q 109 422 109 390 q 100 484 109 471 q 62 497 91 497 q 24 494 45 497 q -20 484 3 490 l -17 524 q 146 598 102 581 q 215 618 190 616 q 231 615 224 618 q 243 607 237 612 q 244 587 243 598 q 244 553 244 576 q 244 507 244 523 q 241 478 243 492 l 310 510 q 392 550 339 524 q 555 618 511 609 q 570 610 564 615 q 581 599 576 606 q 583 564 582 579 q 583 534 583 549 q 583 507 583 526 q 582 476 582 487 l 681 524 q 733 549 699 532 q 907 618 865 614 q 916 611 911 616 q 929 595 920 607 l 929 581 q 922 465 929 544 q 921 446 922 452 l 911 326 q 907 266 909 294 q 905 222 905 237 q 917 150 905 174 q 950 126 928 126 q 1059 169 978 126 q 1094 187 1082 181 l 1095 143 q 955 48 1019 87 q 836 -14 890 9 q 813 -9 824 -13 q 794 0 803 -6 q 772 67 779 39 q 765 118 765 95 q 770 185 765 137 q 777 262 774 234 l 783 355 q 785 382 784 367 q 786 401 786 398 q 777 478 786 460 q 746 497 768 497 q 595 427 709 497 l 578 415 l 567 277 q 564 222 566 260 q 549 21 555 100 q 489 -2 522 7 q 421 -14 457 -11 q 431 135 425 58 q 436 216 436 211 l 443 342 q 444 363 444 349 q 446 408 446 397 q 438 475 446 454 q 416 497 431 497 q 269 440 397 497 l 237 427 l 231 311 q 225 210 231 309 q 214 18 220 111 q 154 -5 185 3 q 89 -14 123 -13 z "},"n":{"ha":692,"x_min":-24,"x_max":760,"o":"m 72 -14 q 89 152 83 87 q 98 271 95 217 l 106 370 q 108 409 107 390 q 109 443 109 427 q 99 495 109 481 q 64 510 89 510 q 32 506 54 510 q -24 493 9 501 l -24 528 q 92 579 32 555 q 216 623 151 604 q 237 612 221 623 q 241 610 241 610 q 241 564 241 594 q 238 473 239 495 l 328 521 q 488 601 438 581 q 572 624 537 621 q 584 619 579 623 q 591 609 589 615 q 584 518 587 553 q 581 462 581 484 l 571 281 q 570 264 571 275 q 570 249 570 254 q 586 162 570 189 q 637 135 602 135 q 682 146 656 135 q 747 182 707 157 l 760 139 q 639 58 699 95 q 518 -11 578 20 l 510 -11 q 500 -11 505 -11 q 482 -8 494 -10 q 446 47 458 16 q 435 115 435 78 q 437 163 435 127 q 437 176 437 172 l 444 286 q 451 391 448 352 q 453 439 453 429 q 443 488 453 473 q 412 504 433 504 q 372 493 397 504 q 302 457 347 483 l 233 416 q 220 222 229 353 q 207 28 211 91 l 72 -14 z "},"o":{"ha":611,"x_min":29,"x_max":564,"o":"m 164 326 q 200 126 164 198 q 298 54 235 54 q 395 112 360 54 q 429 275 429 170 q 396 481 429 410 q 298 553 362 553 q 199 494 234 553 q 164 326 164 435 m 221 -20 q 78 50 126 -20 q 29 256 29 120 q 49 405 29 342 q 109 500 69 467 q 248 592 177 559 q 374 625 318 625 q 515 556 467 625 q 564 353 564 486 q 544 199 564 261 q 485 106 524 138 q 343 13 411 45 q 221 -20 275 -20 z "},"p":{"ha":646,"x_min":-71,"x_max":602,"o":"m 332 586 q 417 609 390 604 q 465 614 444 614 q 568 563 534 614 q 602 407 602 511 q 580 240 602 318 q 517 104 558 163 q 430 44 475 71 q 334 -4 385 17 q 318 -5 326 -5 q 294 -5 310 -5 q 249 -3 270 -5 q 208 4 228 -1 q 194 -185 200 -95 q 183 -358 187 -275 q 279 -369 245 -366 q 334 -374 313 -373 l 298 -412 q 197 -416 250 -415 q 83 -418 144 -418 q -12 -417 20 -418 q -71 -415 -43 -417 l -33 -374 q 39 -363 -15 -368 q 52 -363 47 -363 q 83 52 63 -256 l 86 87 l 111 465 l 3 432 l 7 472 l 115 521 l 119 555 q 129 617 124 594 q 139 653 134 640 q 214 709 168 680 q 334 774 260 738 l 370 764 q 276 676 300 718 q 249 562 251 634 l 332 586 m 216 127 q 298 92 258 104 q 376 79 338 79 q 443 144 422 79 q 464 354 464 210 q 435 481 464 443 q 342 519 407 519 q 299 515 323 519 q 244 503 275 511 q 230 324 237 418 q 216 127 222 230 z "},"q":{"ha":614,"x_min":28,"x_max":676,"o":"m 420 511 q 347 527 378 522 q 290 532 316 532 q 236 523 253 532 q 207 489 220 514 q 181 390 193 461 q 168 249 168 319 q 189 156 168 193 q 239 119 210 119 q 303 137 263 119 q 401 191 342 154 q 415 354 410 273 q 420 511 420 434 m 216 -415 l 261 -370 q 315 -361 290 -364 q 363 -357 340 -358 q 380 -155 372 -284 l 380 -142 l 386 -62 q 389 -30 387 -54 q 399 140 397 68 q 245 45 309 83 q 139 -12 182 8 l 134 -12 q 120 -11 126 -12 q 109 -5 114 -9 q 47 80 66 33 q 28 191 28 127 q 48 370 28 286 q 94 479 69 455 q 233 577 156 538 q 366 616 310 616 q 413 615 383 616 q 487 612 444 614 q 527 658 506 637 q 571 696 548 679 q 562 599 566 648 q 553 490 557 550 l 530 174 q 513 -124 519 5 q 503 -357 506 -254 q 591 -361 549 -358 q 676 -370 634 -364 q 642 -397 661 -385 q 600 -415 623 -408 l 446 -415 l 216 -415 z "},"r":{"ha":458,"x_min":-21,"x_max":511,"o":"m 210 20 q 144 -3 175 5 q 85 -16 113 -12 q 96 208 87 92 q 97 222 97 218 l 103 314 q 105 358 104 330 q 109 446 109 424 q 99 487 109 475 q 68 498 90 498 q 21 496 41 498 q -19 489 1 494 q -21 494 -20 492 q -21 501 -21 496 q -20 513 -21 507 q -17 524 -19 518 q 115 587 58 564 q 216 619 172 610 q 229 613 224 617 q 237 603 234 610 l 237 575 q 236 527 237 552 q 234 473 235 502 q 321 555 258 490 q 371 606 353 588 q 404 613 379 607 q 440 619 429 619 q 474 613 457 619 q 511 593 490 607 q 488 524 500 554 q 461 469 475 494 q 444 477 455 472 q 372 498 391 498 q 310 476 345 498 q 236 412 274 454 l 229 317 q 221 189 227 290 q 210 20 214 89 z "},"s":{"ha":514,"x_min":-17,"x_max":457,"o":"m 79 203 q 151 87 115 123 q 231 52 187 52 q 298 77 270 52 q 326 139 326 103 q 309 188 326 167 q 254 225 291 210 l 245 229 q 72 396 72 302 q 90 469 72 435 q 147 541 107 503 q 237 602 192 582 q 329 623 281 623 q 400 607 369 623 q 457 558 432 591 q 426 507 443 531 q 387 463 408 483 q 317 527 353 505 q 249 549 281 549 q 191 527 214 549 q 167 472 167 505 q 189 419 167 440 q 292 368 211 398 q 410 303 380 335 q 440 218 440 271 q 419 133 440 172 q 351 58 397 94 q 257 4 309 24 q 158 -16 206 -16 q 52 18 96 -16 q -17 117 7 52 l 79 203 z "},"t":{"ha":457,"x_min":-16,"x_max":457,"o":"m 457 113 q 327 31 389 64 q 208 -18 265 -1 q 185 -16 194 -17 q 170 -12 176 -14 q 112 83 133 31 q 92 182 92 134 q 98 279 92 197 q 102 320 100 305 l 114 503 q -7 509 50 506 q -16 510 -15 510 l 22 554 q 70 555 37 555 q 119 557 103 556 q 124 618 121 584 q 130 717 126 652 q 194 751 161 737 q 261 774 227 765 q 248 570 256 704 l 248 557 q 300 556 271 556 q 389 555 328 555 l 453 555 l 407 510 q 358 508 390 509 q 244 503 271 505 l 235 391 q 227 288 230 334 q 224 225 224 241 q 251 127 224 170 q 310 85 278 85 q 352 98 323 85 q 454 151 381 111 l 457 113 z "},"u":{"ha":692,"x_min":-25,"x_max":760,"o":"m 439 154 l 342 89 q 322 76 335 85 q 170 -14 229 14 q 153 -11 167 -14 q 132 -5 140 -8 q 99 75 111 37 q 87 143 87 113 q 91 202 87 161 q 96 259 95 242 l 100 350 l 100 353 q 101 383 100 359 q 102 422 102 406 q 93 481 102 469 q 56 493 83 493 q 28 491 45 493 q -25 481 12 488 l -25 513 q 113 576 51 550 q 218 616 174 603 q 232 608 227 613 q 241 597 238 604 q 237 517 239 547 q 233 476 235 487 l 227 385 q 221 299 223 339 q 220 233 220 258 q 237 157 220 186 q 281 127 254 127 q 346 150 302 127 q 440 210 390 172 q 448 349 444 284 q 456 465 452 414 l 464 578 q 532 602 500 592 q 596 616 564 611 q 586 512 591 566 q 578 396 582 458 l 572 325 q 572 317 572 322 q 570 271 570 284 q 585 163 570 201 q 629 125 600 125 q 667 137 642 125 q 760 189 693 149 l 760 149 q 646 62 707 102 q 513 -13 585 22 q 509 -13 512 -13 q 500 -14 506 -14 q 487 -12 493 -14 q 473 -8 480 -11 q 447 59 456 20 q 439 154 439 97 z "},"v":{"ha":602,"x_min":-53,"x_max":591,"o":"m 197 -16 q 175 109 187 45 q 147 244 162 174 l 132 317 l 132 318 q 29 494 93 494 q -4 492 16 494 q -53 486 -25 490 l -53 517 q 4 544 -33 526 q 167 616 133 606 l 171 616 q 188 612 180 616 q 201 600 195 608 q 225 497 215 545 q 243 415 236 450 l 258 343 q 261 329 259 339 q 302 106 286 208 l 370 204 q 439 333 416 275 q 461 443 461 391 q 450 510 461 478 q 414 576 438 543 q 469 609 437 594 q 542 639 500 625 q 579 587 567 616 q 591 521 591 557 q 564 419 591 476 q 453 248 536 362 l 410 187 q 347 97 373 138 q 300 18 320 56 q 249 -5 275 4 q 197 -16 223 -14 z "},"w":{"ha":993,"x_min":-43,"x_max":975,"o":"m 191 -20 q 173 89 182 35 q 153 197 163 143 l 136 286 l 134 296 q 41 489 96 489 q 7 487 29 489 q -43 479 -14 484 l -40 515 q 90 577 15 543 q 176 618 164 612 q 190 614 183 618 q 205 602 197 610 q 219 545 212 577 q 236 463 227 512 l 250 390 q 272 259 258 345 q 290 143 286 173 q 365 299 325 213 q 379 330 376 323 l 406 383 q 439 462 419 412 q 484 579 459 512 q 535 604 510 594 q 583 618 559 613 q 603 489 593 556 q 612 417 612 421 l 631 311 q 647 212 638 263 q 667 106 656 161 l 725 176 q 810 307 782 246 q 839 419 839 367 q 824 498 839 460 q 779 572 809 536 q 845 609 812 592 q 913 639 878 626 q 960 574 945 607 q 975 504 975 541 q 936 384 975 454 q 815 216 897 313 l 761 153 q 705 84 732 119 q 652 11 677 48 l 546 -18 q 533 102 539 50 q 518 203 526 155 l 504 292 q 487 383 502 309 q 477 426 481 411 l 397 260 q 353 162 380 223 q 289 14 326 100 q 240 -7 264 1 q 191 -20 216 -16 z "},"x":{"ha":585,"x_min":-28,"x_max":629,"o":"m -12 -5 q -1 96 -9 62 q 22 146 7 129 q 92 209 44 172 q 218 294 140 245 l 180 376 q 125 470 151 442 q 66 497 98 497 q 28 492 52 497 q -26 478 5 488 l -28 510 q 101 580 53 557 q 183 612 149 603 q 202 607 193 611 q 220 597 211 604 q 255 518 235 565 q 282 458 275 472 l 325 371 q 394 433 372 398 q 415 517 415 467 q 413 544 415 529 q 408 579 412 559 q 472 618 439 604 q 536 639 504 633 q 538 616 537 631 q 542 568 542 581 q 503 455 542 505 q 345 329 464 406 l 371 277 q 444 163 407 202 q 514 123 480 123 q 601 157 543 123 q 624 169 615 165 l 629 135 q 514 53 566 86 q 419 -3 463 19 l 410 -3 q 394 -2 401 -3 q 380 1 387 -1 q 302 121 346 29 q 288 153 293 142 l 239 256 q 144 156 174 218 q 114 0 114 95 q 119 -83 114 -26 l 119 -87 q 57 -54 90 -74 q -12 -5 25 -34 z "},"y":{"ha":614,"x_min":-182,"x_max":590,"o":"m -182 -415 l -131 -310 q -51 -320 -80 -317 q -3 -323 -22 -323 q 129 -269 72 -323 q 240 -87 185 -214 q 199 88 218 11 q 167 212 180 165 l 144 290 q 86 459 108 418 q 37 500 64 500 q 6 494 28 500 q -56 473 -16 488 l -54 510 q 79 584 31 559 q 159 621 127 608 q 174 616 168 620 q 188 606 181 613 q 241 420 210 553 l 241 419 l 261 339 q 291 215 269 309 q 329 57 313 121 l 382 147 q 444 281 422 216 q 465 397 465 347 q 452 476 465 437 q 412 554 439 514 q 464 593 433 574 q 536 631 495 612 q 576 561 563 597 q 590 486 590 524 q 481 235 590 418 q 424 136 444 172 l 271 -131 q 186 -275 222 -216 q 139 -347 151 -333 q 59 -417 96 -399 q -40 -435 21 -435 q -100 -430 -64 -435 q -182 -415 -136 -425 z "},"z":{"ha":533,"x_min":-31,"x_max":612,"o":"m -31 118 q 82 213 17 160 q 164 281 148 267 l 224 333 q 277 382 231 338 q 357 458 323 426 q 294 461 316 460 q 257 464 272 463 l 201 468 q 174 470 189 469 q 157 472 159 472 q 103 452 128 472 q 37 375 77 432 l 14 387 q 39 445 24 414 q 75 522 53 477 l 100 572 q 123 599 109 590 q 155 608 137 608 q 225 600 169 608 q 250 596 241 597 l 324 583 q 340 581 329 583 q 407 574 385 574 q 467 584 439 574 q 526 618 496 595 l 536 591 q 308 352 446 471 q 284 332 292 338 l 176 238 q 296 191 226 236 q 325 174 315 179 l 370 147 q 412 128 392 134 q 452 122 432 122 q 513 134 479 122 q 612 182 547 146 l 612 147 q 554 101 587 125 q 473 43 522 77 l 428 11 q 391 -11 406 -3 q 367 -18 375 -18 q 317 10 354 -18 q 271 45 290 33 l 216 79 q 145 122 170 111 q 98 132 121 132 q 46 122 79 132 q -31 90 14 111 l -31 118 z "},"{":{"ha":694,"x_min":121,"x_max":575,"o":"m 575 1028 l 575 992 q 449 955 483 991 q 415 812 415 919 l 415 717 q 375 508 415 563 q 228 431 335 452 q 375 354 336 409 q 415 144 415 298 l 415 49 q 449 -93 415 -58 q 575 -130 482 -128 l 575 -165 l 568 -165 q 364 -115 420 -165 q 309 69 309 -65 l 309 210 q 269 360 309 319 q 121 410 229 401 l 121 453 q 269 503 230 462 q 309 653 309 544 l 309 793 q 364 978 309 928 q 568 1028 420 1028 l 575 1028 z "},"|":{"ha":694,"x_min":297,"x_max":399,"o":"m 297 1061 l 399 1061 l 399 -328 l 297 -328 l 297 1061 z "},"}":{"ha":694,"x_min":119,"x_max":575,"o":"m 119 1028 l 126 1028 q 331 978 275 1028 q 387 793 387 928 l 387 653 q 427 503 387 544 q 575 453 466 462 l 575 410 q 427 360 466 401 q 387 210 387 319 l 387 69 q 331 -115 387 -65 q 126 -165 275 -165 l 119 -165 l 119 -130 q 246 -93 212 -128 q 279 49 279 -57 l 279 144 q 319 354 279 298 q 467 431 359 409 q 319 508 359 452 q 279 717 279 563 l 279 812 q 245 955 279 919 q 119 992 212 991 l 119 1028 z "},"~":{"ha":1157,"x_min":121,"x_max":1038,"o":"m 1038 522 l 1038 416 q 903 344 967 368 q 774 321 838 321 q 600 360 711 321 q 577 368 585 366 l 567 372 q 382 412 448 412 q 263 387 325 412 q 121 306 201 362 l 121 411 q 258 484 193 460 q 383 509 323 509 q 470 499 425 509 q 581 467 514 490 q 612 455 591 463 q 775 416 720 416 q 897 441 835 416 q 1038 522 959 467 z "},"Ä":{"ha":854,"x_min":-146,"x_max":939,"o":"m 537 364 q 461 639 517 427 l 444 701 l 272 368 q 333 362 302 364 q 396 359 364 359 q 452 360 416 359 q 537 364 487 361 m 542 842 q 593 645 570 727 q 635 501 616 562 l 732 191 q 798 72 760 103 q 911 40 836 40 q 924 41 915 40 q 939 41 934 41 l 921 8 q 837 -2 881 3 q 742 -9 793 -6 l 685 -14 q 560 285 644 -10 l 553 311 q 376 307 458 309 q 239 301 294 304 q 175 174 203 235 q 125 58 146 112 q 174 54 142 57 q 265 47 237 48 l 218 0 q 117 6 168 4 q 16 8 66 8 q -74 6 -37 8 q -146 0 -112 4 l -94 47 q -37 53 -71 50 q 7 59 -4 57 q 98 197 48 116 q 210 387 147 277 l 437 791 q 455 813 446 806 q 482 825 465 821 l 542 842 m 549 1011 q 591 1052 568 1034 q 642 1086 615 1071 q 683 1036 667 1055 q 714 1002 699 1017 q 668 967 699 989 q 623 932 637 944 q 584 969 602 949 q 549 1011 565 989 m 335 1006 q 379 1045 356 1028 q 427 1076 401 1063 q 498 998 451 1048 l 500 996 q 457 959 480 977 q 410 925 435 941 q 368 962 387 942 q 335 1006 349 982 z "},"Å":{"ha":854,"x_min":-146,"x_max":939,"o":"m 353 996 q 405 1108 353 1063 q 532 1153 457 1153 q 594 1125 572 1153 q 616 1047 616 1097 q 565 932 616 979 q 444 886 514 886 q 376 914 399 886 q 353 996 353 942 m 490 1100 q 439 1076 458 1100 q 419 1013 419 1053 q 434 957 419 976 q 478 937 450 937 q 530 961 512 937 q 549 1029 549 985 q 534 1082 549 1065 q 490 1100 519 1100 m 537 364 q 461 639 517 427 l 444 701 l 272 368 q 333 362 302 364 q 396 359 364 359 q 452 360 416 359 q 537 364 487 361 m 542 842 q 593 645 570 727 q 635 501 616 562 l 732 191 q 798 72 760 103 q 911 40 836 40 q 924 41 915 40 q 939 41 934 41 l 921 8 q 814 -4 853 0 q 742 -9 775 -7 l 685 -14 q 560 285 644 -10 l 553 311 q 376 307 458 309 q 239 301 294 304 q 175 174 203 235 q 125 58 146 112 q 174 54 142 57 q 265 47 237 48 l 218 0 q 117 6 168 4 q 16 8 66 8 q -74 6 -37 8 q -146 0 -112 4 l -94 47 q -37 53 -71 50 q 7 59 -4 57 q 98 197 48 116 q 210 387 147 277 l 437 791 q 455 813 446 806 q 482 825 465 821 l 542 842 z "},"Ç":{"ha":840,"x_min":54,"x_max":798,"o":"m 766 89 q 562 5 654 33 q 395 -22 471 -22 q 143 80 232 -22 q 54 368 54 182 q 177 725 54 598 q 522 852 300 852 q 713 813 650 852 q 798 682 776 774 q 746 617 774 650 q 686 550 718 584 l 673 555 l 673 559 q 623 747 673 681 q 482 814 573 814 q 279 706 357 814 q 201 421 201 599 q 277 149 201 247 q 489 52 353 52 q 620 71 544 52 q 783 127 695 91 l 766 89 m 495 20 l 389 -50 q 410 -85 403 -68 q 417 -114 417 -102 q 381 -169 417 -144 q 235 -232 345 -194 l 201 -211 l 270 -179 q 300 -158 291 -169 q 310 -132 310 -146 q 303 -107 310 -121 q 282 -75 296 -93 l 441 29 l 495 20 z "},"É":{"ha":829,"x_min":-39,"x_max":785,"o":"m 283 465 q 306 460 293 462 q 347 458 319 458 l 562 456 l 525 414 l 329 403 l 328 403 q 279 393 297 400 q 266 232 271 317 q 258 53 260 147 q 275 52 264 53 q 382 50 349 50 q 516 62 469 50 q 590 100 564 73 q 670 205 630 140 q 751 366 709 271 l 785 342 q 745 176 764 263 q 708 -8 726 89 q 643 -2 679 -4 q 551 0 606 0 l 292 0 l -39 0 l 12 45 q 260 65 176 58 l 114 53 q 126 197 121 123 q 142 400 132 271 l 147 488 q 158 660 155 591 q 161 779 161 729 q 94 786 124 782 q 35 795 63 789 l 77 829 l 260 829 q 520 835 412 829 q 696 851 629 840 q 727 815 714 835 q 747 772 741 795 l 654 671 q 618 731 637 707 q 583 764 600 755 q 535 777 567 772 q 452 781 504 781 l 380 781 l 304 781 q 292 610 297 690 q 283 465 286 531 m 337 903 l 509 1120 l 608 1090 q 476 974 553 1042 q 383 890 399 905 l 337 903 z "},"Ñ":{"ha":947,"x_min":-7,"x_max":977,"o":"m 109 58 q 134 355 121 201 q 138 400 137 392 l 159 714 q 143 740 153 727 q 119 765 133 753 q 63 780 91 775 q 7 787 35 785 l 46 829 l 163 829 l 262 829 q 299 750 273 795 q 368 648 326 705 l 625 300 q 639 281 627 296 q 746 132 694 206 l 760 602 q 761 644 760 624 q 761 685 761 663 q 759 762 761 708 q 758 773 758 770 q 734 776 750 774 q 616 787 659 784 l 653 829 l 656 829 q 817 827 764 827 q 880 827 846 827 q 977 829 914 827 l 932 787 q 891 777 912 780 q 844 774 869 774 q 837 696 842 751 q 833 653 835 668 l 818 457 q 804 246 811 363 q 790 -5 797 129 l 673 -18 q 635 57 664 11 q 555 172 607 102 l 294 519 l 286 531 q 205 650 229 605 q 199 476 204 569 q 195 372 195 382 l 192 244 q 190 186 191 222 q 189 140 189 151 q 191 67 189 119 q 192 58 191 61 q 269 44 233 49 q 339 40 304 40 l 307 0 l 254 0 l 149 0 l 45 0 l -7 0 l 22 40 q 38 44 24 41 q 109 58 52 47 m 321 961 l 378 1004 q 425 1033 404 1024 q 464 1042 446 1042 q 487 1039 474 1042 q 513 1032 499 1037 l 564 1017 q 585 1011 574 1013 q 606 1010 595 1010 q 632 1016 618 1010 q 665 1036 647 1023 l 709 1072 l 725 1046 l 658 975 q 620 948 642 958 q 574 939 599 939 q 553 941 565 939 q 528 947 541 943 l 475 964 q 438 976 447 973 q 425 978 429 978 q 401 973 414 978 q 373 958 388 968 l 340 935 l 321 961 z "},"Ö":{"ha":990,"x_min":49,"x_max":942,"o":"m 49 368 q 183 722 49 591 q 546 852 317 852 q 838 750 734 852 q 942 464 942 648 q 809 107 942 237 q 446 -24 676 -24 q 153 79 258 -24 q 49 368 49 182 m 503 808 q 285 699 365 808 q 205 399 205 590 q 282 122 205 221 q 497 24 359 24 q 708 133 632 24 q 785 437 785 243 q 710 710 785 612 q 503 808 635 808 m 590 1011 q 633 1052 609 1034 q 684 1086 656 1071 q 725 1036 709 1055 q 755 1002 741 1017 q 710 967 741 989 q 664 932 679 944 q 625 969 644 949 q 590 1011 606 989 m 376 1006 q 420 1045 397 1028 q 468 1076 443 1063 q 540 998 492 1048 l 541 996 q 499 959 522 977 q 452 925 476 941 q 409 962 428 942 q 376 1006 391 982 z "},"Ü":{"ha":1003,"x_min":2,"x_max":1043,"o":"m 700 100 q 494 38 621 78 q 265 -18 315 -18 q 153 22 193 -18 q 114 138 114 63 q 122 267 114 170 q 127 336 126 312 l 138 446 q 144 522 140 473 q 161 774 159 708 q 77 780 117 777 q 2 789 37 784 l 43 829 l 218 829 l 326 829 l 379 829 q 350 801 366 811 q 318 789 334 791 q 300 662 309 727 q 283 525 292 597 l 277 456 q 267 350 271 401 q 264 260 264 300 q 301 122 264 170 q 408 74 338 74 q 506 89 446 74 q 704 151 566 104 q 724 412 713 274 q 726 450 726 440 l 733 561 q 737 621 734 581 q 745 775 745 721 q 625 787 704 780 l 611 789 l 664 829 l 1022 829 l 989 789 q 941 780 965 783 q 892 777 916 777 q 880 662 886 718 q 871 551 875 606 l 863 441 q 853 294 857 365 q 850 168 850 222 q 856 102 850 127 q 873 66 862 76 q 981 50 888 54 q 1043 47 1020 49 l 1018 5 q 922 -3 985 3 q 739 -18 791 -16 q 705 -5 715 -18 q 696 40 696 8 q 697 67 696 52 q 700 100 698 81 m 597 1011 q 640 1052 616 1034 q 690 1086 663 1071 q 731 1036 715 1055 q 762 1002 747 1017 q 716 967 747 989 q 671 932 686 944 q 632 969 650 949 q 597 1011 613 989 m 383 1006 q 427 1045 404 1028 q 475 1076 450 1063 q 547 998 499 1048 l 548 996 q 506 959 528 977 q 458 925 483 941 q 416 962 435 942 q 383 1006 397 982 z "},"á":{"ha":627,"x_min":31,"x_max":690,"o":"m 390 515 l 376 517 q 265 532 288 532 q 186 474 210 532 q 163 277 163 416 q 186 164 163 208 q 244 121 209 121 q 294 137 264 121 q 370 191 323 153 q 378 373 374 296 q 390 515 383 450 m 374 130 q 280 61 338 105 q 150 -16 179 -16 q 67 51 104 -16 q 31 212 31 118 q 45 374 31 305 q 82 464 59 442 q 233 579 161 541 q 367 618 304 618 q 464 610 412 618 q 572 585 515 602 l 521 513 q 506 370 511 439 q 501 236 501 300 q 512 146 501 174 q 547 118 524 118 q 567 123 554 118 q 606 143 579 129 q 642 163 622 152 q 689 192 661 175 l 690 150 q 569 63 634 104 q 429 -16 505 22 l 403 -11 q 382 56 389 20 q 374 130 374 92 m 265 675 l 437 892 l 536 863 q 404 746 481 814 q 311 663 328 677 l 265 675 z "},"à":{"ha":627,"x_min":31,"x_max":690,"o":"m 390 515 l 376 517 q 265 532 288 532 q 186 474 210 532 q 163 277 163 416 q 186 164 163 208 q 244 121 209 121 q 294 137 264 121 q 370 191 323 153 q 378 373 374 296 q 390 515 383 450 m 374 130 q 280 61 338 105 q 150 -16 179 -16 q 67 51 104 -16 q 31 212 31 118 q 45 374 31 305 q 82 464 59 442 q 233 579 161 541 q 367 618 304 618 q 464 610 412 618 q 572 585 515 602 l 521 513 q 506 370 511 439 q 501 236 501 300 q 512 146 501 174 q 547 118 524 118 q 567 123 554 118 q 606 143 579 129 q 642 163 622 152 q 689 192 661 175 l 690 150 q 569 63 634 104 q 429 -16 505 22 l 403 -11 q 382 56 389 20 q 374 130 374 92 m 411 663 q 288 764 343 715 q 189 861 233 812 l 281 893 q 360 787 319 839 q 448 682 401 734 l 411 663 z "},"â":{"ha":627,"x_min":31,"x_max":690,"o":"m 390 515 l 376 517 q 265 532 288 532 q 186 474 210 532 q 163 277 163 416 q 186 164 163 208 q 244 121 209 121 q 294 137 264 121 q 370 191 323 153 q 378 373 374 296 q 390 515 383 450 m 374 130 q 280 61 338 105 q 150 -16 179 -16 q 67 51 104 -16 q 31 212 31 118 q 45 374 31 305 q 82 464 59 442 q 233 579 161 541 q 367 618 304 618 q 464 610 412 618 q 572 585 515 602 l 521 513 q 506 370 511 439 q 501 236 501 300 q 512 146 501 174 q 547 118 524 118 q 567 123 554 118 q 606 143 579 129 q 642 163 622 152 q 689 192 661 175 l 690 150 q 569 63 634 104 q 429 -16 505 22 l 403 -11 q 382 56 389 20 q 374 130 374 92 m 176 692 q 250 772 212 731 q 331 854 289 812 l 350 875 q 368 886 357 882 q 392 890 378 890 l 424 885 q 465 783 446 831 q 497 690 484 734 l 443 661 q 401 747 420 709 q 364 814 381 785 q 298 757 334 788 q 191 663 262 726 l 176 692 z "},"ä":{"ha":627,"x_min":31,"x_max":690,"o":"m 390 515 l 376 517 q 265 532 288 532 q 186 474 210 532 q 163 277 163 416 q 186 164 163 208 q 244 121 209 121 q 294 137 264 121 q 370 191 323 153 q 378 373 374 296 q 390 515 383 450 m 374 130 q 280 61 338 105 q 150 -16 179 -16 q 67 51 104 -16 q 31 212 31 118 q 45 374 31 305 q 82 464 59 442 q 233 579 161 541 q 367 618 304 618 q 464 610 412 618 q 572 585 515 602 l 521 513 q 506 370 511 439 q 501 236 501 300 q 512 146 501 174 q 547 118 524 118 q 567 123 554 118 q 606 143 579 129 q 642 163 622 152 q 689 192 661 175 l 690 150 q 569 63 634 104 q 429 -16 505 22 l 403 -11 q 382 56 389 20 q 374 130 374 92 m 385 783 q 427 824 404 806 q 478 859 451 843 q 519 808 503 827 q 550 774 535 789 q 504 739 535 762 q 458 704 473 716 q 419 742 438 722 q 385 783 401 762 m 171 778 q 215 818 192 800 q 262 848 237 835 q 334 770 287 821 l 336 768 q 293 731 316 749 q 246 697 271 713 q 204 734 222 714 q 171 778 185 754 z "},"ã":{"ha":627,"x_min":31,"x_max":690,"o":"m 390 515 l 376 517 q 265 532 288 532 q 186 474 210 532 q 163 277 163 416 q 186 164 163 208 q 244 121 209 121 q 294 137 264 121 q 370 191 323 153 q 378 373 374 296 q 390 515 383 450 m 374 130 q 280 61 338 105 q 150 -16 179 -16 q 67 51 104 -16 q 31 212 31 118 q 45 374 31 305 q 82 464 59 442 q 233 579 161 541 q 367 618 304 618 q 464 610 412 618 q 572 585 515 602 l 521 513 q 506 370 511 439 q 501 236 501 300 q 512 146 501 174 q 547 118 524 118 q 567 123 554 118 q 606 143 579 129 q 642 163 622 152 q 689 192 661 175 l 690 150 q 569 63 634 104 q 429 -16 505 22 l 403 -11 q 382 56 389 20 q 374 130 374 92 m 161 733 l 218 777 q 265 805 244 796 q 304 814 286 814 q 327 811 315 814 q 354 804 340 809 l 405 789 q 426 784 415 785 q 446 782 436 782 q 473 788 458 782 q 506 808 488 795 l 550 844 l 566 818 l 498 747 q 461 721 482 730 q 415 711 439 711 q 393 713 406 711 q 368 720 381 715 l 315 736 q 279 748 288 745 q 265 750 270 750 q 242 745 255 750 q 214 730 229 740 l 180 707 l 161 733 z "},"å":{"ha":627,"x_min":31,"x_max":690,"o":"m 374 130 q 280 61 338 105 q 150 -16 179 -16 q 67 51 104 -16 q 31 212 31 118 q 45 374 31 305 q 82 464 59 442 q 233 579 161 541 q 367 618 304 618 q 464 610 412 618 q 572 585 515 602 l 521 513 q 506 370 511 439 q 501 236 501 300 q 512 146 501 174 q 547 118 524 118 q 567 123 554 118 q 606 143 579 129 q 642 163 622 152 q 689 192 661 175 l 690 150 q 569 63 634 104 q 429 -16 505 22 l 403 -11 q 382 56 389 20 q 374 130 374 92 m 390 515 l 376 517 q 265 532 288 532 q 186 474 210 532 q 163 277 163 416 q 186 164 163 208 q 244 121 209 121 q 294 137 264 121 q 370 191 323 153 q 378 373 374 296 q 390 515 383 450 m 252 772 q 303 885 252 840 q 429 929 355 929 q 492 901 469 929 q 514 823 514 873 q 463 709 514 755 q 343 663 412 663 q 275 690 298 663 q 252 772 252 718 m 389 876 q 337 852 357 876 q 318 789 318 829 q 333 733 318 753 q 376 714 348 714 q 429 738 411 714 q 447 806 447 761 q 432 859 447 841 q 389 876 418 876 z "},"ç":{"ha":538,"x_min":32,"x_max":557,"o":"m 557 123 q 378 16 454 50 q 244 -18 302 -18 q 87 51 142 -18 q 32 248 32 120 q 52 413 32 344 q 107 511 71 482 q 240 592 168 561 q 363 624 313 624 q 444 596 412 624 q 476 526 476 569 q 475 519 476 524 q 475 513 475 514 q 427 478 454 496 q 361 441 399 460 q 333 528 355 498 q 278 558 312 558 q 192 492 222 558 q 163 300 163 426 q 206 141 163 195 q 334 86 250 86 q 435 103 382 86 q 557 160 488 121 l 557 123 m 347 20 l 241 -50 q 262 -85 255 -68 q 269 -114 269 -102 q 233 -169 269 -144 q 87 -232 197 -194 l 54 -211 l 122 -179 q 153 -158 143 -169 q 162 -132 162 -146 q 155 -107 162 -121 q 134 -75 149 -93 l 293 29 l 347 20 z "},"é":{"ha":534,"x_min":29,"x_max":554,"o":"m 158 294 l 240 340 q 336 411 310 380 q 363 481 363 442 q 345 537 363 517 q 296 558 327 558 q 198 486 237 558 q 158 300 158 414 l 158 294 m 554 154 l 553 109 q 358 9 433 39 q 228 -20 283 -20 q 81 48 134 -20 q 29 239 29 116 q 48 393 29 327 q 102 496 66 460 q 148 534 121 515 q 210 570 174 552 q 305 610 262 597 q 382 624 348 624 q 466 595 434 624 q 497 519 497 566 q 477 448 497 477 q 393 380 457 419 l 302 328 l 296 324 q 163 244 220 281 q 214 127 170 170 q 329 85 259 85 q 413 99 365 85 q 554 154 460 113 m 243 675 l 415 892 l 514 863 q 382 746 458 814 q 289 663 305 677 l 243 675 z "},"è":{"ha":534,"x_min":29,"x_max":554,"o":"m 158 294 l 240 340 q 336 411 310 380 q 363 481 363 442 q 345 537 363 517 q 296 558 327 558 q 198 486 237 558 q 158 300 158 414 l 158 294 m 554 154 l 553 109 q 358 9 433 39 q 228 -20 283 -20 q 81 48 134 -20 q 29 239 29 116 q 48 393 29 327 q 102 496 66 460 q 148 534 121 515 q 210 570 174 552 q 305 610 262 597 q 382 624 348 624 q 466 595 434 624 q 497 519 497 566 q 477 448 497 477 q 393 380 457 419 l 302 328 l 296 324 q 163 244 220 281 q 214 127 170 170 q 329 85 259 85 q 413 99 365 85 q 554 154 460 113 m 389 663 q 266 764 321 715 q 167 861 211 812 l 258 893 q 338 787 296 839 q 425 682 379 734 l 389 663 z "},"ê":{"ha":534,"x_min":29,"x_max":554,"o":"m 158 294 l 240 340 q 336 411 310 380 q 363 481 363 442 q 345 537 363 517 q 296 558 327 558 q 198 486 237 558 q 158 300 158 414 l 158 294 m 554 154 l 553 109 q 358 9 433 39 q 228 -20 283 -20 q 81 48 134 -20 q 29 239 29 116 q 48 393 29 327 q 102 496 66 460 q 148 534 121 515 q 210 570 174 552 q 305 610 262 597 q 382 624 348 624 q 466 595 434 624 q 497 519 497 566 q 477 448 497 477 q 393 380 457 419 l 302 328 l 296 324 q 163 244 220 281 q 214 127 170 170 q 329 85 259 85 q 413 99 365 85 q 554 154 460 113 m 154 692 q 228 772 189 731 q 309 854 267 812 l 328 875 q 346 886 335 882 q 370 890 356 890 l 401 885 q 443 783 424 831 q 475 690 461 734 l 420 661 q 378 747 398 709 q 342 814 359 785 q 276 757 311 788 q 168 663 240 726 l 154 692 z "},"ë":{"ha":534,"x_min":29,"x_max":554,"o":"m 158 294 l 240 340 q 336 411 310 380 q 363 481 363 442 q 345 537 363 517 q 296 558 327 558 q 198 486 237 558 q 158 300 158 414 l 158 294 m 554 154 l 553 109 q 358 9 433 39 q 228 -20 283 -20 q 81 48 134 -20 q 29 239 29 116 q 48 393 29 327 q 102 496 66 460 q 148 534 121 515 q 210 570 174 552 q 305 610 262 597 q 382 624 348 624 q 466 595 434 624 q 497 519 497 566 q 477 448 497 477 q 393 380 457 419 l 302 328 l 296 324 q 163 244 220 281 q 214 127 170 170 q 329 85 259 85 q 413 99 365 85 q 554 154 460 113 m 362 783 q 405 824 381 806 q 456 859 429 843 q 497 808 481 827 q 528 774 513 789 q 482 739 513 762 q 436 704 451 716 q 397 742 416 722 q 362 783 378 762 m 149 778 q 192 818 170 800 q 240 848 215 835 q 312 770 264 821 l 313 768 q 271 731 294 749 q 224 697 248 713 q 181 734 200 714 q 149 778 163 754 z "},"í":{"ha":366,"x_min":-21,"x_max":422,"o":"m 422 131 q 285 40 350 77 q 160 -18 220 3 q 138 -12 148 -16 q 122 -3 129 -8 q 97 65 104 37 q 89 117 89 94 q 95 190 89 141 q 103 260 101 239 l 111 374 q 114 415 113 395 q 115 454 115 435 q 105 497 115 486 q 68 509 96 509 q 40 506 58 509 q -21 494 22 503 l -20 526 q 120 586 59 562 q 227 621 181 609 q 241 617 235 620 q 254 608 248 614 l 254 574 q 253 506 254 539 q 249 439 252 473 l 240 321 q 236 257 237 286 q 235 212 235 229 q 248 136 235 159 q 293 114 262 114 q 340 126 313 114 q 422 172 368 138 l 422 131 m 110 675 l 282 892 l 381 863 q 249 746 326 814 q 156 663 172 677 l 110 675 z "},"ì":{"ha":366,"x_min":-21,"x_max":422,"o":"m 422 131 q 285 40 350 77 q 160 -18 220 3 q 138 -12 148 -16 q 122 -3 129 -8 q 97 65 104 37 q 89 117 89 94 q 95 190 89 141 q 103 260 101 239 l 111 374 q 114 415 113 395 q 115 454 115 435 q 105 497 115 486 q 68 509 96 509 q 40 506 58 509 q -21 494 22 503 l -20 526 q 120 586 59 562 q 227 621 181 609 q 241 617 235 620 q 254 608 248 614 l 254 574 q 253 506 254 539 q 249 439 252 473 l 240 321 q 236 257 237 286 q 235 212 235 229 q 248 136 235 159 q 293 114 262 114 q 340 126 313 114 q 422 172 368 138 l 422 131 m 256 663 q 133 764 188 715 q 34 861 78 812 l 125 893 q 205 787 163 839 q 292 682 246 734 l 256 663 z "},"î":{"ha":366,"x_min":-21,"x_max":422,"o":"m 422 131 q 285 40 350 77 q 160 -18 220 3 q 138 -12 148 -16 q 122 -3 129 -8 q 97 65 104 37 q 89 117 89 94 q 95 190 89 141 q 103 260 101 239 l 111 374 q 114 415 113 395 q 115 454 115 435 q 105 497 115 486 q 68 509 96 509 q 40 506 58 509 q -21 494 22 503 l -20 526 q 120 586 59 562 q 227 621 181 609 q 241 617 235 620 q 254 608 248 614 l 254 574 q 253 506 254 539 q 249 439 252 473 l 240 321 q 236 257 237 286 q 235 212 235 229 q 248 136 235 159 q 293 114 262 114 q 340 126 313 114 q 422 172 368 138 l 422 131 m 21 692 q 95 772 56 731 q 176 854 134 812 l 195 875 q 213 886 202 882 q 237 890 223 890 l 269 885 q 310 783 291 831 q 342 690 328 734 l 288 661 q 245 747 265 709 q 209 814 226 785 q 143 757 178 788 q 35 663 107 726 l 21 692 z "},"ï":{"ha":366,"x_min":-21,"x_max":422,"o":"m 422 131 q 285 40 350 77 q 160 -18 220 3 q 138 -12 148 -16 q 122 -3 129 -8 q 97 65 104 37 q 89 117 89 94 q 95 190 89 141 q 103 260 101 239 l 111 374 q 114 415 113 395 q 115 454 115 435 q 105 497 115 486 q 68 509 96 509 q 40 506 58 509 q -21 494 22 503 l -20 526 q 120 586 59 562 q 227 621 181 609 q 241 617 235 620 q 254 608 248 614 l 254 574 q 253 506 254 539 q 249 439 252 473 l 240 321 q 236 257 237 286 q 235 212 235 229 q 248 136 235 159 q 293 114 262 114 q 340 126 313 114 q 422 172 368 138 l 422 131 m 229 783 q 272 824 248 806 q 323 859 296 843 q 364 808 348 827 q 395 774 380 789 q 349 739 380 762 q 303 704 318 716 q 264 742 283 722 q 229 783 245 762 m 16 778 q 59 818 37 800 q 107 848 82 835 q 179 770 132 821 l 180 768 q 138 731 161 749 q 91 697 115 713 q 48 734 67 714 q 16 778 30 754 z "},"ñ":{"ha":692,"x_min":-24,"x_max":760,"o":"m 72 -14 q 89 152 83 87 q 98 271 95 217 l 106 370 q 108 409 107 390 q 109 443 109 427 q 99 495 109 481 q 64 510 89 510 q 32 506 54 510 q -24 493 9 501 l -24 528 q 92 579 32 555 q 216 623 151 604 q 237 612 221 623 q 241 610 241 610 q 241 564 241 594 q 238 473 239 495 l 328 521 q 488 601 438 581 q 572 624 537 621 q 584 619 579 623 q 591 609 589 615 q 584 518 587 553 q 581 462 581 484 l 571 281 q 570 264 571 275 q 570 249 570 254 q 586 162 570 189 q 637 135 602 135 q 682 146 656 135 q 747 182 707 157 l 760 139 q 639 58 699 95 q 518 -11 578 20 l 510 -11 q 500 -11 505 -11 q 482 -8 494 -10 q 446 47 458 16 q 435 115 435 78 q 437 163 435 127 q 437 176 437 172 l 444 286 q 451 391 448 352 q 453 439 453 429 q 443 488 453 473 q 412 504 433 504 q 372 493 397 504 q 302 457 347 483 l 233 416 q 220 222 229 353 q 207 28 211 91 l 72 -14 m 201 733 l 258 777 q 305 805 284 796 q 345 814 326 814 q 367 811 355 814 q 394 804 380 809 l 445 789 q 466 784 455 785 q 486 782 476 782 q 513 788 498 782 q 546 808 528 795 l 590 844 l 606 818 l 538 747 q 501 721 522 730 q 455 711 479 711 q 433 713 446 711 q 408 720 421 715 l 355 736 q 319 748 328 745 q 305 750 310 750 q 282 745 295 750 q 254 730 269 740 l 220 707 l 201 733 z "},"ó":{"ha":611,"x_min":29,"x_max":564,"o":"m 164 326 q 200 126 164 198 q 298 54 235 54 q 395 112 360 54 q 429 275 429 170 q 396 481 429 410 q 298 553 362 553 q 199 494 234 553 q 164 326 164 435 m 221 -20 q 78 50 126 -20 q 29 256 29 120 q 49 405 29 342 q 109 500 69 467 q 248 592 177 559 q 374 625 318 625 q 515 556 467 625 q 564 353 564 486 q 544 199 564 261 q 485 106 524 138 q 343 13 411 45 q 221 -20 275 -20 m 256 675 l 428 892 l 527 863 q 395 746 471 814 q 302 663 318 677 l 256 675 z "},"ò":{"ha":611,"x_min":29,"x_max":564,"o":"m 164 326 q 200 126 164 198 q 298 54 235 54 q 395 112 360 54 q 429 275 429 170 q 396 481 429 410 q 298 553 362 553 q 199 494 234 553 q 164 326 164 435 m 221 -20 q 78 50 126 -20 q 29 256 29 120 q 49 405 29 342 q 109 500 69 467 q 248 592 177 559 q 374 625 318 625 q 515 556 467 625 q 564 353 564 486 q 544 199 564 261 q 485 106 524 138 q 343 13 411 45 q 221 -20 275 -20 m 401 663 q 279 764 334 715 q 180 861 224 812 l 271 893 q 351 787 309 839 q 438 682 392 734 l 401 663 z "},"ô":{"ha":611,"x_min":29,"x_max":564,"o":"m 164 326 q 200 126 164 198 q 298 54 235 54 q 395 112 360 54 q 429 275 429 170 q 396 481 429 410 q 298 553 362 553 q 199 494 234 553 q 164 326 164 435 m 221 -20 q 78 50 126 -20 q 29 256 29 120 q 49 405 29 342 q 109 500 69 467 q 248 592 177 559 q 374 625 318 625 q 515 556 467 625 q 564 353 564 486 q 544 199 564 261 q 485 106 524 138 q 343 13 411 45 q 221 -20 275 -20 m 167 692 q 241 772 202 731 q 321 854 279 812 l 340 875 q 358 886 348 882 q 382 890 369 890 l 414 885 q 455 783 437 831 q 488 690 474 734 l 433 661 q 391 747 411 709 q 355 814 372 785 q 289 757 324 788 q 181 663 253 726 l 167 692 z "},"ö":{"ha":611,"x_min":29,"x_max":564,"o":"m 164 326 q 200 126 164 198 q 298 54 235 54 q 395 112 360 54 q 429 275 429 170 q 396 481 429 410 q 298 553 362 553 q 199 494 234 553 q 164 326 164 435 m 221 -20 q 78 50 126 -20 q 29 256 29 120 q 49 405 29 342 q 109 500 69 467 q 248 592 177 559 q 374 625 318 625 q 515 556 467 625 q 564 353 564 486 q 544 199 564 261 q 485 106 524 138 q 343 13 411 45 q 221 -20 275 -20 m 375 783 q 418 824 394 806 q 469 859 441 843 q 510 808 494 827 q 541 774 526 789 q 495 739 526 762 q 449 704 464 716 q 410 742 429 722 q 375 783 391 762 m 161 778 q 205 818 182 800 q 253 848 228 835 q 325 770 277 821 l 326 768 q 284 731 307 749 q 237 697 261 713 q 194 734 213 714 q 161 778 176 754 z "},"õ":{"ha":611,"x_min":29,"x_max":564,"o":"m 164 326 q 200 126 164 198 q 298 54 235 54 q 395 112 360 54 q 429 275 429 170 q 396 481 429 410 q 298 553 362 553 q 199 494 234 553 q 164 326 164 435 m 221 -20 q 78 50 126 -20 q 29 256 29 120 q 49 405 29 342 q 109 500 69 467 q 248 592 177 559 q 374 625 318 625 q 515 556 467 625 q 564 353 564 486 q 544 199 564 261 q 485 106 524 138 q 343 13 411 45 q 221 -20 275 -20 m 152 733 l 209 777 q 256 805 235 796 q 295 814 277 814 q 318 811 305 814 q 345 804 330 809 l 395 789 q 416 784 406 785 q 437 782 427 782 q 464 788 449 782 q 496 808 478 795 l 541 844 l 556 818 l 489 747 q 451 721 473 730 q 406 711 430 711 q 384 713 396 711 q 359 720 372 715 l 306 736 q 269 748 278 745 q 256 750 260 750 q 232 745 245 750 q 204 730 219 740 l 171 707 l 152 733 z "},"ú":{"ha":692,"x_min":-25,"x_max":760,"o":"m 439 154 l 342 89 q 322 76 335 85 q 170 -14 229 14 q 153 -11 167 -14 q 132 -5 140 -8 q 99 75 111 37 q 87 143 87 113 q 91 202 87 161 q 96 259 95 242 l 100 350 l 100 353 q 101 383 100 359 q 102 422 102 406 q 93 481 102 469 q 56 493 83 493 q 28 491 45 493 q -25 481 12 488 l -25 513 q 113 576 51 550 q 218 616 174 603 q 232 608 227 613 q 241 597 238 604 q 237 517 239 547 q 233 476 235 487 l 227 385 q 221 299 223 339 q 220 233 220 258 q 237 157 220 186 q 281 127 254 127 q 346 150 302 127 q 440 210 390 172 q 448 349 444 284 q 456 465 452 414 l 464 578 q 532 602 500 592 q 596 616 564 611 q 586 512 591 566 q 578 396 582 458 l 572 325 q 572 317 572 322 q 570 271 570 284 q 585 163 570 201 q 629 125 600 125 q 667 137 642 125 q 760 189 693 149 l 760 149 q 646 62 707 102 q 513 -13 585 22 q 509 -13 512 -13 q 500 -14 506 -14 q 487 -12 493 -14 q 473 -8 480 -11 q 447 59 456 20 q 439 154 439 97 m 293 675 l 465 892 l 564 863 q 432 746 509 814 q 339 663 355 677 l 293 675 z "},"ù":{"ha":692,"x_min":-25,"x_max":760,"o":"m 439 154 l 342 89 q 322 76 335 85 q 170 -14 229 14 q 153 -11 167 -14 q 132 -5 140 -8 q 99 75 111 37 q 87 143 87 113 q 91 202 87 161 q 96 259 95 242 l 100 350 l 100 353 q 101 383 100 359 q 102 422 102 406 q 93 481 102 469 q 56 493 83 493 q 28 491 45 493 q -25 481 12 488 l -25 513 q 113 576 51 550 q 218 616 174 603 q 232 608 227 613 q 241 597 238 604 q 237 517 239 547 q 233 476 235 487 l 227 385 q 221 299 223 339 q 220 233 220 258 q 237 157 220 186 q 281 127 254 127 q 346 150 302 127 q 440 210 390 172 q 448 349 444 284 q 456 465 452 414 l 464 578 q 532 602 500 592 q 596 616 564 611 q 586 512 591 566 q 578 396 582 458 l 572 325 q 572 317 572 322 q 570 271 570 284 q 585 163 570 201 q 629 125 600 125 q 667 137 642 125 q 760 189 693 149 l 760 149 q 646 62 707 102 q 513 -13 585 22 q 509 -13 512 -13 q 500 -14 506 -14 q 487 -12 493 -14 q 473 -8 480 -11 q 447 59 456 20 q 439 154 439 97 m 439 663 q 316 764 371 715 q 217 861 261 812 l 309 893 q 388 787 347 839 q 475 682 429 734 l 439 663 z "},"û":{"ha":692,"x_min":-25,"x_max":760,"o":"m 439 154 l 342 89 q 322 76 335 85 q 170 -14 229 14 q 153 -11 167 -14 q 132 -5 140 -8 q 99 75 111 37 q 87 143 87 113 q 91 202 87 161 q 96 259 95 242 l 100 350 l 100 353 q 101 383 100 359 q 102 422 102 406 q 93 481 102 469 q 56 493 83 493 q 28 491 45 493 q -25 481 12 488 l -25 513 q 113 576 51 550 q 218 616 174 603 q 232 608 227 613 q 241 597 238 604 q 237 517 239 547 q 233 476 235 487 l 227 385 q 221 299 223 339 q 220 233 220 258 q 237 157 220 186 q 281 127 254 127 q 346 150 302 127 q 440 210 390 172 q 448 349 444 284 q 456 465 452 414 l 464 578 q 532 602 500 592 q 596 616 564 611 q 586 512 591 566 q 578 396 582 458 l 572 325 q 572 317 572 322 q 570 271 570 284 q 585 163 570 201 q 629 125 600 125 q 667 137 642 125 q 760 189 693 149 l 760 149 q 646 62 707 102 q 513 -13 585 22 q 509 -13 512 -13 q 500 -14 506 -14 q 487 -12 493 -14 q 473 -8 480 -11 q 447 59 456 20 q 439 154 439 97 m 204 692 q 278 772 239 731 q 359 854 317 812 l 378 875 q 396 886 385 882 q 420 890 406 890 l 452 885 q 493 783 474 831 q 525 690 511 734 l 471 661 q 429 747 448 709 q 392 814 409 785 q 326 757 361 788 q 218 663 290 726 l 204 692 z "},"ü":{"ha":692,"x_min":-25,"x_max":760,"o":"m 439 154 l 342 89 q 322 76 335 85 q 170 -14 229 14 q 153 -11 167 -14 q 132 -5 140 -8 q 99 75 111 37 q 87 143 87 113 q 91 202 87 161 q 96 259 95 242 l 100 350 l 100 353 q 101 383 100 359 q 102 422 102 406 q 93 481 102 469 q 56 493 83 493 q 28 491 45 493 q -25 481 12 488 l -25 513 q 113 576 51 550 q 218 616 174 603 q 232 608 227 613 q 241 597 238 604 q 237 517 239 547 q 233 476 235 487 l 227 385 q 221 299 223 339 q 220 233 220 258 q 237 157 220 186 q 281 127 254 127 q 346 150 302 127 q 440 210 390 172 q 448 349 444 284 q 456 465 452 414 l 464 578 q 532 602 500 592 q 596 616 564 611 q 586 512 591 566 q 578 396 582 458 l 572 325 q 572 317 572 322 q 570 271 570 284 q 585 163 570 201 q 629 125 600 125 q 667 137 642 125 q 760 189 693 149 l 760 149 q 646 62 707 102 q 513 -13 585 22 q 509 -13 512 -13 q 500 -14 506 -14 q 487 -12 493 -14 q 473 -8 480 -11 q 447 59 456 20 q 439 154 439 97 m 412 783 q 455 824 431 806 q 506 859 479 843 q 547 808 531 827 q 578 774 563 789 q 532 739 563 762 q 486 704 501 716 q 447 742 466 722 q 412 783 429 762 m 199 778 q 242 818 220 800 q 290 848 265 835 q 362 770 315 821 l 363 768 q 321 731 344 749 q 274 697 298 713 q 232 734 250 714 q 199 778 213 754 z "},"†":{"ha":616,"x_min":6,"x_max":604,"o":"m 200 -40 q 222 181 212 79 q 236 335 232 283 l 248 517 q 197 518 224 517 q 118 518 170 518 q 47 518 69 518 q 6 517 24 517 q 39 563 25 542 q 62 602 52 583 q 133 600 89 601 q 229 599 208 599 l 254 599 q 259 677 257 632 q 262 815 261 722 l 386 847 q 371 716 381 798 q 359 602 361 634 q 415 601 378 602 q 468 600 451 600 q 526 601 496 600 q 604 603 555 601 l 564 515 q 549 515 559 515 q 432 518 467 518 q 391 517 418 518 q 353 517 365 517 l 345 376 q 342 323 344 363 q 325 -9 334 142 q 286 -34 310 -26 q 227 -41 261 -41 q 214 -41 222 -41 q 200 -40 205 -40 z "},"°":{"ha":457,"x_min":33,"x_max":424,"o":"m 229 924 q 136 886 174 924 q 97 793 97 848 q 136 699 97 738 q 229 660 174 660 q 322 699 284 660 q 359 793 359 738 q 322 886 359 848 q 229 924 284 924 m 229 987 q 367 930 309 987 q 424 791 424 873 q 367 654 424 711 q 228 597 310 597 q 90 654 146 597 q 33 791 33 710 q 91 930 33 873 q 229 987 149 987 z "},"¢":{"ha":694,"x_min":79,"x_max":591,"o":"m 313 89 q 330 332 322 211 q 343 574 337 452 q 239 482 279 559 q 200 290 200 405 q 230 151 200 203 q 313 89 260 98 m 345 -136 l 292 -162 q 297 -110 295 -136 q 300 -59 299 -84 l 304 0 q 136 70 193 5 q 79 256 79 135 q 146 484 79 393 q 343 612 214 575 l 346 663 q 347 690 346 663 q 349 743 349 718 l 403 775 q 394 682 396 731 q 393 668 393 670 l 389 621 q 403 622 394 621 q 416 623 412 623 q 515 601 475 623 q 575 534 554 579 q 525 491 549 510 q 475 456 500 471 q 445 546 465 519 q 386 578 425 574 q 370 325 376 449 q 360 83 363 201 q 363 83 361 83 q 387 81 378 81 q 473 99 427 81 q 591 164 519 117 l 591 134 q 476 50 536 81 q 353 7 416 18 l 349 -33 q 347 -74 348 -39 q 345 -136 346 -108 z "},"£":{"ha":694,"x_min":-35,"x_max":669,"o":"m -35 -69 l -35 -26 q 25 26 -3 -1 q 81 82 54 53 q 125 237 110 144 q 140 452 140 330 l 4 452 l 31 496 l 146 503 q 174 634 150 578 q 244 736 197 690 q 362 815 296 786 q 490 844 428 844 q 543 839 518 844 q 593 822 568 833 l 547 736 q 468 765 505 755 q 399 775 431 775 q 286 515 294 774 q 286 504 286 508 l 367 504 q 432 505 403 504 q 486 510 460 507 l 446 450 q 411 452 429 452 q 354 453 392 453 l 282 453 q 233 259 269 342 q 135 115 197 176 q 191 135 163 129 q 249 142 218 142 q 278 141 264 142 q 308 138 293 140 l 363 129 q 413 124 392 125 q 449 122 433 122 q 536 150 498 122 q 647 283 574 178 l 669 258 q 614 147 648 212 q 600 119 604 127 l 567 56 q 526 -7 545 14 q 489 -28 506 -28 q 401 -10 478 -28 q 350 1 369 -3 l 286 16 q 227 27 252 24 q 180 31 202 31 q -31 -66 108 31 l -35 -69 z "},"§":{"ha":694,"x_min":64,"x_max":567,"o":"m 208 583 q 173 529 184 558 q 161 465 161 500 q 273 260 161 375 l 285 248 l 357 174 q 419 103 393 136 q 457 47 445 70 q 479 86 471 67 q 486 125 486 106 q 465 207 486 165 q 389 309 444 248 l 326 376 q 233 497 256 454 q 208 583 211 539 m 64 -257 q 91 -215 76 -236 q 126 -172 106 -195 q 201 -194 168 -187 q 261 -201 234 -201 q 355 -174 319 -201 q 390 -102 390 -146 q 302 37 390 -52 q 281 58 288 50 l 193 150 q 106 268 134 211 q 78 383 78 326 q 112 520 78 452 q 216 659 146 589 q 310 795 240 737 q 449 852 380 852 q 510 843 482 852 q 562 812 538 833 l 504 725 q 439 760 467 749 q 386 771 411 771 q 312 744 340 771 q 283 673 283 717 q 385 503 283 612 l 386 501 l 464 419 q 541 311 514 366 q 567 207 567 256 q 545 106 567 159 q 478 -5 522 54 q 382 -218 451 -144 q 211 -292 313 -292 q 143 -283 180 -292 q 64 -257 107 -275 z "},"•":{"ha":819,"x_min":208,"x_max":610,"o":"m 208 517 q 267 659 208 600 q 410 717 326 717 q 551 658 492 717 q 610 517 610 600 q 550 375 610 434 q 408 315 491 315 q 267 374 325 315 q 208 517 208 433 z "},"¶":{"ha":694,"x_min":45,"x_max":650,"o":"m 650 1003 l 650 945 l 568 945 l 568 0 l 493 0 l 493 945 l 374 945 l 374 0 l 297 0 l 297 530 q 113 600 182 536 q 45 766 45 664 q 118 938 45 873 q 311 1003 191 1003 l 650 1003 z "},"ß":{"ha":692,"x_min":-257,"x_max":648,"o":"m -201 -343 q -118 -351 -152 -349 q -61 -354 -84 -354 q 45 -291 14 -354 q 89 -7 76 -229 l 100 192 q 106 298 101 216 q 113 427 111 380 q 89 489 106 463 q 43 538 73 515 l 126 602 q 152 754 132 691 q 207 859 172 818 q 335 951 254 913 q 484 989 415 989 q 595 956 553 989 q 637 869 637 923 q 623 804 637 837 q 576 736 608 772 q 543 699 565 723 q 461 579 461 609 q 476 536 461 560 q 521 484 491 512 l 559 446 l 563 443 q 648 297 648 357 q 600 161 648 239 q 465 5 551 83 q 409 -5 432 -2 q 370 -8 387 -8 q 328 -5 350 -8 q 277 5 305 -2 l 330 104 q 400 99 378 100 q 435 97 422 97 q 516 125 486 97 q 546 199 546 153 q 532 257 546 230 q 482 322 518 285 l 419 386 q 371 448 387 419 q 354 500 354 477 q 369 552 354 525 q 429 635 383 580 l 468 681 q 513 752 496 715 q 529 817 529 789 q 499 903 529 870 q 421 936 469 936 q 309 860 345 936 q 256 568 273 784 l 236 308 q 224 139 231 247 q 163 -233 206 -159 q 83 -329 136 -279 q -46 -432 30 -380 q -109 -443 -79 -439 q -167 -447 -138 -447 q -210 -444 -186 -447 q -257 -436 -233 -441 l -201 -343 z "},"®":{"ha":1141,"x_min":89,"x_max":1053,"o":"m 500 489 q 519 488 509 488 q 543 488 530 488 q 654 518 614 488 q 693 604 693 549 q 659 683 693 653 q 568 713 625 713 q 517 701 534 713 q 500 665 500 689 l 500 489 m 317 742 l 586 742 q 743 705 684 742 q 802 610 802 669 q 757 520 802 553 q 608 469 712 488 q 707 417 673 450 q 753 329 741 385 q 755 310 753 323 q 800 225 762 225 q 832 248 821 225 q 843 314 843 271 l 873 314 l 873 301 q 846 214 873 244 q 765 183 818 183 q 708 194 732 183 q 673 225 684 205 q 659 300 660 250 q 653 366 657 349 q 608 437 640 414 q 519 460 576 460 l 500 460 l 500 293 q 517 244 500 258 q 581 226 534 230 l 581 196 l 317 196 l 317 226 q 381 243 363 229 q 399 293 399 258 l 399 643 q 381 693 399 679 q 317 711 363 708 l 317 742 m 572 885 q 411 852 489 885 q 273 758 333 819 q 182 621 214 697 q 151 460 151 545 q 183 298 151 374 q 275 161 214 222 q 411 69 336 100 q 571 37 486 37 q 732 69 656 37 q 867 161 808 101 q 958 299 926 222 q 990 460 990 376 q 958 624 990 545 q 868 761 926 703 q 732 852 810 819 q 572 885 654 885 m 572 943 q 758 905 667 943 q 916 799 848 867 q 1017 643 981 732 q 1053 456 1053 553 q 1015 273 1053 361 q 905 114 977 184 q 751 12 838 47 q 564 -22 664 -22 q 386 15 473 -22 q 231 119 300 52 q 125 275 161 188 q 89 460 89 361 q 125 643 89 556 q 229 800 161 730 q 386 906 297 869 q 572 943 475 943 z "},"©":{"ha":1141,"x_min":89,"x_max":1053,"o":"m 761 745 l 786 745 l 787 530 l 758 530 q 688 669 736 622 q 568 715 640 715 q 447 652 488 715 q 406 464 406 589 q 451 271 406 337 q 582 205 496 205 q 686 235 639 205 q 772 325 733 265 l 799 307 q 699 200 758 236 q 564 164 640 164 q 366 248 446 164 q 285 454 285 332 q 365 663 285 578 q 562 747 446 747 q 664 725 613 747 q 718 703 714 703 q 747 712 736 703 q 761 745 757 722 m 572 885 q 411 852 489 885 q 273 758 333 819 q 182 621 214 697 q 151 460 151 545 q 183 298 151 374 q 275 161 214 222 q 412 69 337 100 q 571 37 487 37 q 732 69 656 37 q 867 161 807 100 q 959 300 927 222 q 991 460 991 377 q 959 623 991 543 q 868 761 926 703 q 732 852 810 819 q 572 885 654 885 m 572 943 q 755 906 666 943 q 911 803 844 869 q 1016 646 979 736 q 1053 460 1053 555 q 1016 277 1053 365 q 911 119 980 189 q 756 14 844 51 q 571 -22 669 -22 q 388 14 475 -22 q 231 119 301 50 q 125 275 161 189 q 89 460 89 361 q 125 643 89 555 q 231 800 161 730 q 387 906 298 869 q 572 943 475 943 z "},"™":{"ha":1141,"x_min":163,"x_max":971,"o":"m 529 978 l 659 978 l 751 713 l 848 978 l 971 978 l 971 961 l 951 960 q 929 949 937 958 q 922 924 922 941 l 922 669 q 929 644 922 652 q 951 633 937 635 l 971 632 l 971 612 l 808 612 l 808 632 l 829 633 q 851 644 844 635 q 859 669 859 653 l 859 932 l 742 611 l 728 611 l 611 933 l 611 669 q 618 644 611 653 q 640 633 626 635 l 663 632 l 663 612 l 529 612 l 529 632 l 552 633 q 573 644 566 635 q 581 669 581 653 l 581 921 q 573 946 581 937 q 552 957 566 956 l 529 960 l 529 978 m 170 978 l 471 978 l 478 854 l 460 854 q 432 932 454 907 q 368 957 410 957 l 357 957 l 357 669 q 364 644 357 653 q 385 633 371 635 l 407 632 l 407 612 l 235 612 l 235 632 l 256 633 q 277 644 270 635 q 285 669 285 653 l 285 957 l 273 957 q 208 932 230 957 q 180 854 186 908 l 163 854 l 170 978 z "},"´":{"ha":694,"x_min":297,"x_max":568,"o":"m 297 675 l 469 892 l 568 863 q 436 746 513 814 q 343 663 359 677 l 297 675 z "},"¨":{"ha":694,"x_min":203,"x_max":582,"o":"m 416 783 q 459 824 435 806 q 510 859 483 843 q 551 808 535 827 q 582 774 567 789 q 536 739 567 762 q 490 704 505 716 q 451 742 470 722 q 416 783 433 762 m 203 778 q 247 818 224 800 q 294 848 269 835 q 366 770 319 821 l 368 768 q 325 731 348 749 q 278 697 302 713 q 236 734 254 714 q 203 778 217 754 z "},"≠":{"ha":1157,"x_min":172,"x_max":985,"o":"m 819 810 l 890 754 l 764 595 l 985 595 l 985 503 l 703 503 l 564 325 l 985 325 l 985 233 l 504 233 l 335 18 l 264 75 l 389 233 l 172 233 l 172 325 l 449 325 l 587 503 l 172 503 l 172 595 l 648 595 l 819 810 z "},"Æ":{"ha":1161,"x_min":-35,"x_max":1111,"o":"m 501 403 q 518 600 512 507 q 528 782 525 693 q 400 623 471 720 q 250 403 329 526 l 501 403 m 646 466 q 668 460 656 462 q 708 458 681 458 l 925 456 l 888 414 l 690 403 q 661 399 671 401 q 642 393 651 397 q 627 222 632 307 q 620 53 621 138 q 659 52 638 52 q 718 52 680 52 q 845 63 802 52 q 916 100 889 74 q 995 205 955 140 q 1076 366 1034 271 l 1111 342 q 1069 168 1088 255 q 1034 -8 1049 80 q 964 -2 1000 -4 q 885 0 928 0 q 843 -1 875 0 q 789 -1 811 -1 q 703 -1 760 -1 q 618 0 646 0 l 322 0 l 374 45 q 480 53 437 50 q 525 57 524 57 l 475 53 q 489 212 484 136 q 496 354 494 288 q 429 357 463 356 q 361 358 395 358 q 292 357 327 358 q 222 354 258 356 q 131 210 158 269 q 103 103 103 152 q 109 58 103 81 q 126 7 115 34 l -4 -22 q -26 19 -19 -3 q -35 66 -34 41 q 110 290 -24 98 q 464 779 244 482 q 395 786 446 781 q 310 795 344 791 l 358 829 l 621 829 q 856 835 752 829 q 1029 851 959 840 q 1062 817 1049 837 q 1079 772 1074 798 l 987 671 q 941 744 964 720 q 890 774 918 768 q 838 779 873 777 q 762 781 803 781 q 739 780 755 781 q 713 779 722 779 l 665 778 q 655 635 660 709 q 646 466 650 561 z "},"Ø":{"ha":990,"x_min":49,"x_max":942,"o":"m 122 -89 l 200 41 q 86 175 123 97 q 49 359 49 253 q 185 724 49 594 q 567 854 321 854 q 640 847 604 854 q 711 827 676 840 l 806 972 l 832 913 l 762 804 q 898 667 853 751 q 942 465 942 583 q 808 106 942 237 q 443 -25 675 -25 q 343 -16 391 -25 q 250 14 296 -6 q 196 -77 220 -31 q 153 -175 172 -124 l 122 -89 m 705 718 q 427 292 637 624 q 306 102 349 169 q 383 42 332 64 q 496 21 433 21 q 707 131 629 21 q 785 432 785 240 q 765 598 785 528 q 705 718 746 669 m 267 143 q 446 411 349 262 q 664 755 543 560 q 591 795 631 782 q 503 808 551 808 q 284 699 364 808 q 204 397 204 589 q 220 257 204 320 q 267 143 235 193 z "},"∞":{"ha":1157,"x_min":150,"x_max":1008,"o":"m 621 379 q 700 289 654 319 q 802 258 745 258 q 913 304 870 258 q 957 421 957 350 q 917 535 957 490 q 817 581 877 581 q 717 535 762 581 q 621 379 673 490 m 538 452 q 459 541 505 511 q 357 571 414 571 q 245 526 288 571 q 201 410 201 481 q 241 296 201 341 q 342 250 281 250 q 441 295 397 250 q 538 452 486 340 m 586 328 q 485 193 538 235 q 368 150 433 150 q 213 226 277 150 q 150 414 150 302 q 207 606 150 532 q 354 679 263 679 q 469 637 418 679 q 571 500 520 595 q 671 638 617 593 q 790 682 724 682 q 944 606 880 682 q 1008 416 1008 529 q 952 225 1008 298 q 804 153 895 153 q 690 192 740 153 q 586 328 640 232 z "},"±":{"ha":1157,"x_min":172,"x_max":985,"o":"m 172 115 l 985 115 l 985 20 l 172 20 l 172 115 m 530 808 l 627 808 l 627 578 l 985 578 l 985 484 l 627 484 l 627 253 l 530 253 l 530 484 l 172 484 l 172 578 l 530 578 l 530 808 z "},"≤":{"ha":1157,"x_min":178,"x_max":981,"o":"m 178 110 l 981 110 l 981 16 l 178 16 l 178 110 m 979 818 l 979 718 l 345 509 l 979 301 l 979 200 l 178 468 l 178 550 l 979 818 z "},"≥":{"ha":1157,"x_min":178,"x_max":981,"o":"m 178 110 l 981 110 l 981 16 l 178 16 l 178 110 m 178 818 l 981 550 l 981 468 l 178 200 l 178 301 l 814 509 l 178 718 l 178 818 z "},"¥":{"ha":823,"x_min":-24,"x_max":903,"o":"m 104 0 l 150 43 q 240 56 210 52 q 296 62 270 60 q 313 208 306 134 q 326 363 321 283 l 37 363 l 45 404 l 328 404 l 328 422 q 327 466 328 444 q 323 514 326 488 l 65 514 l 71 555 l 318 555 q 263 696 311 647 q 135 746 215 746 q 64 736 102 746 q -21 705 25 726 l -24 736 q 61 785 14 759 q 170 844 108 812 q 199 847 185 846 q 227 848 213 848 q 396 773 342 848 q 450 533 450 697 q 450 479 450 498 q 447 443 449 460 q 629 745 540 642 q 798 848 718 848 q 853 842 828 848 q 903 822 878 836 l 851 700 q 800 719 823 713 q 757 725 777 725 q 652 682 705 725 q 550 555 600 640 l 802 555 l 794 514 l 529 514 q 503 455 514 482 q 484 404 492 429 l 775 404 l 768 363 l 469 363 q 449 249 456 320 q 439 64 441 177 q 559 50 479 60 q 605 43 591 45 l 572 0 q 478 2 528 1 q 330 3 428 3 q 189 2 235 3 q 104 0 143 1 z "},"µ":{"ha":793,"x_min":-69,"x_max":755,"o":"m 113 132 q 69 -109 90 35 q -9 -285 44 -285 q -54 -268 -39 -285 q -69 -221 -69 -252 q -22 -33 -69 -191 q 53 253 26 125 l 126 600 l 240 600 l 172 278 q 163 228 166 251 q 160 187 160 204 q 188 114 160 140 q 269 87 216 87 q 374 124 335 87 q 429 241 412 161 l 505 600 l 623 600 l 545 239 q 535 188 538 210 q 532 153 532 166 q 550 102 532 120 q 602 85 568 85 q 656 102 631 85 q 696 149 682 119 q 714 198 705 167 q 741 236 726 236 q 751 231 747 236 q 755 216 755 225 q 746 157 755 193 q 722 89 737 120 q 660 9 696 36 q 576 -17 623 -17 q 491 20 522 -17 q 461 125 461 58 l 461 134 q 378 19 426 56 q 261 -17 330 -17 q 159 21 197 -17 q 113 132 121 59 z "},"∂":{"ha":718,"x_min":71,"x_max":652,"o":"m 513 421 q 528 535 523 480 q 533 642 533 591 q 508 773 533 729 q 435 818 484 818 q 349 779 397 818 q 275 739 300 739 q 235 754 251 739 q 218 790 218 769 q 267 865 218 832 q 385 899 316 899 q 579 793 507 899 q 652 510 652 688 q 554 133 652 283 q 311 -17 456 -17 q 139 56 208 -17 q 71 240 71 130 q 145 461 71 374 q 330 549 220 549 q 443 518 399 549 q 513 421 487 487 m 479 335 q 450 456 479 414 q 367 498 420 498 q 245 411 293 498 q 197 183 197 323 q 227 63 197 104 q 310 21 256 21 q 432 109 384 21 q 479 335 479 197 z "},"∑":{"ha":991,"x_min":11,"x_max":974,"o":"m 11 999 l 799 999 l 873 751 l 821 751 l 771 905 q 743 939 764 928 q 676 949 722 949 l 208 949 l 757 385 l 757 359 l 197 -139 l 799 -139 q 852 -130 840 -139 q 872 -96 865 -121 l 921 60 l 974 60 l 873 -267 l 11 -267 l 11 -239 l 635 314 l 11 962 l 11 999 z "},"∏":{"ha":1105,"x_min":36,"x_max":1068,"o":"m 36 999 l 1068 999 l 1068 949 l 939 949 l 939 -216 l 1068 -216 l 1068 -267 l 664 -267 l 664 -216 l 794 -216 l 794 949 l 310 949 l 310 -216 l 440 -216 l 440 -267 l 36 -267 l 36 -216 l 165 -216 l 165 949 l 36 949 l 36 999 z "},"π":{"ha":942,"x_min":24,"x_max":929,"o":"m 929 600 l 900 465 l 669 465 q 644 193 647 372 q 643 134 644 154 q 621 10 641 50 q 559 -29 601 -29 q 516 -10 531 -29 q 501 46 501 9 q 553 222 501 85 q 631 465 606 358 l 368 465 q 341 184 345 369 q 340 135 340 151 q 318 10 338 49 q 257 -29 298 -29 q 214 -10 229 -29 q 200 46 200 9 q 252 222 200 86 q 328 465 303 359 l 200 465 q 108 437 138 465 q 62 334 78 409 l 24 334 q 108 541 51 481 q 278 600 165 600 l 929 600 z "},"∫":{"ha":724,"x_min":32,"x_max":690,"o":"m 211 -178 q 292 289 283 -178 q 294 401 294 362 q 367 901 302 750 q 568 1051 431 1051 q 656 1023 623 1051 q 690 950 690 994 q 669 892 690 913 q 610 871 647 871 q 562 884 581 871 q 535 920 543 897 q 528 955 531 930 q 514 979 525 979 q 432 559 441 979 q 427 354 429 429 q 351 -111 415 29 q 154 -252 287 -252 q 66 -223 100 -252 q 32 -151 32 -195 q 55 -92 32 -113 q 119 -71 78 -71 q 158 -80 142 -71 q 184 -109 174 -90 q 195 -150 191 -121 q 211 -178 198 -178 z "},"ª":{"ha":469,"x_min":24,"x_max":518,"o":"m 293 743 q 232 752 253 749 q 199 754 211 754 q 140 713 157 754 q 122 575 122 673 q 140 497 122 527 q 183 467 157 467 q 220 478 198 467 q 277 515 242 489 q 284 641 280 586 q 293 743 288 696 m 280 473 q 208 423 252 455 q 113 371 134 371 q 51 418 78 371 q 24 530 24 465 q 34 644 24 595 q 61 707 45 692 q 175 788 121 761 q 275 815 229 815 q 347 809 308 815 q 429 791 386 804 l 390 741 q 380 637 383 685 q 376 547 376 589 q 385 485 376 504 q 411 465 393 465 q 428 469 417 465 q 454 482 438 473 q 498 506 468 489 q 517 517 510 513 l 518 488 q 429 426 477 455 q 322 371 380 397 l 302 374 q 287 421 293 396 q 280 473 281 447 z "},"º":{"ha":458,"x_min":22,"x_max":424,"o":"m 123 611 q 150 470 123 521 q 224 419 176 419 q 296 460 270 419 q 322 575 322 501 q 297 719 322 669 q 224 770 271 770 q 150 728 176 770 q 123 611 123 687 m 165 368 q 59 417 95 368 q 22 561 22 466 q 37 665 22 622 q 82 732 52 709 q 186 796 133 773 q 281 819 239 819 q 387 771 351 819 q 424 629 424 722 q 409 523 424 566 q 364 456 394 479 q 257 391 308 413 q 165 368 206 368 z "},"Ω":{"ha":1064,"x_min":18,"x_max":1047,"o":"m 754 157 l 754 139 l 965 139 l 1006 264 l 1047 264 l 968 0 l 625 0 q 748 295 707 146 q 790 585 790 444 q 725 868 790 772 q 533 964 661 964 q 340 869 405 964 q 275 585 275 774 q 317 296 275 443 q 440 0 358 149 l 97 0 l 18 264 l 60 264 l 100 139 l 311 139 l 311 157 q 151 384 199 281 q 102 595 102 487 q 226 896 102 776 q 533 1015 350 1015 q 840 895 716 1015 q 964 595 964 775 q 915 385 964 488 q 754 157 867 283 z "},"æ":{"ha":875,"x_min":29,"x_max":890,"o":"m 494 273 l 576 332 q 591 342 582 336 q 700 479 700 418 q 682 537 700 517 q 633 558 665 558 q 534 483 574 558 q 494 289 494 408 l 494 273 m 401 484 q 320 519 356 507 q 257 532 283 532 q 184 470 205 532 q 163 258 163 409 q 186 159 163 200 q 241 118 210 118 q 290 134 261 118 q 367 189 319 150 l 366 193 q 364 254 364 233 q 373 370 364 313 q 401 484 382 427 m 890 154 l 890 109 q 696 11 770 39 q 568 -18 622 -18 q 443 23 493 -18 q 378 138 393 64 q 289 71 344 113 q 146 -16 174 -16 q 65 51 101 -16 q 29 212 29 118 q 43 374 29 305 q 81 464 58 442 q 219 573 149 530 q 328 615 290 615 q 385 608 355 615 q 447 586 416 600 l 500 652 l 536 652 l 514 553 q 632 607 583 589 q 718 624 682 624 q 803 595 770 624 q 835 522 835 567 q 816 455 835 484 q 729 379 797 427 l 639 317 q 589 284 637 315 q 501 224 542 252 q 554 123 510 161 q 665 85 599 85 q 758 101 705 85 q 890 154 810 117 z "},"ø":{"ha":611,"x_min":29,"x_max":564,"o":"m 183 171 q 275 309 225 233 q 390 492 324 385 q 351 536 374 522 q 298 551 328 551 q 198 493 233 551 q 164 323 164 435 q 169 241 164 279 q 183 171 174 203 m 93 31 q 45 119 60 66 q 29 252 29 172 q 49 402 29 341 q 109 498 68 464 q 248 591 178 558 q 374 624 317 624 q 418 618 396 624 q 463 603 440 613 l 484 637 q 489 647 485 640 q 533 732 521 700 l 561 660 q 530 618 549 646 q 521 604 524 609 l 500 574 q 548 488 533 541 q 564 351 564 435 q 544 198 564 258 q 485 104 525 137 q 342 12 410 43 q 218 -20 275 -20 q 176 -15 197 -20 q 134 0 155 -9 l 118 -26 q 109 -43 115 -32 q 57 -153 73 -106 l 32 -66 l 93 31 m 410 439 q 310 287 361 367 q 204 117 258 206 q 243 70 218 86 q 298 53 268 53 q 394 110 359 53 q 429 267 429 166 q 425 365 429 324 q 410 439 420 406 z "},"¿":{"ha":463,"x_min":47,"x_max":414,"o":"m 311 851 q 369 801 343 829 q 414 742 395 774 q 363 687 391 713 q 302 637 336 661 q 260 691 284 665 q 207 741 237 716 q 257 792 231 765 q 311 851 283 820 m 339 595 q 371 550 361 574 q 382 493 382 525 q 378 461 382 477 q 367 429 374 446 q 209 295 244 341 q 174 195 174 248 q 210 110 174 140 q 314 79 247 79 q 353 82 332 79 q 399 90 374 85 l 329 4 q 271 -12 300 -6 q 214 -17 243 -17 q 91 19 135 -17 q 47 121 47 56 q 69 204 47 164 q 157 313 90 245 q 189 344 168 324 q 264 488 264 414 q 260 521 264 503 q 248 561 256 540 l 339 595 z "},"¡":{"ha":386,"x_min":78,"x_max":317,"o":"m 317 737 q 257 670 287 699 q 195 625 227 642 q 154 675 174 647 q 111 737 134 703 q 168 806 141 777 q 218 851 195 835 q 268 792 243 821 q 317 737 292 763 m 257 561 q 258 525 258 548 q 262 385 262 423 q 255 214 262 296 q 233 56 248 132 q 141 14 194 37 q 78 -14 87 -9 l 103 90 q 147 311 130 203 q 172 522 164 418 q 219 542 199 532 q 257 561 240 551 z "},"¬":{"ha":1157,"x_min":172,"x_max":985,"o":"m 172 583 l 985 583 l 985 243 l 892 243 l 892 489 l 172 489 l 172 583 z "},"√":{"ha":885,"x_min":41,"x_max":885,"o":"m 757 1126 l 885 1126 l 885 1061 l 807 1061 l 404 -28 l 359 -28 l 143 571 l 58 541 l 41 595 l 233 661 l 407 180 l 757 1126 z "},"ƒ":{"ha":694,"x_min":-192,"x_max":705,"o":"m -192 -427 l -123 -318 q -60 -337 -86 -331 q -18 -343 -35 -343 q 62 -288 32 -343 q 139 -28 93 -233 l 163 78 q 188 197 165 88 q 232 406 210 306 l 82 414 l 154 457 q 166 458 158 457 q 243 460 220 460 q 260 531 251 496 q 281 597 270 566 q 310 653 291 626 q 370 721 330 681 q 497 822 442 793 q 611 851 551 851 q 656 847 633 851 q 705 833 679 843 l 646 747 q 629 751 640 749 q 515 772 541 772 q 445 731 470 772 q 399 567 420 690 l 380 463 l 575 457 l 494 414 l 370 408 l 306 135 q 248 -82 270 -14 q 203 -199 227 -150 q 149 -278 182 -240 q 62 -359 116 -317 q -31 -419 14 -400 q -119 -437 -75 -437 q -154 -435 -136 -437 q -192 -427 -172 -432 z "},"≈":{"ha":1157,"x_min":121,"x_max":1038,"o":"m 1038 397 l 1038 292 q 902 219 966 242 q 774 196 838 196 q 581 242 709 196 q 382 288 452 288 q 266 263 326 288 q 121 180 205 239 l 121 286 q 259 360 194 336 q 383 385 324 385 q 590 338 461 385 q 775 292 719 292 q 895 316 835 292 q 1038 397 956 340 m 1038 647 l 1038 542 q 902 469 966 492 q 774 446 838 446 q 581 492 709 446 q 382 538 452 538 q 266 513 326 538 q 121 431 205 489 l 121 536 q 258 609 193 585 q 383 633 323 633 q 590 588 462 633 q 775 542 719 542 q 894 565 834 542 q 1038 647 954 589 z "},"∆":{"ha":916,"x_min":36,"x_max":879,"o":"m 408 796 l 144 147 l 665 147 l 408 796 m 452 1015 l 472 1015 l 879 0 l 36 0 l 452 1015 z "},"«":{"ha":668,"x_min":135,"x_max":524,"o":"m 461 33 q 389 178 423 111 q 322 306 355 245 q 416 439 371 374 q 504 567 462 505 l 524 529 q 459 421 489 470 q 401 326 430 372 q 453 225 425 281 q 522 79 481 168 q 489 58 503 69 q 461 33 474 47 m 272 24 q 198 174 233 104 q 135 300 163 244 q 247 431 189 361 q 364 578 305 501 l 382 546 l 331 466 q 285 398 326 457 q 224 309 248 345 q 279 193 252 251 q 334 74 307 134 q 275 26 308 56 l 272 24 z "},"»":{"ha":668,"x_min":104,"x_max":526,"o":"m 393 578 q 488 383 424 512 q 526 306 513 332 q 413 179 472 247 q 292 36 353 111 l 275 68 l 326 146 q 369 205 339 164 q 437 297 399 246 q 375 431 400 375 q 330 530 349 487 q 360 551 345 540 q 393 578 375 563 m 200 578 q 278 421 245 486 q 339 304 311 357 q 220 163 271 227 q 125 43 168 100 l 104 74 l 140 125 q 256 293 214 234 q 193 415 222 356 q 138 530 163 473 q 172 552 156 541 q 200 578 187 564 z "},"…":{"ha":1389,"x_min":117,"x_max":1250,"o":"m 214 -11 q 156 51 180 21 q 117 110 132 80 q 179 172 149 144 q 237 216 210 199 q 278 151 257 181 q 323 94 300 121 q 269 34 296 60 q 214 -11 241 7 m 676 -11 q 618 51 642 21 q 579 110 595 80 q 642 172 611 144 q 700 216 673 199 q 741 151 720 181 q 786 94 762 121 q 731 34 758 60 q 676 -11 704 7 m 1140 -11 q 1082 51 1106 21 q 1043 110 1059 80 q 1106 172 1075 144 q 1164 216 1137 199 q 1205 151 1183 181 q 1250 94 1226 121 q 1195 34 1222 60 q 1140 -11 1168 7 z "}," ":{"ha":694,"x_min":0,"x_max":0,"o":""},"À":{"ha":854,"x_min":-146,"x_max":939,"o":"m 537 364 q 461 639 517 427 l 444 701 l 272 368 q 333 362 302 364 q 396 359 364 359 q 452 360 416 359 q 537 364 487 361 m 542 842 q 593 645 570 727 q 635 501 616 562 l 732 191 q 798 72 760 103 q 911 40 836 40 q 924 41 915 40 q 939 41 934 41 l 921 8 q 837 -2 881 3 q 742 -9 793 -6 l 685 -14 q 560 285 644 -10 l 553 311 q 376 307 458 309 q 239 301 294 304 q 175 174 203 235 q 125 58 146 112 q 174 54 142 57 q 265 47 237 48 l 218 0 q 117 6 168 4 q 16 8 66 8 q -74 6 -37 8 q -146 0 -112 4 l -94 47 q -37 53 -71 50 q 7 59 -4 57 q 98 197 48 116 q 210 387 147 277 l 437 791 q 455 813 446 806 q 482 825 465 821 l 542 842 m 575 890 q 452 991 507 943 q 353 1089 397 1040 l 445 1121 q 524 1015 483 1067 q 612 910 566 962 l 575 890 z "},"Ã":{"ha":854,"x_min":-146,"x_max":939,"o":"m 537 364 q 461 639 517 427 l 444 701 l 272 368 q 333 362 302 364 q 396 359 364 359 q 452 360 416 359 q 537 364 487 361 m 542 842 q 593 645 570 727 q 635 501 616 562 l 732 191 q 798 72 760 103 q 911 40 836 40 q 924 41 915 40 q 939 41 934 41 l 921 8 q 837 -2 881 3 q 742 -9 793 -6 l 685 -14 q 560 285 644 -10 l 553 311 q 376 307 458 309 q 239 301 294 304 q 175 174 203 235 q 125 58 146 112 q 174 54 142 57 q 265 47 237 48 l 218 0 q 117 6 168 4 q 16 8 66 8 q -74 6 -37 8 q -146 0 -112 4 l -94 47 q -37 53 -71 50 q 7 59 -4 57 q 98 197 48 116 q 210 387 147 277 l 437 791 q 455 813 446 806 q 482 825 465 821 l 542 842 m 326 961 l 382 1004 q 429 1033 408 1024 q 469 1042 450 1042 q 491 1039 479 1042 q 518 1032 504 1037 l 569 1017 q 590 1011 579 1013 q 610 1010 600 1010 q 637 1016 623 1010 q 670 1036 652 1023 l 714 1072 l 730 1046 l 663 975 q 625 948 646 958 q 579 939 604 939 q 557 941 570 939 q 532 947 545 943 l 479 964 q 443 976 452 973 q 429 978 434 978 q 406 973 419 978 q 378 958 393 968 l 345 935 l 326 961 z "},"Õ":{"ha":990,"x_min":49,"x_max":942,"o":"m 49 368 q 183 722 49 591 q 546 852 317 852 q 838 750 734 852 q 942 464 942 648 q 809 107 942 237 q 446 -24 676 -24 q 153 79 258 -24 q 49 368 49 182 m 503 808 q 285 699 365 808 q 205 399 205 590 q 282 122 205 221 q 497 24 359 24 q 708 133 632 24 q 785 437 785 243 q 710 710 785 612 q 503 808 635 808 m 367 961 l 424 1004 q 471 1033 450 1024 q 510 1042 492 1042 q 533 1039 520 1042 q 559 1032 545 1037 l 610 1017 q 631 1011 621 1013 q 652 1010 642 1010 q 679 1016 664 1010 q 711 1036 693 1023 l 755 1072 l 771 1046 l 704 975 q 666 948 688 958 q 621 939 645 939 q 599 941 611 939 q 574 947 587 943 l 521 964 q 484 976 493 973 q 471 978 475 978 q 447 973 460 978 q 419 958 434 968 l 386 935 l 367 961 z "},"Œ":{"ha":1357,"x_min":50,"x_max":1311,"o":"m 642 68 q 654 228 645 117 q 668 400 664 340 l 673 487 q 683 640 680 572 q 686 754 686 707 q 601 789 642 778 q 522 800 561 800 q 290 687 373 800 q 207 368 207 573 q 283 118 207 205 q 501 31 359 31 q 568 40 533 31 q 642 68 603 49 m 843 829 q 1060 835 964 829 q 1222 851 1156 840 q 1255 817 1242 836 q 1274 772 1268 797 l 1181 671 q 1133 744 1156 720 q 1083 774 1110 768 q 1030 778 1065 776 q 953 779 995 779 l 907 779 l 831 778 q 818 612 823 690 q 810 465 813 533 q 833 460 820 462 q 873 458 846 458 l 1089 456 l 1051 414 l 856 403 l 854 403 q 806 393 823 400 q 792 231 797 315 q 785 53 787 146 q 801 52 790 53 q 908 50 875 50 q 1043 62 996 50 q 1117 100 1090 73 q 1196 205 1156 140 q 1278 366 1236 271 l 1311 342 q 1271 176 1290 263 q 1234 -8 1252 89 q 1176 -3 1208 -5 q 1078 -1 1143 -1 l 1019 -1 q 951 -1 993 -1 q 893 0 909 0 l 839 0 q 615 -6 741 0 q 458 -12 488 -12 q 153 81 256 -12 q 50 355 50 174 q 84 551 50 461 q 183 708 118 641 q 326 804 243 770 q 498 838 408 838 q 636 833 530 838 q 815 829 742 829 l 843 829 z "},"œ":{"ha":928,"x_min":29,"x_max":947,"o":"m 550 294 l 632 340 q 728 411 702 380 q 754 481 754 442 q 737 538 754 517 q 689 558 720 558 q 590 486 630 558 q 550 300 550 414 l 550 294 m 947 154 l 946 109 q 756 12 835 43 q 625 -20 678 -20 q 523 6 567 -20 q 454 79 478 32 q 321 2 374 24 q 222 -20 268 -20 q 78 49 127 -20 q 29 252 29 117 q 49 402 29 341 q 109 498 68 464 q 248 591 177 557 q 374 624 318 624 q 466 600 427 624 q 533 528 506 576 q 668 600 608 576 q 774 624 728 624 q 858 595 826 624 q 890 519 890 566 q 870 448 890 477 q 786 380 850 419 l 695 328 l 689 325 q 554 244 612 281 q 607 127 562 170 q 722 85 652 85 q 806 99 758 85 q 947 154 854 113 m 164 325 q 200 125 164 197 q 298 53 235 53 q 395 111 361 53 q 429 275 429 170 q 396 480 429 410 q 298 551 362 551 q 199 493 234 551 q 164 325 164 434 z "},"–":{"ha":694,"x_min":-25,"x_max":701,"o":"m -25 260 l 11 345 l 701 345 l 669 260 l -25 260 z "},"—":{"ha":1389,"x_min":-26,"x_max":1397,"o":"m -26 260 l 9 345 l 1397 345 l 1365 260 l -26 260 z "},"“":{"ha":533,"x_min":78,"x_max":505,"o":"m 465 851 l 505 838 q 427 724 453 777 q 401 619 401 670 q 408 554 401 593 q 428 467 415 515 l 315 425 q 299 520 304 476 q 293 600 293 564 q 330 713 293 657 q 465 851 368 768 m 260 851 l 301 838 q 215 718 242 771 q 187 614 187 665 q 191 552 187 589 q 203 461 195 515 l 93 424 q 82 499 85 462 q 78 572 78 536 q 116 700 78 640 q 260 851 153 760 z "},"”":{"ha":533,"x_min":36,"x_max":467,"o":"m 296 403 l 256 416 q 334 537 309 480 q 359 647 359 594 q 353 715 359 675 q 334 808 347 755 l 446 851 q 461 755 456 802 q 467 668 467 709 q 429 547 467 607 q 296 403 391 487 m 78 424 l 36 437 q 123 557 96 503 q 150 660 150 610 q 147 718 150 682 q 138 808 144 755 l 245 851 q 256 780 253 817 q 260 703 260 743 q 222 575 260 635 q 78 424 184 515 z "},"‘":{"ha":347,"x_min":100,"x_max":304,"o":"m 260 851 l 304 846 q 229 723 252 774 q 205 629 205 672 q 211 559 205 603 q 229 447 217 515 q 168 418 195 431 q 121 397 140 406 q 105 503 111 452 q 100 602 100 553 q 137 707 100 649 q 260 851 174 765 z "},"’":{"ha":347,"x_min":72,"x_max":271,"o":"m 111 397 l 72 411 q 145 532 124 486 q 165 614 165 578 q 160 684 165 639 q 142 800 154 730 q 198 828 170 815 q 250 851 225 842 q 266 747 260 797 q 271 648 271 696 q 233 541 271 600 q 111 397 196 482 z "},"÷":{"ha":1157,"x_min":172,"x_max":985,"o":"m 579 249 q 639 224 614 249 q 664 164 664 199 q 639 104 664 129 q 579 79 614 79 q 519 104 543 79 q 494 164 494 128 q 519 224 494 199 q 579 249 545 249 m 172 461 l 985 461 l 985 367 l 172 367 l 172 461 m 579 750 q 639 725 614 750 q 664 664 664 699 q 639 604 664 629 q 579 579 614 579 q 519 604 544 579 q 494 664 494 629 q 519 725 494 699 q 579 750 545 750 z "},"◊":{"ha":686,"x_min":4,"x_max":682,"o":"m 343 956 l 82 401 l 343 -158 l 604 401 l 343 956 m 343 1121 l 682 401 l 343 -323 l 4 401 l 343 1121 z "},"ÿ":{"ha":614,"x_min":-182,"x_max":590,"o":"m -182 -415 l -131 -310 q -51 -320 -80 -317 q -3 -323 -22 -323 q 129 -269 72 -323 q 240 -87 185 -214 q 199 88 218 11 q 167 212 180 165 l 144 290 q 86 459 108 418 q 37 500 64 500 q 6 494 28 500 q -56 473 -16 488 l -54 510 q 79 584 31 559 q 159 621 127 608 q 174 616 168 620 q 188 606 181 613 q 241 420 210 553 l 241 419 l 261 339 q 291 215 269 309 q 329 57 313 121 l 382 147 q 444 281 422 216 q 465 397 465 347 q 452 476 465 437 q 412 554 439 514 q 464 593 433 574 q 536 631 495 612 q 576 561 563 597 q 590 486 590 524 q 481 235 590 418 q 424 136 444 172 l 271 -131 q 186 -275 222 -216 q 139 -347 151 -333 q 59 -417 96 -399 q -40 -435 21 -435 q -100 -430 -64 -435 q -182 -415 -136 -425 m 376 783 q 419 824 395 806 q 470 859 443 843 q 511 808 495 827 q 542 774 527 789 q 496 739 527 762 q 450 704 465 716 q 411 742 430 722 q 376 783 393 762 m 163 778 q 207 818 184 800 q 254 848 229 835 q 326 770 279 821 l 328 768 q 285 731 308 749 q 238 697 262 713 q 196 734 214 714 q 163 778 177 754 z "},"Ÿ":{"ha":823,"x_min":-46,"x_max":909,"o":"m 96 0 l 142 43 q 232 56 202 52 q 288 62 262 60 q 313 280 304 187 q 321 437 321 374 q 265 670 321 589 q 107 751 210 751 q 52 742 83 751 q -43 705 20 733 l -46 736 q 104 823 -2 763 l 147 847 q 176 849 157 847 q 203 851 194 851 q 385 765 323 851 q 447 513 447 679 q 445 450 447 492 q 444 443 445 446 q 628 747 536 643 q 804 851 720 851 q 857 844 831 851 q 909 822 883 837 l 859 700 q 807 719 831 713 q 761 725 783 725 q 654 688 705 725 q 558 576 604 651 q 464 352 494 471 q 435 77 435 233 l 435 64 q 519 53 463 61 q 602 43 575 45 l 570 0 q 475 2 526 1 q 326 3 425 3 q 183 2 230 3 q 96 0 136 1 m 507 1011 q 549 1052 526 1034 q 600 1086 573 1071 q 641 1036 625 1055 q 672 1002 657 1017 q 626 967 657 989 q 581 932 595 944 q 542 969 560 949 q 507 1011 523 989 m 293 1006 q 337 1045 314 1028 q 385 1076 359 1063 q 456 998 409 1048 l 458 996 q 415 959 438 977 q 368 925 393 941 q 326 962 345 942 q 293 1006 307 982 z "},"∕":{"ha":232,"x_min":-268,"x_max":450,"o":"m 450 885 q 306 673 379 787 q 161 437 233 560 l -28 113 q -117 -37 -77 29 q -186 -147 -157 -102 l -268 -147 q -125 63 -198 -50 q 21 300 -52 176 l 210 625 q 302 779 264 718 q 370 885 339 839 l 450 885 z "},"¤":{"ha":694,"x_min":4,"x_max":690,"o":"m 690 689 q 642 626 675 668 q 593 564 608 583 l 581 570 l 581 575 q 554 761 581 708 q 465 814 528 814 q 340 736 389 814 q 275 513 292 658 l 549 513 l 530 471 l 271 471 q 271 462 271 468 q 268 403 268 418 l 268 361 l 484 361 l 465 319 l 271 319 q 330 118 281 184 q 468 52 379 52 q 566 70 505 52 q 673 115 626 89 l 657 77 q 513 0 574 23 q 390 -22 452 -22 q 199 68 271 -22 q 121 319 128 158 l 4 319 l 22 361 l 121 361 q 123 416 121 389 q 129 471 125 444 l 32 471 l 49 513 l 138 513 q 263 763 172 673 q 489 852 354 852 q 642 812 593 852 q 690 689 690 772 z "},"‹":{"ha":460,"x_min":119,"x_max":358,"o":"m 119 313 q 238 452 184 388 q 339 578 291 517 l 358 542 q 291 441 330 496 q 205 322 253 386 l 216 300 q 317 78 283 151 q 286 49 302 62 q 250 26 269 36 q 186 172 218 101 q 119 313 153 243 z "},"›":{"ha":460,"x_min":97,"x_max":336,"o":"m 336 292 q 246 186 296 247 q 117 26 196 125 l 97 62 q 164 163 126 109 q 250 282 202 218 q 197 391 224 333 q 136 526 170 450 q 161 545 145 533 q 204 578 193 568 q 264 443 232 513 q 336 292 296 373 z "},"":{"ha":714,"x_min":-227,"x_max":771,"o":"m -171 -309 q -101 -319 -131 -315 q -50 -322 -71 -322 q 10 -312 -13 -322 q 45 -282 33 -302 q 87 -12 75 -227 q 90 50 89 28 l 100 224 q 109 384 102 260 q 115 504 113 459 l -29 510 l 25 557 l 122 558 l 126 639 q 144 762 131 724 q 184 831 157 800 q 336 955 253 907 q 484 1003 420 1003 q 538 997 507 1003 q 611 981 570 991 l 549 885 q 475 909 507 901 q 415 917 442 917 q 299 874 330 917 q 257 657 267 831 l 252 555 l 330 555 q 455 572 394 555 q 576 621 515 588 q 590 617 583 620 q 603 608 596 614 q 604 584 603 601 q 604 558 604 568 q 603 497 604 527 q 599 439 602 468 l 589 321 q 585 257 586 286 q 583 212 583 229 q 597 136 583 159 q 642 114 610 114 q 689 126 662 114 q 771 172 716 138 l 771 131 q 638 42 703 79 q 511 -18 573 5 q 490 -12 499 -16 q 473 -3 480 -8 q 449 63 457 34 q 441 117 441 93 q 447 192 441 142 q 454 260 453 241 l 464 374 q 466 405 465 388 q 467 454 467 422 q 455 499 467 488 q 404 510 444 510 q 385 509 398 510 q 364 509 372 509 l 248 504 l 218 89 q 216 68 218 82 q 147 -232 201 -155 q 9 -372 82 -323 q -134 -421 -63 -421 q -171 -417 -150 -420 q -227 -407 -193 -414 l -171 -309 z "},"":{"ha":758,"x_min":-227,"x_max":839,"o":"m -171 -309 q -101 -319 -131 -315 q -50 -322 -71 -322 q 10 -312 -13 -322 q 45 -282 33 -302 q 87 0 74 -227 q 90 50 90 33 l 100 223 q 107 339 101 241 q 115 504 113 436 l -29 510 l 25 555 l 122 557 l 126 639 q 144 761 131 725 q 187 831 158 798 q 339 957 260 911 q 481 1003 418 1003 q 565 993 524 1003 q 642 964 605 983 q 675 981 659 973 q 712 997 692 989 q 776 992 745 996 q 839 979 808 987 l 779 901 q 716 914 745 909 q 668 918 687 918 q 613 783 624 918 q 611 753 612 763 l 597 585 q 584 398 589 475 q 579 289 579 321 q 605 165 579 215 q 664 115 631 115 q 723 134 686 115 q 823 196 761 153 l 823 154 q 702 66 768 109 q 558 -17 635 23 q 532 -16 544 -17 q 510 -11 520 -14 q 458 92 475 37 q 440 207 440 146 q 444 287 440 232 q 447 325 446 312 l 465 550 q 469 592 467 565 q 533 886 491 865 q 461 908 495 901 q 399 916 427 916 q 296 871 325 916 q 257 657 267 827 l 252 555 l 431 555 q 400 526 415 536 q 370 510 386 515 l 248 504 l 218 90 q 215 43 217 72 q 211 -16 211 -9 q 189 -149 211 -85 q 129 -254 167 -213 l 123 -260 q -134 -421 -26 -421 q -171 -417 -150 -420 q -227 -407 -193 -414 l -171 -309 z "},"‡":{"ha":616,"x_min":60,"x_max":543,"o":"m 249 412 q 254 481 251 444 q 264 591 257 517 l 229 591 q 132 590 202 591 q 103 589 113 589 q 114 633 105 614 q 140 665 123 652 l 172 665 q 224 667 201 665 q 267 671 247 668 q 270 723 269 698 q 271 772 271 748 q 270 801 271 783 q 269 827 269 819 q 325 842 298 837 q 378 848 352 848 q 368 762 371 805 q 364 675 364 718 q 485 674 450 675 q 543 673 519 674 q 520 627 534 647 q 490 593 507 606 q 427 596 459 595 q 363 597 395 597 q 362 589 362 595 q 350 422 357 505 q 297 420 323 422 q 249 412 272 417 m 224 -51 l 226 -22 q 239 136 237 98 q 142 135 187 136 q 60 132 98 134 l 102 220 q 109 218 104 219 q 175 214 154 214 q 204 215 189 214 q 243 220 220 216 q 246 271 245 245 q 248 321 248 296 l 248 353 q 300 361 275 358 q 350 365 326 364 q 342 295 345 334 q 338 216 338 257 q 381 214 352 215 q 424 214 410 214 q 464 214 437 214 q 504 215 491 215 q 484 169 496 188 q 456 138 472 150 q 429 140 443 139 q 389 140 415 140 q 355 140 366 140 q 335 138 344 139 q 328 52 331 97 q 322 -39 324 7 l 224 -51 z "},"·":{"ha":347,"x_min":69,"x_max":277,"o":"m 167 294 q 110 354 134 323 q 69 415 85 385 l 191 522 q 231 456 210 486 q 277 400 252 426 q 221 339 248 366 q 167 294 194 313 z "},"‚":{"ha":347,"x_min":1,"x_max":224,"o":"m 40 -195 l 1 -179 q 83 -58 56 -116 q 110 54 110 -1 q 107 127 110 91 q 100 203 105 164 l 207 248 q 220 166 216 204 q 224 96 224 129 q 183 -40 224 26 q 40 -195 142 -105 z "},"„":{"ha":533,"x_min":-20,"x_max":411,"o":"m 240 -201 l 200 -187 q 282 -65 258 -115 q 307 26 307 -15 q 301 91 307 50 q 281 197 294 131 l 390 248 q 406 150 401 194 q 411 71 411 106 q 372 -59 411 3 q 240 -201 333 -121 m 22 -176 l -20 -163 q 64 -47 36 -103 q 92 62 92 9 q 89 133 92 98 q 82 204 87 168 l 189 247 q 200 170 197 208 q 204 97 204 133 q 164 -30 204 31 q 22 -176 125 -90 z "},"‰":{"ha":1379,"x_min":50,"x_max":1328,"o":"m 681 395 q 609 343 637 395 q 582 204 582 291 q 604 76 582 121 q 668 31 627 31 q 740 80 715 31 q 765 220 765 129 q 744 352 765 309 q 681 395 724 395 m 475 171 q 489 275 475 232 q 533 346 504 319 q 632 419 585 395 q 721 443 679 443 q 833 392 792 443 q 873 253 873 342 q 860 150 873 192 q 817 78 846 107 q 720 5 768 31 q 628 -20 671 -20 q 516 32 557 -20 q 475 171 475 83 m 1133 395 q 1062 343 1089 395 q 1035 204 1035 291 q 1058 76 1035 121 q 1122 31 1080 31 q 1193 79 1168 31 q 1218 220 1218 128 q 1197 352 1218 309 q 1133 395 1177 395 m 928 171 q 942 275 928 232 q 986 346 957 319 q 1085 419 1038 395 q 1174 443 1132 443 q 1286 392 1245 443 q 1328 253 1328 341 q 1314 150 1328 192 q 1271 78 1300 107 q 1174 6 1223 31 q 1080 -20 1124 -20 q 969 32 1010 -20 q 928 171 928 83 m 663 803 q 603 787 635 792 q 530 782 571 782 q 485 783 515 782 q 412 786 454 784 q 442 725 432 756 q 452 657 452 694 q 436 552 452 597 q 392 478 421 507 q 295 406 343 431 q 203 380 246 380 q 91 432 132 380 q 50 572 50 484 q 64 676 50 633 q 107 746 79 720 q 203 818 157 793 q 288 842 249 842 q 375 835 319 842 q 456 828 431 828 q 577 833 528 828 q 644 848 627 839 q 683 884 661 857 q 748 975 705 911 q 773 958 759 964 q 807 953 787 953 q 833 955 816 953 q 838 956 836 956 q 672 704 777 876 q 642 654 652 671 l 460 355 q 260 -6 337 154 q 174 -237 184 -166 l 107 -139 q 339 265 163 -24 l 372 319 l 524 570 l 531 582 q 663 803 595 688 m 256 794 q 184 743 212 794 q 157 604 157 691 q 180 476 157 521 q 244 431 203 431 q 315 480 290 431 q 340 621 340 530 q 320 752 340 709 q 256 794 299 794 z "},"Â":{"ha":854,"x_min":-146,"x_max":939,"o":"m 537 364 q 461 639 517 427 l 444 701 l 272 368 q 333 362 302 364 q 396 359 364 359 q 452 360 416 359 q 537 364 487 361 m 542 842 q 593 645 570 727 q 635 501 616 562 l 732 191 q 798 72 760 103 q 911 40 836 40 q 924 41 915 40 q 939 41 934 41 l 921 8 q 837 -2 881 3 q 742 -9 793 -6 l 685 -14 q 560 285 644 -10 l 553 311 q 376 307 458 309 q 239 301 294 304 q 175 174 203 235 q 125 58 146 112 q 174 54 142 57 q 265 47 237 48 l 218 0 q 117 6 168 4 q 16 8 66 8 q -74 6 -37 8 q -146 0 -112 4 l -94 47 q -37 53 -71 50 q 7 59 -4 57 q 98 197 48 116 q 210 387 147 277 l 437 791 q 455 813 446 806 q 482 825 465 821 l 542 842 m 340 920 q 414 1000 376 959 q 495 1082 453 1040 l 514 1103 q 532 1114 522 1110 q 556 1118 543 1118 l 588 1113 q 629 1011 610 1059 q 661 918 648 962 l 607 889 q 565 975 585 937 q 528 1042 545 1013 q 462 985 498 1016 q 355 890 427 954 l 340 920 z "},"Ê":{"ha":829,"x_min":-39,"x_max":785,"o":"m 283 465 q 306 460 293 462 q 347 458 319 458 l 562 456 l 525 414 l 329 403 l 328 403 q 279 393 297 400 q 266 232 271 317 q 258 53 260 147 q 275 52 264 53 q 382 50 349 50 q 516 62 469 50 q 590 100 564 73 q 670 205 630 140 q 751 366 709 271 l 785 342 q 745 176 764 263 q 708 -8 726 89 q 643 -2 679 -4 q 551 0 606 0 l 292 0 l -39 0 l 12 45 q 260 65 176 58 l 114 53 q 126 197 121 123 q 142 400 132 271 l 147 488 q 158 660 155 591 q 161 779 161 729 q 94 786 124 782 q 35 795 63 789 l 77 829 l 260 829 q 520 835 412 829 q 696 851 629 840 q 727 815 714 835 q 747 772 741 795 l 654 671 q 618 731 637 707 q 583 764 600 755 q 535 777 567 772 q 452 781 504 781 l 380 781 l 304 781 q 292 610 297 690 q 283 465 286 531 m 248 920 q 322 1000 283 959 q 403 1082 361 1040 l 422 1103 q 440 1114 429 1110 q 464 1118 450 1118 l 496 1113 q 537 1011 518 1059 q 569 918 555 962 l 515 889 q 473 975 492 937 q 436 1042 453 1013 q 370 985 406 1016 q 262 890 334 954 l 248 920 z "},"Á":{"ha":854,"x_min":-146,"x_max":939,"o":"m 537 364 q 461 639 517 427 l 444 701 l 272 368 q 333 362 302 364 q 396 359 364 359 q 452 360 416 359 q 537 364 487 361 m 542 842 q 593 645 570 727 q 635 501 616 562 l 732 191 q 798 72 760 103 q 911 40 836 40 q 924 41 915 40 q 939 41 934 41 l 921 8 q 837 -2 881 3 q 742 -9 793 -6 l 685 -14 q 560 285 644 -10 l 553 311 q 376 307 458 309 q 239 301 294 304 q 175 174 203 235 q 125 58 146 112 q 174 54 142 57 q 265 47 237 48 l 218 0 q 117 6 168 4 q 16 8 66 8 q -74 6 -37 8 q -146 0 -112 4 l -94 47 q -37 53 -71 50 q 7 59 -4 57 q 98 197 48 116 q 210 387 147 277 l 437 791 q 455 813 446 806 q 482 825 465 821 l 542 842 m 429 903 l 602 1120 l 701 1090 q 568 974 645 1042 q 475 890 492 905 l 429 903 z "},"Ë":{"ha":829,"x_min":-39,"x_max":785,"o":"m 283 465 q 306 460 293 462 q 347 458 319 458 l 562 456 l 525 414 l 329 403 l 328 403 q 279 393 297 400 q 266 232 271 317 q 258 53 260 147 q 275 52 264 53 q 382 50 349 50 q 516 62 469 50 q 590 100 564 73 q 670 205 630 140 q 751 366 709 271 l 785 342 q 745 176 764 263 q 708 -8 726 89 q 643 -2 679 -4 q 551 0 606 0 l 292 0 l -39 0 l 12 45 q 260 65 176 58 l 114 53 q 126 197 121 123 q 142 400 132 271 l 147 488 q 158 660 155 591 q 161 779 161 729 q 94 786 124 782 q 35 795 63 789 l 77 829 l 260 829 q 520 835 412 829 q 696 851 629 840 q 727 815 714 835 q 747 772 741 795 l 654 671 q 618 731 637 707 q 583 764 600 755 q 535 777 567 772 q 452 781 504 781 l 380 781 l 304 781 q 292 610 297 690 q 283 465 286 531 m 456 1011 q 499 1052 475 1034 q 550 1086 523 1071 q 591 1036 575 1055 q 622 1002 607 1017 q 576 967 607 989 q 530 932 545 944 q 491 969 510 949 q 456 1011 473 989 m 243 1006 q 287 1045 264 1028 q 334 1076 309 1063 q 406 998 359 1048 l 408 996 q 365 959 388 977 q 318 925 342 941 q 276 962 294 942 q 243 1006 257 982 z "},"È":{"ha":829,"x_min":-39,"x_max":785,"o":"m 283 465 q 306 460 293 462 q 347 458 319 458 l 562 456 l 525 414 l 329 403 l 328 403 q 279 393 297 400 q 266 232 271 317 q 258 53 260 147 q 275 52 264 53 q 382 50 349 50 q 516 62 469 50 q 590 100 564 73 q 670 205 630 140 q 751 366 709 271 l 785 342 q 745 176 764 263 q 708 -8 726 89 q 643 -2 679 -4 q 551 0 606 0 l 292 0 l -39 0 l 12 45 q 260 65 176 58 l 114 53 q 126 197 121 123 q 142 400 132 271 l 147 488 q 158 660 155 591 q 161 779 161 729 q 94 786 124 782 q 35 795 63 789 l 77 829 l 260 829 q 520 835 412 829 q 696 851 629 840 q 727 815 714 835 q 747 772 741 795 l 654 671 q 618 731 637 707 q 583 764 600 755 q 535 777 567 772 q 452 781 504 781 l 380 781 l 304 781 q 292 610 297 690 q 283 465 286 531 m 483 890 q 360 991 415 943 q 261 1089 305 1040 l 353 1121 q 432 1015 391 1067 q 519 910 473 962 l 483 890 z "},"Í":{"ha":421,"x_min":-39,"x_max":459,"o":"m 304 775 q 291 594 298 696 q 282 473 283 491 l 273 350 q 267 235 270 298 q 258 56 263 172 q 334 50 284 54 q 407 45 383 46 l 364 0 l 356 0 q 143 5 214 5 q -35 0 83 5 l -39 0 l 12 44 q 64 50 29 46 q 114 56 98 54 q 130 240 123 158 q 142 400 136 323 l 147 488 q 158 656 155 589 q 161 775 161 724 q 95 782 127 778 q 34 792 62 787 l 77 829 q 176 826 127 827 q 273 825 225 825 q 368 826 321 825 q 459 829 414 827 l 421 791 q 369 782 398 787 q 304 775 339 778 m 186 903 l 358 1120 l 457 1090 q 325 974 401 1042 q 232 890 248 905 l 186 903 z "},"Î":{"ha":421,"x_min":-39,"x_max":459,"o":"m 304 775 q 291 594 298 696 q 282 473 283 491 l 273 350 q 267 235 270 298 q 258 56 263 172 q 334 50 284 54 q 407 45 383 46 l 364 0 l 356 0 q 143 5 214 5 q -35 0 83 5 l -39 0 l 12 44 q 64 50 29 46 q 114 56 98 54 q 130 240 123 158 q 142 400 136 323 l 147 488 q 158 656 155 589 q 161 775 161 724 q 95 782 127 778 q 34 792 62 787 l 77 829 q 176 826 127 827 q 273 825 225 825 q 368 826 321 825 q 459 829 414 827 l 421 791 q 369 782 398 787 q 304 775 339 778 m 97 920 q 171 1000 132 959 q 252 1082 210 1040 l 271 1103 q 289 1114 278 1110 q 313 1118 299 1118 l 345 1113 q 386 1011 367 1059 q 418 918 404 962 l 363 889 q 321 975 341 937 q 285 1042 302 1013 q 219 985 254 1016 q 111 890 183 954 l 97 920 z "},"Ï":{"ha":421,"x_min":-39,"x_max":471,"o":"m 304 775 q 291 594 298 696 q 282 473 283 491 l 273 350 q 267 235 270 298 q 258 56 263 172 q 334 50 284 54 q 407 45 383 46 l 364 0 l 356 0 q 143 5 214 5 q -35 0 83 5 l -39 0 l 12 44 q 64 50 29 46 q 114 56 98 54 q 130 240 123 158 q 142 400 136 323 l 147 488 q 158 656 155 589 q 161 775 161 724 q 95 782 127 778 q 34 792 62 787 l 77 829 q 176 826 127 827 q 273 825 225 825 q 368 826 321 825 q 459 829 414 827 l 421 791 q 369 782 398 787 q 304 775 339 778 m 305 1011 q 348 1052 324 1034 q 399 1086 372 1071 q 440 1036 424 1055 q 471 1002 456 1017 q 425 967 456 989 q 379 932 394 944 q 340 969 359 949 q 305 1011 321 989 m 92 1006 q 135 1045 113 1028 q 183 1076 158 1063 q 255 998 208 1048 l 256 996 q 214 959 237 977 q 167 925 191 941 q 124 962 143 942 q 92 1006 106 982 z "},"Ì":{"ha":421,"x_min":-39,"x_max":459,"o":"m 304 775 q 291 594 298 696 q 282 473 283 491 l 273 350 q 267 235 270 298 q 258 56 263 172 q 334 50 284 54 q 407 45 383 46 l 364 0 l 356 0 q 143 5 214 5 q -35 0 83 5 l -39 0 l 12 44 q 64 50 29 46 q 114 56 98 54 q 130 240 123 158 q 142 400 136 323 l 147 488 q 158 656 155 589 q 161 775 161 724 q 95 782 127 778 q 34 792 62 787 l 77 829 q 176 826 127 827 q 273 825 225 825 q 368 826 321 825 q 459 829 414 827 l 421 791 q 369 782 398 787 q 304 775 339 778 m 332 890 q 209 991 264 943 q 110 1089 154 1040 l 201 1121 q 281 1015 239 1067 q 368 910 322 962 l 332 890 z "},"Ó":{"ha":990,"x_min":49,"x_max":942,"o":"m 49 368 q 183 722 49 591 q 546 852 317 852 q 838 750 734 852 q 942 464 942 648 q 809 107 942 237 q 446 -24 676 -24 q 153 79 258 -24 q 49 368 49 182 m 503 808 q 285 699 365 808 q 205 399 205 590 q 282 122 205 221 q 497 24 359 24 q 708 133 632 24 q 785 437 785 243 q 710 710 785 612 q 503 808 635 808 m 471 903 l 643 1120 l 742 1090 q 610 974 686 1042 q 517 890 533 905 l 471 903 z "},"Ô":{"ha":990,"x_min":49,"x_max":942,"o":"m 49 368 q 183 722 49 591 q 546 852 317 852 q 838 750 734 852 q 942 464 942 648 q 809 107 942 237 q 446 -24 676 -24 q 153 79 258 -24 q 49 368 49 182 m 503 808 q 285 699 365 808 q 205 399 205 590 q 282 122 205 221 q 497 24 359 24 q 708 133 632 24 q 785 437 785 243 q 710 710 785 612 q 503 808 635 808 m 382 920 q 456 1000 417 959 q 536 1082 494 1040 l 555 1103 q 573 1114 563 1110 q 597 1118 584 1118 l 629 1113 q 670 1011 652 1059 q 703 918 689 962 l 648 889 q 606 975 626 937 q 570 1042 587 1013 q 504 985 539 1016 q 396 890 468 954 l 382 920 z "},"":{"ha":1097,"x_min":77,"x_max":1021,"o":"m 567 825 q 566 834 566 829 q 566 850 566 840 q 630 1005 566 934 q 790 1095 694 1077 q 791 1079 791 1088 q 791 1053 791 1070 q 721 893 791 964 q 583 823 651 823 l 578 823 q 573 824 576 823 q 567 825 570 825 m 1021 273 q 882 41 943 106 q 743 -24 820 -24 q 654 -1 709 -24 q 571 21 599 21 q 482 -1 541 21 q 396 -24 424 -24 q 309 6 353 -24 q 221 96 265 36 q 114 296 152 191 q 77 500 77 401 q 161 742 77 648 q 380 835 246 835 q 486 812 427 835 q 570 789 545 789 q 652 812 593 789 q 755 836 711 836 q 890 809 830 836 q 999 725 949 782 q 896 626 930 681 q 863 503 863 572 q 903 367 863 426 q 1021 273 944 308 z "},"Ò":{"ha":990,"x_min":49,"x_max":942,"o":"m 49 368 q 183 722 49 591 q 546 852 317 852 q 838 750 734 852 q 942 464 942 648 q 809 107 942 237 q 446 -24 676 -24 q 153 79 258 -24 q 49 368 49 182 m 503 808 q 285 699 365 808 q 205 399 205 590 q 282 122 205 221 q 497 24 359 24 q 708 133 632 24 q 785 437 785 243 q 710 710 785 612 q 503 808 635 808 m 616 890 q 494 991 549 943 q 395 1089 439 1040 l 486 1121 q 566 1015 524 1067 q 653 910 607 962 l 616 890 z "},"Ú":{"ha":1003,"x_min":2,"x_max":1043,"o":"m 700 100 q 494 38 621 78 q 265 -18 315 -18 q 153 22 193 -18 q 114 138 114 63 q 122 267 114 170 q 127 336 126 312 l 138 446 q 144 522 140 473 q 161 774 159 708 q 77 780 117 777 q 2 789 37 784 l 43 829 l 218 829 l 326 829 l 379 829 q 350 801 366 811 q 318 789 334 791 q 300 662 309 727 q 283 525 292 597 l 277 456 q 267 350 271 401 q 264 260 264 300 q 301 122 264 170 q 408 74 338 74 q 506 89 446 74 q 704 151 566 104 q 724 412 713 274 q 726 450 726 440 l 733 561 q 737 621 734 581 q 745 775 745 721 q 625 787 704 780 l 611 789 l 664 829 l 1022 829 l 989 789 q 941 780 965 783 q 892 777 916 777 q 880 662 886 718 q 871 551 875 606 l 863 441 q 853 294 857 365 q 850 168 850 222 q 856 102 850 127 q 873 66 862 76 q 981 50 888 54 q 1043 47 1020 49 l 1018 5 q 922 -3 985 3 q 739 -18 791 -16 q 705 -5 715 -18 q 696 40 696 8 q 697 67 696 52 q 700 100 698 81 m 477 903 l 650 1120 l 749 1090 q 616 974 693 1042 q 524 890 540 905 l 477 903 z "},"Û":{"ha":1003,"x_min":2,"x_max":1043,"o":"m 700 100 q 494 38 621 78 q 265 -18 315 -18 q 153 22 193 -18 q 114 138 114 63 q 122 267 114 170 q 127 336 126 312 l 138 446 q 144 522 140 473 q 161 774 159 708 q 77 780 117 777 q 2 789 37 784 l 43 829 l 218 829 l 326 829 l 379 829 q 350 801 366 811 q 318 789 334 791 q 300 662 309 727 q 283 525 292 597 l 277 456 q 267 350 271 401 q 264 260 264 300 q 301 122 264 170 q 408 74 338 74 q 506 89 446 74 q 704 151 566 104 q 724 412 713 274 q 726 450 726 440 l 733 561 q 737 621 734 581 q 745 775 745 721 q 625 787 704 780 l 611 789 l 664 829 l 1022 829 l 989 789 q 941 780 965 783 q 892 777 916 777 q 880 662 886 718 q 871 551 875 606 l 863 441 q 853 294 857 365 q 850 168 850 222 q 856 102 850 127 q 873 66 862 76 q 981 50 888 54 q 1043 47 1020 49 l 1018 5 q 922 -3 985 3 q 739 -18 791 -16 q 705 -5 715 -18 q 696 40 696 8 q 697 67 696 52 q 700 100 698 81 m 389 920 q 463 1000 424 959 q 543 1082 501 1040 l 562 1103 q 580 1114 570 1110 q 604 1118 591 1118 l 636 1113 q 677 1011 659 1059 q 709 918 696 962 l 655 889 q 613 975 633 937 q 576 1042 593 1013 q 510 985 546 1016 q 403 890 475 954 l 389 920 z "},"Ù":{"ha":1003,"x_min":2,"x_max":1043,"o":"m 700 100 q 494 38 621 78 q 265 -18 315 -18 q 153 22 193 -18 q 114 138 114 63 q 122 267 114 170 q 127 336 126 312 l 138 446 q 144 522 140 473 q 161 774 159 708 q 77 780 117 777 q 2 789 37 784 l 43 829 l 218 829 l 326 829 l 379 829 q 350 801 366 811 q 318 789 334 791 q 300 662 309 727 q 283 525 292 597 l 277 456 q 267 350 271 401 q 264 260 264 300 q 301 122 264 170 q 408 74 338 74 q 506 89 446 74 q 704 151 566 104 q 724 412 713 274 q 726 450 726 440 l 733 561 q 737 621 734 581 q 745 775 745 721 q 625 787 704 780 l 611 789 l 664 829 l 1022 829 l 989 789 q 941 780 965 783 q 892 777 916 777 q 880 662 886 718 q 871 551 875 606 l 863 441 q 853 294 857 365 q 850 168 850 222 q 856 102 850 127 q 873 66 862 76 q 981 50 888 54 q 1043 47 1020 49 l 1018 5 q 922 -3 985 3 q 739 -18 791 -16 q 705 -5 715 -18 q 696 40 696 8 q 697 67 696 52 q 700 100 698 81 m 623 890 q 500 991 555 943 q 401 1089 446 1040 l 493 1121 q 572 1015 531 1067 q 660 910 614 962 l 623 890 z "},"ı":{"ha":366,"x_min":-21,"x_max":422,"o":"m 422 131 q 285 40 350 77 q 160 -18 220 3 q 138 -12 148 -16 q 122 -3 129 -8 q 97 65 104 37 q 89 117 89 94 q 95 190 89 141 q 103 260 101 239 l 111 374 q 114 415 113 395 q 115 454 115 435 q 105 497 115 486 q 68 509 96 509 q 40 506 58 509 q -21 494 22 503 l -20 526 q 120 586 59 562 q 227 621 181 609 q 241 617 235 620 q 254 608 248 614 l 254 574 q 253 506 254 539 q 249 439 252 473 l 240 321 q 236 257 237 286 q 235 212 235 229 q 248 136 235 159 q 293 114 262 114 q 340 126 313 114 q 422 172 368 138 l 422 131 z "},"ˆ":{"ha":694,"x_min":208,"x_max":529,"o":"m 208 692 q 282 772 243 731 q 363 854 321 812 l 382 875 q 400 886 389 882 q 424 890 410 890 l 456 885 q 497 783 478 831 q 529 690 515 734 l 475 661 q 433 747 452 709 q 396 814 413 785 q 330 757 366 788 q 222 663 294 726 l 208 692 z "},"˜":{"ha":694,"x_min":193,"x_max":597,"o":"m 193 733 l 250 777 q 297 805 276 796 q 336 814 318 814 q 359 811 347 814 q 386 804 372 809 l 437 789 q 457 784 447 785 q 478 782 468 782 q 505 788 490 782 q 538 808 519 795 l 582 844 l 597 818 l 530 747 q 493 721 514 730 q 447 711 471 711 q 425 713 437 711 q 400 720 413 715 l 347 736 q 311 748 319 745 q 297 750 302 750 q 274 745 287 750 q 245 730 260 740 l 212 707 l 193 733 z "},"¯":{"ha":694,"x_min":209,"x_max":562,"o":"m 209 721 l 227 787 l 231 787 q 399 782 343 782 q 465 783 429 782 q 562 787 500 784 l 541 721 q 455 724 498 723 q 371 725 413 725 q 289 724 330 725 q 209 721 249 723 z "},"˘":{"ha":694,"x_min":232,"x_max":593,"o":"m 233 839 l 271 836 q 315 776 288 795 q 385 757 342 757 q 471 778 430 757 q 549 840 513 799 l 593 838 q 501 721 556 760 q 374 682 446 682 q 269 718 307 682 q 232 819 232 754 q 233 829 232 822 q 233 839 233 836 z "},"˙":{"ha":694,"x_min":289,"x_max":496,"o":"m 386 673 q 333 729 357 700 q 289 793 309 759 q 342 835 315 812 q 403 888 370 858 q 445 836 422 863 q 496 779 469 808 q 452 729 479 755 q 386 673 425 703 z "},"˚":{"ha":694,"x_min":256,"x_max":518,"o":"m 256 771 q 307 883 256 839 q 433 928 359 928 q 496 900 473 928 q 518 822 518 872 q 468 707 518 753 q 347 661 417 661 q 279 689 302 661 q 256 771 256 717 m 393 875 q 341 851 361 875 q 322 787 322 827 q 337 732 322 751 q 380 713 353 713 q 433 736 415 713 q 452 804 452 760 q 437 857 452 840 q 393 875 422 875 z "},"¸":{"ha":694,"x_min":98,"x_max":392,"o":"m 392 20 l 286 -50 q 307 -85 300 -68 q 314 -114 314 -102 q 278 -169 314 -144 q 132 -232 241 -194 l 98 -211 l 167 -179 q 197 -158 188 -169 q 207 -132 207 -146 q 200 -107 207 -121 q 179 -75 193 -93 l 338 29 l 392 20 z "},"˝":{"ha":694,"x_min":200,"x_max":667,"o":"m 395 675 l 567 892 l 667 863 q 469 688 590 795 l 440 663 l 395 675 m 200 675 l 372 892 l 471 863 q 339 746 416 814 q 245 663 262 677 l 200 675 z "},"˛":{"ha":694,"x_min":170,"x_max":427,"o":"m 379 24 q 291 -66 321 -21 q 260 -150 260 -111 q 276 -212 260 -190 q 322 -235 293 -235 q 367 -223 347 -235 q 406 -186 387 -212 l 427 -197 q 363 -275 402 -248 q 278 -302 325 -302 q 199 -275 229 -302 q 170 -200 170 -247 q 213 -89 170 -144 q 347 24 257 -34 l 379 24 z "},"ˇ":{"ha":694,"x_min":260,"x_max":582,"o":"m 582 860 q 507 779 545 819 q 428 697 469 738 l 407 676 q 389 665 399 669 q 366 661 378 661 l 334 667 q 292 768 311 720 q 260 861 274 817 l 314 890 q 354 811 334 849 q 395 737 374 772 q 513 842 434 771 q 567 889 549 873 l 582 860 z "},"Ł":{"ha":778,"x_min":-17,"x_max":746,"o":"m 37 44 q 82 51 56 47 q 119 56 109 54 q 131 193 124 106 q 142 316 138 280 l -4 221 l 7 283 l 147 375 q 161 587 156 486 q 166 775 165 688 q 98 782 132 778 q 29 791 64 786 l 69 829 q 175 826 123 827 q 277 825 227 825 q 374 826 327 825 q 465 829 420 827 l 433 791 q 373 781 403 785 q 311 775 342 777 q 301 634 309 750 q 286 427 292 519 l 511 572 l 500 510 l 282 368 q 274 249 279 326 q 261 53 269 172 q 276 52 267 53 q 366 50 337 50 q 489 62 444 50 q 561 102 533 74 q 627 189 595 134 q 710 366 659 243 l 746 342 q 711 151 725 236 q 686 -8 696 66 q 609 -2 659 -4 q 460 0 559 0 l 269 0 l -17 0 l 37 44 z "},"ł":{"ha":447,"x_min":-24,"x_max":498,"o":"m 484 154 q 361 66 428 109 q 218 -17 295 23 q 192 -16 204 -17 q 170 -11 180 -14 q 116 93 136 40 q 97 183 97 145 q 99 242 97 206 q 106 325 102 277 l 113 401 l -24 315 l -14 370 l 117 454 l 125 550 q 132 637 127 581 q 176 871 148 841 q 259 937 208 904 q 372 997 309 969 q 436 992 405 996 q 498 979 468 987 l 439 901 q 376 914 405 909 q 328 918 347 918 q 269 753 281 918 l 269 753 l 253 511 l 406 607 l 396 553 l 249 458 q 240 353 243 391 q 237 292 237 314 q 263 165 237 216 q 322 115 288 115 q 385 136 345 115 q 481 196 425 156 l 484 154 z "},"Š":{"ha":692,"x_min":-1,"x_max":607,"o":"m -1 93 q 36 165 16 131 q 81 231 56 199 q 173 91 113 140 q 314 41 234 41 q 434 83 384 41 q 484 184 484 125 q 454 265 484 229 q 370 328 425 302 q 339 342 359 333 q 175 433 205 405 q 124 502 141 465 q 107 582 107 539 q 199 774 107 695 q 424 852 290 852 q 543 819 495 852 q 607 726 591 786 l 521 625 l 513 629 q 451 754 494 711 q 347 798 408 798 q 251 758 290 798 q 212 661 212 718 q 242 575 212 611 q 339 510 272 539 l 363 499 q 604 279 604 391 q 576 170 604 224 q 497 71 549 115 q 379 0 443 24 q 243 -24 315 -24 q 105 5 166 -24 q -1 93 45 35 m 607 1088 q 532 1006 570 1047 q 453 925 494 966 l 432 904 q 414 893 425 897 q 391 889 404 889 l 359 895 q 317 996 336 947 q 285 1089 299 1045 l 339 1118 q 379 1039 359 1077 q 420 965 399 1000 q 538 1069 459 999 q 592 1117 574 1101 l 607 1088 z "},"š":{"ha":514,"x_min":-17,"x_max":492,"o":"m 79 203 q 151 87 115 123 q 231 52 187 52 q 298 77 270 52 q 326 139 326 103 q 309 188 326 167 q 254 225 291 210 l 245 229 q 72 396 72 302 q 90 469 72 435 q 147 541 107 503 q 237 602 192 582 q 329 623 281 623 q 400 607 369 623 q 457 558 432 591 q 426 507 443 531 q 387 463 408 483 q 317 527 353 505 q 249 549 281 549 q 191 527 214 549 q 167 472 167 505 q 189 419 167 440 q 292 368 211 398 q 410 303 380 335 q 440 218 440 271 q 419 133 440 172 q 351 58 397 94 q 257 4 309 24 q 158 -16 206 -16 q 52 18 96 -16 q -17 117 7 52 l 79 203 m 492 860 q 417 779 455 819 q 338 697 378 738 l 317 676 q 299 665 309 669 q 275 661 288 661 l 243 667 q 202 768 220 720 q 170 861 184 817 l 224 890 q 264 811 243 849 q 304 737 284 772 q 423 842 344 771 q 477 889 458 873 l 492 860 z "},"Ž":{"ha":909,"x_min":-39,"x_max":821,"o":"m -36 -32 l -39 12 l 20 100 q 203 300 73 180 q 254 347 237 331 l 363 452 q 489 573 421 507 q 635 715 557 639 q 577 710 595 711 q 547 708 559 708 q 429 716 511 708 q 300 724 347 724 q 190 686 227 724 q 110 511 153 648 l 83 530 l 142 821 q 184 844 167 838 q 215 851 201 851 q 416 836 272 851 q 643 821 559 821 q 708 827 671 821 q 789 844 745 833 l 789 819 q 576 591 760 764 q 517 536 537 555 l 433 460 q 386 414 425 452 q 110 147 241 273 q 160 157 137 153 q 203 160 184 160 q 383 140 262 160 q 562 119 504 119 q 674 180 619 119 q 794 379 728 241 l 821 353 l 708 14 q 669 -7 691 -1 q 611 -14 646 -14 q 347 13 514 -14 q 114 40 180 40 q 36 22 73 40 q -36 -32 -1 5 m 715 1088 q 641 1006 679 1047 q 562 925 602 966 l 541 904 q 523 893 533 897 q 499 889 512 889 l 467 895 q 426 996 444 947 q 393 1089 408 1045 l 448 1118 q 488 1039 467 1077 q 528 965 508 1000 q 647 1069 568 999 q 701 1117 682 1101 l 715 1088 z "},"ž":{"ha":533,"x_min":-31,"x_max":612,"o":"m -31 118 q 82 213 17 160 q 164 281 148 267 l 224 333 q 277 382 231 338 q 357 458 323 426 q 294 461 316 460 q 257 464 272 463 l 201 468 q 174 470 189 469 q 157 472 159 472 q 103 452 128 472 q 37 375 77 432 l 14 387 q 39 445 24 414 q 75 522 53 477 l 100 572 q 123 599 109 590 q 155 608 137 608 q 225 600 169 608 q 250 596 241 597 l 324 583 q 340 581 329 583 q 407 574 385 574 q 467 584 439 574 q 526 618 496 595 l 536 591 q 308 352 446 471 q 284 332 292 338 l 176 238 q 296 191 226 236 q 325 174 315 179 l 370 147 q 412 128 392 134 q 452 122 432 122 q 513 134 479 122 q 612 182 547 146 l 612 147 q 554 101 587 125 q 473 43 522 77 l 428 11 q 391 -11 406 -3 q 367 -18 375 -18 q 317 10 354 -18 q 271 45 290 33 l 216 79 q 145 122 170 111 q 98 132 121 132 q 46 122 79 132 q -31 90 14 111 l -31 118 m 501 860 q 426 779 465 819 q 347 697 388 738 l 326 676 q 308 665 319 669 q 285 661 298 661 l 253 667 q 212 768 230 720 q 179 861 193 817 l 233 890 q 273 811 253 849 q 314 737 294 772 q 433 842 353 771 q 486 889 468 873 l 501 860 z "},"¦":{"ha":694,"x_min":297,"x_max":399,"o":"m 297 277 l 399 277 l 399 -237 l 297 -237 l 297 277 m 297 971 l 399 971 l 399 457 l 297 457 l 297 971 z "},"Ð":{"ha":987,"x_min":-33,"x_max":940,"o":"m -33 0 l 19 44 q 71 50 37 46 q 119 56 104 54 l 121 79 q 149 424 142 313 l -1 424 l 5 468 l 151 468 q 163 635 159 559 q 166 775 167 711 q 98 782 141 777 q 39 789 54 787 l 83 832 q 165 828 125 829 q 249 827 206 827 q 450 829 343 827 q 568 832 556 832 q 851 752 762 832 q 940 497 940 671 q 920 327 940 406 q 860 182 900 247 q 709 41 800 84 q 467 -1 618 -1 q 345 1 445 -1 q 165 3 244 3 q 47 2 90 3 q -33 0 5 1 m 266 56 q 391 47 349 50 q 456 45 433 45 q 581 62 531 45 q 671 121 630 80 q 751 267 721 171 q 782 473 782 362 q 714 714 782 640 q 494 789 646 789 q 426 787 471 789 q 311 781 380 785 q 299 631 308 741 q 286 469 290 521 l 575 468 l 568 424 l 283 424 q 274 249 278 339 q 266 56 269 158 z "},"ð":{"ha":610,"x_min":41,"x_max":627,"o":"m 394 592 q 377 678 386 644 q 357 736 368 713 l 176 646 l 151 701 l 330 790 q 270 888 302 846 q 203 961 238 930 l 244 993 q 328 928 286 968 q 415 831 370 888 l 599 922 l 627 868 l 446 781 q 524 572 497 682 q 550 349 550 463 q 531 194 550 256 q 472 98 511 131 q 338 11 404 42 q 222 -20 273 -20 q 87 46 134 -20 q 41 239 41 112 q 69 406 41 348 q 175 518 96 465 q 280 574 232 556 q 372 593 328 593 q 387 592 382 593 q 394 592 391 592 m 168 307 q 202 119 168 187 q 297 52 237 52 q 389 107 357 52 q 421 269 421 163 q 389 457 421 391 q 297 524 356 524 q 201 468 235 524 q 168 307 168 412 z "},"Ý":{"ha":823,"x_min":-46,"x_max":909,"o":"m 96 0 l 142 43 q 232 56 202 52 q 288 62 262 60 q 313 280 304 187 q 321 437 321 374 q 265 670 321 589 q 107 751 210 751 q 52 742 83 751 q -43 705 20 733 l -46 736 q 104 823 -2 763 l 147 847 q 176 849 157 847 q 203 851 194 851 q 385 765 323 851 q 447 513 447 679 q 445 450 447 492 q 444 443 445 446 q 628 747 536 643 q 804 851 720 851 q 857 844 831 851 q 909 822 883 837 l 859 700 q 807 719 831 713 q 761 725 783 725 q 654 688 705 725 q 558 576 604 651 q 464 352 494 471 q 435 77 435 233 l 435 64 q 519 53 463 61 q 602 43 575 45 l 570 0 q 475 2 526 1 q 326 3 425 3 q 183 2 230 3 q 96 0 136 1 m 387 903 l 559 1120 l 659 1090 q 526 974 603 1042 q 433 890 450 905 l 387 903 z "},"ý":{"ha":614,"x_min":-182,"x_max":590,"o":"m -182 -415 l -131 -310 q -51 -320 -80 -317 q -3 -323 -22 -323 q 129 -269 72 -323 q 240 -87 185 -214 q 199 88 218 11 q 167 212 180 165 l 144 290 q 86 459 108 418 q 37 500 64 500 q 6 494 28 500 q -56 473 -16 488 l -54 510 q 79 584 31 559 q 159 621 127 608 q 174 616 168 620 q 188 606 181 613 q 241 420 210 553 l 241 419 l 261 339 q 291 215 269 309 q 329 57 313 121 l 382 147 q 444 281 422 216 q 465 397 465 347 q 452 476 465 437 q 412 554 439 514 q 464 593 433 574 q 536 631 495 612 q 576 561 563 597 q 590 486 590 524 q 481 235 590 418 q 424 136 444 172 l 271 -131 q 186 -275 222 -216 q 139 -347 151 -333 q 59 -417 96 -399 q -40 -435 21 -435 q -100 -430 -64 -435 q -182 -415 -136 -425 m 257 675 l 429 892 l 528 863 q 396 746 473 814 q 303 663 319 677 l 257 675 z "},"Þ":{"ha":790,"x_min":-25,"x_max":751,"o":"m 17 41 q 76 52 56 49 q 113 57 96 55 q 124 177 119 111 q 138 356 130 242 l 150 530 l 151 548 q 161 754 161 691 l 161 774 q 106 778 135 774 q 33 787 77 781 l 84 829 q 196 825 157 826 q 268 823 235 823 q 456 829 329 823 l 460 829 l 420 787 q 398 785 414 787 q 304 775 338 777 l 297 692 l 449 692 q 574 687 536 692 q 637 672 613 683 q 724 607 697 648 q 751 500 751 566 q 662 287 751 363 q 411 210 572 210 q 367 211 388 210 q 325 215 346 212 l 309 241 l 321 241 q 528 304 454 241 q 603 476 603 366 q 552 604 603 559 q 408 648 502 648 q 358 646 385 648 q 298 639 330 644 q 288 540 292 593 q 277 383 283 486 l 268 268 q 263 170 264 214 q 261 90 261 126 l 261 57 q 291 54 270 56 q 443 41 383 45 l 395 0 l -25 0 l 17 41 z "},"þ":{"ha":646,"x_min":-71,"x_max":602,"o":"m 244 503 q 228 312 235 405 q 217 127 221 219 q 298 92 258 104 q 376 79 338 79 q 443 144 422 79 q 464 354 464 210 q 436 481 464 444 q 342 519 408 519 q 306 516 327 519 q 244 503 284 513 m 517 104 q 429 43 475 70 q 334 -4 384 16 q 318 -5 326 -5 q 294 -5 310 -5 q 249 -3 270 -5 q 208 4 228 -1 q 191 -220 196 -145 q 183 -358 186 -294 q 301 -368 227 -363 q 335 -370 324 -369 l 298 -412 q 201 -416 252 -415 q 89 -418 150 -418 q -9 -417 24 -418 q -71 -415 -42 -417 l -33 -370 q 7 -365 -14 -367 q 52 -362 28 -363 q 84 62 64 -233 l 86 87 l 111 465 l 3 432 l 7 472 l 115 521 l 136 778 q 143 831 138 807 q 155 875 148 855 q 236 935 188 904 q 350 997 284 965 l 386 986 q 319 931 342 954 q 286 892 296 909 q 268 803 276 873 q 249 561 260 732 l 332 586 q 417 609 390 604 q 465 614 444 614 q 568 563 534 614 q 602 407 602 511 q 580 240 602 318 q 517 104 558 163 z "},"−":{"ha":1157,"x_min":172,"x_max":985,"o":"m 172 463 l 985 463 l 985 367 l 172 367 l 172 463 z "},"×":{"ha":1157,"x_min":199,"x_max":968,"o":"m 265 799 l 583 481 l 901 799 l 968 732 l 650 414 l 968 96 l 901 31 l 583 347 l 265 31 l 199 96 l 517 414 l 199 732 l 265 799 z "},"¹":{"ha":458,"x_min":64,"x_max":414,"o":"m 64 327 l 92 354 q 139 358 113 356 q 193 363 164 361 q 202 468 197 412 q 208 533 208 525 l 214 590 q 217 623 215 600 q 227 742 223 694 q 166 729 193 736 q 117 713 140 722 l 96 726 q 213 779 159 753 q 315 832 266 804 l 326 822 q 307 654 318 756 q 302 616 304 628 l 300 574 q 298 554 299 566 q 286 363 286 422 q 371 357 315 359 q 414 354 399 355 l 395 327 q 294 329 327 328 q 231 329 260 329 q 166 329 201 329 q 64 327 131 328 z "},"²":{"ha":458,"x_min":5,"x_max":431,"o":"m 5 361 l 60 407 q 249 590 207 533 q 290 699 290 646 q 268 774 290 745 q 211 803 245 803 q 156 779 178 803 q 135 718 135 755 q 137 689 135 701 q 142 667 138 677 l 64 640 q 56 663 58 651 q 53 688 53 675 q 110 790 53 750 q 257 831 168 831 q 353 801 318 831 q 387 720 387 772 q 375 667 387 694 q 338 612 362 640 q 220 517 290 576 q 199 498 205 505 l 128 440 q 197 426 153 438 q 211 422 207 423 l 260 408 l 269 406 q 325 395 317 395 q 422 474 355 395 l 425 477 l 431 452 q 386 378 414 425 q 346 313 357 331 q 336 310 343 312 q 323 309 328 309 q 288 314 313 309 q 233 329 262 319 l 187 346 l 176 350 q 94 372 113 372 q 58 363 79 372 q 5 330 38 353 l 5 361 z "},"³":{"ha":458,"x_min":-12,"x_max":387,"o":"m 29 397 q 109 368 76 377 q 165 358 142 358 q 256 394 222 358 q 290 488 290 429 q 261 564 290 536 q 183 591 233 591 q 155 589 169 591 q 125 583 140 587 l 125 602 q 241 650 199 618 q 282 722 282 682 q 266 764 282 749 q 221 779 250 779 q 179 773 202 779 q 125 753 155 766 l 122 766 q 166 797 144 783 q 210 823 188 811 q 238 832 224 829 q 269 835 253 835 q 341 814 315 835 q 368 757 368 793 q 364 733 368 746 q 349 700 359 721 q 306 665 327 681 q 263 636 285 650 q 354 604 321 633 q 387 528 387 575 q 376 475 387 503 q 342 415 365 447 q 209 332 258 357 q 131 307 160 307 q 56 313 92 307 q -12 332 20 319 l 29 397 z "},"¼":{"ha":1107,"x_min":61,"x_max":1101,"o":"m 903 171 l 914 281 q 919 330 915 289 q 926 403 923 371 q 880 354 905 380 q 807 272 855 327 l 771 231 q 753 208 765 224 q 728 171 742 192 l 903 171 m 997 -3 q 965 -13 985 -9 q 905 -22 946 -18 q 894 -17 898 -20 q 889 -10 890 -14 q 892 42 890 10 q 895 86 894 74 l 897 131 l 730 131 q 695 132 709 131 q 669 138 681 134 q 722 209 696 176 q 771 269 747 241 l 808 313 q 865 373 830 338 q 946 454 899 408 q 987 466 972 461 q 1014 476 1002 471 q 1006 420 1009 450 q 1000 352 1002 389 l 996 309 q 986 199 989 237 q 983 160 983 161 q 985 171 983 164 l 1101 170 q 1082 150 1094 160 q 1054 131 1069 140 l 982 131 l 979 90 q 978 72 979 81 q 978 53 978 64 q 982 25 978 37 q 997 -3 987 12 m 888 885 q 743 673 817 787 q 599 437 670 560 l 410 113 q 321 -37 361 29 q 252 -147 281 -102 l 170 -147 q 312 63 239 -50 q 458 300 385 176 l 647 625 q 739 779 702 718 q 807 885 777 839 l 888 885 m 61 359 l 87 386 q 138 390 104 388 q 184 393 172 392 q 194 492 189 439 q 200 553 199 545 l 204 606 q 209 658 204 608 q 216 747 214 707 q 166 738 193 745 q 111 721 140 731 l 92 733 q 193 777 141 753 q 301 831 245 801 l 313 822 q 298 704 305 771 q 290 631 291 637 l 286 590 q 276 475 279 519 q 274 395 273 431 q 335 389 304 391 q 395 386 365 387 l 378 359 q 282 362 315 361 q 221 363 249 363 q 65 360 170 363 l 61 359 z "},"½":{"ha":1107,"x_min":61,"x_max":1079,"o":"m 675 32 l 726 75 q 908 247 869 195 q 947 347 947 299 q 926 417 947 391 q 871 444 905 444 q 819 422 839 444 q 799 366 799 400 q 801 338 799 350 q 806 317 802 327 l 730 293 q 722 315 724 304 q 720 338 720 326 q 774 433 720 395 q 914 471 829 471 q 1006 443 973 471 q 1039 367 1039 416 q 1027 318 1039 343 q 991 267 1015 294 q 908 201 955 239 q 858 161 862 164 l 792 107 q 824 101 808 104 q 871 89 840 98 l 916 77 q 928 73 921 75 q 981 62 972 62 q 1066 130 1006 62 l 1075 140 l 1079 117 q 1035 44 1062 87 q 1000 -12 1008 1 q 988 -16 993 -15 q 978 -17 983 -17 q 944 -12 969 -17 q 893 3 920 -6 l 848 18 q 826 26 840 21 q 760 43 775 43 q 725 34 745 43 q 675 4 705 25 l 675 32 m 888 885 q 743 673 817 787 q 599 437 670 560 l 410 113 q 321 -37 361 29 q 252 -147 281 -102 l 170 -147 q 312 63 239 -50 q 458 300 385 176 l 647 625 q 739 779 702 718 q 807 885 777 839 l 888 885 m 61 359 l 87 386 q 138 390 104 388 q 184 393 172 392 q 194 492 189 439 q 200 553 199 545 l 204 606 q 209 658 204 608 q 216 747 214 707 q 166 738 193 745 q 111 721 140 731 l 92 733 q 193 777 141 753 q 301 831 245 801 l 313 822 q 298 704 305 771 q 290 631 291 637 l 286 590 q 276 475 279 519 q 274 395 273 431 q 335 389 304 391 q 395 386 365 387 l 378 359 q 282 362 315 361 q 221 363 249 363 q 65 360 170 363 l 61 359 z "},"¾":{"ha":1107,"x_min":-11,"x_max":1101,"o":"m 903 171 l 914 281 q 919 330 915 289 q 926 403 923 371 q 880 354 905 380 q 807 272 855 327 l 771 231 q 753 208 765 224 q 728 171 742 192 l 903 171 m 997 -3 q 965 -13 985 -9 q 905 -22 946 -18 q 894 -17 898 -20 q 889 -10 890 -14 q 892 42 890 10 q 895 86 894 74 l 897 131 l 730 131 q 695 132 709 131 q 669 138 681 134 q 722 209 696 176 q 771 269 747 241 l 808 313 q 865 373 830 338 q 946 454 899 408 q 987 466 972 461 q 1014 476 1002 471 q 1006 420 1009 450 q 1000 352 1002 389 l 996 309 q 986 199 989 237 q 983 160 983 161 q 985 171 983 164 l 1101 170 q 1082 150 1094 160 q 1054 131 1069 140 l 982 131 l 979 90 q 978 72 979 81 q 978 53 978 64 q 982 25 978 37 q 997 -3 987 12 m 888 885 q 743 673 817 787 q 599 437 670 560 l 410 113 q 321 -37 361 29 q 252 -147 281 -102 l 170 -147 q 312 63 239 -50 q 458 300 385 176 l 647 625 q 739 779 702 718 q 807 885 777 839 l 888 885 m 28 427 q 103 399 71 408 q 157 390 135 390 q 245 423 212 390 q 278 511 278 456 q 250 582 278 555 q 175 608 222 608 q 151 606 165 608 q 119 600 136 604 l 119 616 q 229 662 191 633 q 268 729 268 692 q 253 769 268 755 q 211 783 238 783 q 171 777 193 783 q 119 757 149 770 l 117 771 q 158 799 138 786 q 200 823 179 812 q 230 832 216 829 q 257 835 243 835 q 326 815 300 835 q 351 761 351 795 q 347 740 351 751 q 332 708 343 728 q 292 676 312 691 q 252 649 273 662 q 338 619 307 646 q 370 547 370 592 q 358 497 370 524 q 325 443 347 471 q 200 365 246 389 q 125 342 154 342 q 52 347 87 342 q -11 364 18 353 l 28 427 z "},"₣":{"ha":1133,"x_min":-39,"x_max":1186,"o":"m 283 465 q 306 460 293 462 q 347 458 319 458 l 562 456 l 525 414 l 329 403 l 328 403 q 279 393 297 400 q 266 232 271 315 q 258 60 260 149 q 340 52 285 58 q 425 43 395 45 l 383 -3 q 272 3 328 1 q 158 5 216 5 q 84 4 124 5 q -39 0 43 3 l 12 43 q 61 51 36 47 q 114 57 85 54 q 129 228 122 144 q 142 400 136 313 l 147 488 q 158 660 155 591 q 161 779 161 729 q 94 786 124 782 q 35 795 63 789 l 77 829 l 214 829 q 474 835 366 829 q 650 851 583 840 q 687 807 673 831 q 707 754 701 783 l 608 671 q 571 732 589 709 q 536 764 553 755 q 493 775 522 772 q 408 779 464 779 q 347 779 369 779 q 304 778 325 779 q 292 612 297 690 q 283 465 287 533 m 884 20 q 819 -3 850 5 q 760 -16 788 -12 q 771 208 762 92 q 772 222 772 218 l 778 314 q 780 358 779 330 q 783 446 783 424 q 774 487 783 475 q 743 498 765 498 q 695 496 715 498 q 656 489 675 494 q 654 494 654 492 q 654 501 654 496 q 655 513 654 507 q 658 524 656 518 q 790 587 733 564 q 890 619 847 610 q 904 613 899 617 q 912 603 909 610 l 912 575 q 911 527 912 552 q 909 473 910 502 q 996 555 933 490 q 1046 606 1027 588 q 1079 613 1054 607 q 1115 619 1103 619 q 1148 613 1132 619 q 1186 593 1165 607 q 1162 524 1175 554 q 1136 469 1150 494 q 1118 477 1130 472 q 1047 498 1065 498 q 984 476 1020 498 q 911 412 949 454 l 904 317 q 896 189 902 290 q 884 20 889 89 z "},"Ğ":{"ha":908,"x_min":49,"x_max":896,"o":"m 896 380 l 850 339 l 800 321 q 783 142 793 229 q 762 -28 774 55 q 706 -68 739 -50 q 632 -100 673 -86 q 638 -40 635 -71 q 642 24 640 -9 q 497 -8 559 3 q 390 -20 435 -20 q 144 88 239 -20 q 49 368 49 195 q 171 722 49 593 q 507 850 292 850 q 703 815 628 850 q 810 710 778 781 q 763 645 787 677 q 708 578 738 612 l 690 589 q 629 750 685 691 q 484 810 574 810 q 275 706 353 810 q 197 427 197 602 q 281 149 197 250 q 513 49 366 49 q 575 56 541 49 q 648 79 609 64 q 650 113 649 91 q 654 199 654 178 q 646 286 654 259 q 616 319 637 312 q 485 336 589 330 q 446 339 460 338 l 503 380 l 896 380 m 367 1067 l 404 1064 q 449 1004 422 1023 q 518 985 476 985 q 605 1006 564 985 q 682 1068 646 1027 l 726 1065 q 635 949 690 988 q 507 910 580 910 q 403 946 440 910 q 366 1047 366 982 q 366 1057 366 1050 q 367 1067 367 1063 z "},"ğ":{"ha":612,"x_min":-41,"x_max":606,"o":"m 412 504 q 339 531 372 522 q 277 539 306 539 q 229 525 244 539 q 201 468 213 510 q 177 358 185 412 q 168 257 168 304 q 187 153 168 194 q 232 113 205 113 q 268 122 244 113 q 322 149 291 131 l 389 186 q 408 433 395 260 q 412 504 411 480 m 21 -307 q 127 -322 83 -317 q 199 -328 172 -328 q 272 -317 244 -328 q 315 -283 300 -307 q 353 -177 338 -247 q 375 20 367 -106 l 383 129 l 301 78 q 224 31 264 54 q 138 -17 184 8 l 129 -17 q 112 -15 120 -17 q 96 -8 103 -12 q 43 81 60 30 q 26 197 26 132 q 58 401 26 305 q 123 519 89 498 q 271 597 204 570 q 375 625 337 625 q 479 614 420 625 q 606 581 538 602 l 545 511 q 536 450 540 484 q 528 350 533 416 l 517 176 q 504 1 510 78 q 496 -86 498 -75 q 494 -100 496 -90 q 446 -232 488 -180 q 334 -338 403 -285 q 191 -429 266 -391 q 171 -430 182 -430 q 139 -431 160 -431 q 48 -426 93 -431 q -41 -410 3 -420 l 21 -307 m 193 839 l 231 836 q 275 776 248 795 q 345 757 302 757 q 431 778 390 757 q 509 840 473 799 l 553 838 q 461 721 516 760 q 334 682 406 682 q 229 718 267 682 q 192 819 192 754 q 193 829 192 822 q 193 839 193 836 z "},"İ":{"ha":421,"x_min":-39,"x_max":459,"o":"m 304 775 q 291 594 298 696 q 282 473 283 491 l 273 350 q 267 235 270 298 q 258 56 263 172 q 334 50 284 54 q 407 45 383 46 l 364 0 l 356 0 q 143 5 214 5 q -35 0 83 5 l -39 0 l 12 44 q 64 50 29 46 q 114 56 98 54 q 130 240 123 158 q 142 400 136 323 l 147 488 q 158 656 155 589 q 161 775 161 724 q 95 782 127 778 q 34 792 62 787 l 77 829 q 176 826 127 827 q 273 825 225 825 q 368 826 321 825 q 459 829 414 827 l 421 791 q 369 782 398 787 q 304 775 339 778 m 275 901 q 221 957 245 928 q 178 1021 197 987 q 231 1063 203 1040 q 292 1116 258 1086 q 334 1063 311 1090 q 385 1007 357 1036 q 341 957 368 983 q 275 901 314 930 z "},"Ş":{"ha":692,"x_min":-1,"x_max":607,"o":"m -1 93 q 36 165 16 131 q 81 231 56 199 q 173 91 113 140 q 314 41 234 41 q 434 83 384 41 q 484 184 484 125 q 454 265 484 229 q 370 328 425 302 q 339 342 359 333 q 175 433 205 405 q 124 502 141 465 q 107 582 107 539 q 199 774 107 695 q 424 852 290 852 q 543 819 495 852 q 607 726 591 786 l 521 625 l 513 629 q 451 754 494 711 q 347 798 408 798 q 251 758 290 798 q 212 661 212 718 q 242 575 212 611 q 339 510 272 539 l 363 499 q 604 279 604 391 q 576 170 604 224 q 497 71 549 115 q 379 0 443 24 q 243 -24 315 -24 q 105 5 166 -24 q -1 93 45 35 m 367 20 l 261 -50 q 282 -85 275 -68 q 289 -114 289 -102 q 253 -169 289 -144 q 107 -232 216 -194 l 73 -211 l 142 -179 q 172 -158 163 -169 q 182 -132 182 -146 q 175 -107 182 -121 q 154 -75 168 -93 l 313 29 l 367 20 z "},"ş":{"ha":514,"x_min":-17,"x_max":457,"o":"m 79 203 q 151 87 115 123 q 231 52 187 52 q 298 77 270 52 q 326 139 326 103 q 309 188 326 167 q 254 225 291 210 l 245 229 q 72 396 72 302 q 90 469 72 435 q 147 541 107 503 q 237 602 192 582 q 329 623 281 623 q 400 607 369 623 q 457 558 432 591 q 426 507 443 531 q 387 463 408 483 q 317 527 353 505 q 249 549 281 549 q 191 527 214 549 q 167 472 167 505 q 189 419 167 440 q 292 368 211 398 q 410 303 380 335 q 440 218 440 271 q 419 133 440 172 q 351 58 397 94 q 257 4 309 24 q 158 -16 206 -16 q 52 18 96 -16 q -17 117 7 52 l 79 203 m 302 20 l 196 -50 q 217 -85 210 -68 q 224 -114 224 -102 q 188 -169 224 -144 q 42 -232 151 -194 l 8 -211 l 77 -179 q 107 -158 98 -169 q 117 -132 117 -146 q 110 -107 117 -121 q 89 -75 103 -93 l 248 29 l 302 20 z "},"Ć":{"ha":840,"x_min":54,"x_max":798,"o":"m 766 89 q 562 5 654 33 q 395 -22 471 -22 q 143 80 232 -22 q 54 368 54 182 q 177 725 54 598 q 522 852 300 852 q 713 813 650 852 q 798 682 776 774 q 746 617 774 650 q 686 550 718 584 l 673 555 l 673 559 q 623 747 673 681 q 482 814 573 814 q 279 706 357 814 q 201 421 201 599 q 277 149 201 247 q 489 52 353 52 q 620 71 544 52 q 783 127 695 91 l 766 89 m 419 903 l 591 1120 l 690 1090 q 558 974 635 1042 q 465 890 481 905 l 419 903 z "},"ć":{"ha":538,"x_min":32,"x_max":557,"o":"m 557 123 q 378 16 454 50 q 244 -18 302 -18 q 87 51 142 -18 q 32 248 32 120 q 52 413 32 344 q 107 511 71 482 q 240 592 168 561 q 363 624 313 624 q 444 596 412 624 q 476 526 476 569 q 475 519 476 524 q 475 513 475 514 q 427 478 454 496 q 361 441 399 460 q 333 528 355 498 q 278 558 312 558 q 192 492 222 558 q 163 300 163 426 q 206 141 163 195 q 334 86 250 86 q 435 103 382 86 q 557 160 488 121 l 557 123 m 236 675 l 408 892 l 507 863 q 375 746 452 814 q 282 663 298 677 l 236 675 z "},"Č":{"ha":840,"x_min":54,"x_max":798,"o":"m 766 89 q 562 5 654 33 q 395 -22 471 -22 q 143 80 232 -22 q 54 368 54 182 q 177 725 54 598 q 522 852 300 852 q 713 813 650 852 q 798 682 776 774 q 746 617 774 650 q 686 550 718 584 l 673 555 l 673 559 q 623 747 673 681 q 482 814 573 814 q 279 706 357 814 q 201 421 201 599 q 277 149 201 247 q 489 52 353 52 q 620 71 544 52 q 783 127 695 91 l 766 89 m 704 1088 q 629 1006 667 1047 q 550 925 591 966 l 529 904 q 511 893 522 897 q 488 889 500 889 l 456 895 q 414 996 433 947 q 382 1089 396 1045 l 436 1118 q 476 1039 456 1077 q 517 965 496 1000 q 635 1069 556 999 q 689 1117 671 1101 l 704 1088 z "},"č":{"ha":538,"x_min":32,"x_max":557,"o":"m 557 123 q 378 16 454 50 q 244 -18 302 -18 q 87 51 142 -18 q 32 248 32 120 q 52 413 32 344 q 107 511 71 482 q 240 592 168 561 q 363 624 313 624 q 444 596 412 624 q 476 526 476 569 q 475 519 476 524 q 475 513 475 514 q 427 478 454 496 q 361 441 399 460 q 333 528 355 498 q 278 558 312 558 q 192 492 222 558 q 163 300 163 426 q 206 141 163 195 q 334 86 250 86 q 435 103 382 86 q 557 160 488 121 l 557 123 m 521 860 q 446 779 484 819 q 367 697 408 738 l 346 676 q 328 665 338 669 q 304 661 317 661 l 273 667 q 231 768 250 720 q 199 861 213 817 l 253 890 q 293 811 273 849 q 334 737 313 772 q 452 842 373 771 q 506 889 488 873 l 521 860 z "},"đ":{"ha":624,"x_min":26,"x_max":766,"o":"m 370 178 q 376 353 370 241 q 383 513 382 465 q 324 533 348 527 q 282 539 300 539 q 230 526 249 539 q 197 482 211 513 q 171 379 182 444 q 160 253 160 315 q 182 152 160 194 q 235 110 205 110 q 281 122 255 110 q 370 178 307 134 m 375 127 q 247 41 305 77 q 146 -16 189 4 q 134 -17 140 -16 q 123 -17 129 -17 q 110 -15 121 -17 q 104 -14 106 -14 q 46 80 65 29 q 26 191 26 132 q 47 373 26 296 q 106 485 68 450 q 240 578 172 545 q 367 611 309 611 q 381 611 376 611 q 390 610 386 610 l 397 694 l 228 694 l 235 736 l 400 736 l 400 746 q 456 868 400 812 q 648 994 512 924 q 709 990 680 994 q 766 976 739 985 l 713 896 q 644 907 671 904 q 599 911 617 911 q 530 751 545 911 q 529 736 530 741 l 669 736 l 663 694 l 527 694 q 513 490 522 616 q 501 290 501 322 q 511 157 501 198 q 545 117 522 117 q 605 138 562 117 q 700 195 648 159 l 700 150 q 570 53 633 94 q 444 -16 507 12 q 422 -13 433 -16 q 403 -4 412 -9 q 385 57 392 25 q 375 127 378 90 z "},"­":{"ha":457,"x_min":28,"x_max":412,"o":"m 28 244 l 77 359 l 412 359 l 364 244 l 28 244 z "},"∙":{"ha":347,"x_min":69,"x_max":277,"o":"m 167 294 q 110 354 134 323 q 69 415 85 385 l 191 522 q 231 456 210 486 q 277 400 252 426 q 221 339 248 366 q 167 294 194 313 z "},"":{"ha":694,"x_min":4,"x_max":690,"o":"m 690 689 q 642 626 675 668 q 593 564 608 583 l 581 570 l 581 575 q 554 761 581 708 q 465 814 528 814 q 340 736 389 814 q 275 513 292 658 l 549 513 l 530 471 l 271 471 q 271 462 271 468 q 268 403 268 418 l 268 361 l 484 361 l 465 319 l 271 319 q 330 118 281 184 q 468 52 379 52 q 566 70 505 52 q 673 115 626 89 l 657 77 q 513 0 574 23 q 390 -22 452 -22 q 199 68 271 -22 q 121 319 128 158 l 4 319 l 22 361 l 121 361 q 123 416 121 389 q 129 471 125 444 l 32 471 l 49 513 l 138 513 q 263 763 172 673 q 489 852 354 852 q 642 812 593 852 q 690 689 690 772 z "},"€":{"ha":694,"x_min":4,"x_max":690,"o":"m 690 689 q 642 626 675 668 q 593 564 608 583 l 581 570 l 581 575 q 554 761 581 708 q 465 814 528 814 q 340 736 389 814 q 275 513 292 658 l 549 513 l 530 471 l 271 471 q 271 462 271 468 q 268 403 268 418 l 268 361 l 484 361 l 465 319 l 271 319 q 330 118 281 184 q 468 52 379 52 q 566 70 505 52 q 673 115 626 89 l 657 77 q 513 0 574 23 q 390 -22 452 -22 q 199 68 271 -22 q 121 319 128 158 l 4 319 l 22 361 l 121 361 q 123 416 121 389 q 129 471 125 444 l 32 471 l 49 513 l 138 513 q 263 763 172 673 q 489 852 354 852 q 642 812 593 852 q 690 689 690 772 z "}}}
